<svg xmlns="http://www.w3.org/2000/svg" width="96" height="96"><g fill="#8A2542" fill-rule="evenodd"><path d="M6.14 34.047C14.696 13.58 29.208 2.419 49.673.558c20.465-1.86 34.79 8.558 42.977 31.256H96L91.534 41.86l-7.813-7.813 3.348-1.117C79.628 13.581 67.162 4.28 49.674 5.023c-17.488.744-32 10.419-43.535 29.024zM89.862 61.953c-8.558 20.466-23.07 31.628-43.535 33.489-20.465 1.86-34.79-8.558-42.977-31.256H.001L4.467 54.14l7.813 7.813-3.348 1.117c7.441 19.349 19.907 28.65 37.395 27.907 17.488-.744 32-10.419 43.535-29.024z"/><g fill-rule="nonzero"><path d="M35.33 68.389c-.078-.55-16.99-8.472-13.767-37 19.307 4.116 26.794 16.44 27.697 16.05.904-.394-1.26-6.304-8.11-10.93 2.563-8.199 7.473-18.006 12.193-21.247C63.54 25.138 65.006 34.738 65.14 39.03c-3.042 1.24-7.136 3.21-9.53 4.613l-.302-3.893 6.686-4.681-7.079 3.24-.787-4.68c1.967-1.441 7.473-4.322 7.473-4.322s-5.553 1.642-7.473 2.52c-.276.127-.096-12.893-.786-11.523-.69 1.37-.852 16.095-1.573 16.205-1.573.24-4.195.24-7.866 0 3.67 1.2 6.555 1.8 8.652 1.8 0 0 .662 2.392.787 4.322.078 1.203-.336 2.296-1.24 3.28-4.068 2.854-7.082 5.871-9.277 8.85l-2.902-3.694c.031-3.943.31-6.755.834-8.436-.659-.174-1.577 1.987-2.753 6.482-8.834-9.831-13.27-14.69-13.311-14.576-.04.115 2.036 3.533 6.231 10.255-6.554-.72-8.783-.72-6.686 0 2.098.72 4.75 1.443 7.956 2.168h.014l8.568 10.907c-4.874 8.494-1.593 19.335-1.593 19.335s-6.292-26.288 34.61-38.892c-.08 1.052 1.966 37.092-25.17 41.773l.021-.09-.022.09c31.204-1.575 29.858-45.86 29.104-46.455-.741-.573-8.792 4.136-10.38 4.696C67.5 24.625 52.547 9.444 51.77 9.5c-.844.043-11.24 15.093-14.357 24.117-4.072-2.272-18.286-5.03-18.305-5.194C12.834 57.756 35.252 68.92 35.33 68.389z"/><path d="M41.142 86.5c.028 0 4.789-12.603 7.697-16.869 2.511-1.3 6.007-1.949 10.487-1.949s1.794-.471-8.057-1.413c2.267-2.942 4.767-5.792 7.146-8.325 3.77-.987 7.367-1.48 10.793-1.48 3.426 0 .877-.59-7.646-1.771 3.606-3.625 12.39-15.6 8.437-11.257-3.953 4.343-16.023 14.1-17.217 15.458-1.04-3.872-1.89-5.767-2.548-5.687.79 5.066.614 8.183-.529 9.35-5.067 6.296-9.57 23.909-8.563 23.943z"/></g></g></svg>