<svg xmlns="http://www.w3.org/2000/svg" width="92" height="95"><g fill="#8A2542" fill-rule="evenodd"><path d="M46 3l37 40v46.953C70.833 93.318 58.667 95 46.5 95c-12.167 0-24.333-1.682-36.5-5.047v-45L46 3zm0 .5L13 42.958v40.5C23.333 86.486 33.667 88 44 88c10.333 0 20.667-1.514 31-4.542V46l8-3-8.5-8.5L46 3.5z"/><path d="M46 0l46 49.99c-9.685.145-17.696-1.365-24.035-4.527C64.668 49.821 57.345 52 46 52c-12.507 0-20.125-2.648-22.856-7.943C17.13 46.732 9.676 48.047.788 48L0 47.99 45.976.025 46 0zM12 42.993l.685.007c6.582.025 12.096-.979 16.539-3.011C30.394 45.329 36.153 48 46.5 48c10.285 0 16.036-2.638 17.253-7.914 4.357 2.036 9.772 3.005 16.247 2.907L48.636 9.79A202.999 202.999 0 0046.5 7.263c-.033-.298-.16-.343-.377-.134L46 7l.017.112.017.11-.034.04-.017.023L46 7 12 42.993z"/></g></svg>