<svg xmlns="http://www.w3.org/2000/svg" width="93" height="90"><g fill="#8A2542"><path d="M33.563 34.776c16.45 0 29.802 10.705 29.802 24.056C63.365 72.182 49.83 85.5 33.5 85.5c-1.669 0-3.831.24-5.5 0-2.623 1.924-9.456 3.424-20.5 4.5 3.667-6 5-9.5 4-10.5C5.42 74.93 0 67.5 1 59c1.767-15.015 16.232-24.224 32.563-24.224zm-1.29 5c-14.58 0-26.393 9.747-26.393 21.768 0 6.173 3.193 11.912 8.62 16.027 1.704 1.3.959 4.368-2.234 9.205 8.017-.866 13.197-2.165 15.538-3.898 1.49.216 3.086.325 4.576.325 14.58 0 26.5-9.747 26.5-21.768 0-12.02-11.92-21.659-26.606-21.659z"/><path d="M63.112 0C77.325 0 89.5 7.5 92 19.5 94.6 31.98 88 39 82.5 43c0 0 0 8.5 3 11-5.5 0-18.498-2.402-22-5-1.442.216-2.075.19-3.5 0-3.49-.465-7.293-7.6-13.5-10-4.263-1.648-10.25-2.132-12-2.5-3.756-.79-4.5-6.16-4.5-11C30 3 54.873 0 63.112 0zm-2.705 4C51.863 4 33 7.898 33 25.44c0 4.204 1.024 10.22 4.666 10.549 7.59.685 11.991 0 19.302 10.363.63.894 2.343.158 3.332.158 1.495 0 3.097-.105 4.593-.317 2.42 1.692 7.618 2.961 15.592 3.807-1.637-5.076-2.35-8.107-2.136-9.094C83.903 36.887 87 31.177 87 25.256 87 13.516 75.145 4 60.407 4z"/><path d="M60.296 35.41h-1.77l-9.299-18.2h3.57l5.719 11.154c5.91-9.182 18.858-13.072 18.858-13.072C67.992 20.85 62.3 27.554 60.296 35.41zM31.267 73.21v3.384h-3.392v-3.384h3.392zm.446-28.2c1.033 0 2.002.204 2.908.609a7.523 7.523 0 012.377 1.67 7.875 7.875 0 011.602 2.477 7.87 7.87 0 01.584 3.03v.42c0 1.018-.113 1.91-.34 2.676a7.987 7.987 0 01-.902 2.035c-.375.59-.8 1.113-1.273 1.57a20.06 20.06 0 01-1.465 1.283c-.502.398-.99.79-1.464 1.172a8.79 8.79 0 00-1.273 1.261 5.84 5.84 0 00-.902 1.526c-.227.56-.34 1.217-.34 1.969v.862h-2.738v-.862c0-.974.113-1.821.34-2.544a7.064 7.064 0 01.902-1.902c.375-.545.8-1.032 1.273-1.46.474-.427.962-.836 1.465-1.227.502-.39.99-.785 1.464-1.183a8.52 8.52 0 001.273-1.327c.375-.487.676-1.04.902-1.66.227-.618.34-1.348.34-2.189v-.42a5.1 5.1 0 00-1.433-3.583 5.048 5.048 0 00-1.549-1.084 4.558 4.558 0 00-1.9-.398h-.594c-.679 0-1.312.133-1.9.398a5.048 5.048 0 00-2.981 4.667v1.283l-2.738-.465v-.818a7.87 7.87 0 01.584-3.03c.389-.944.923-1.77 1.602-2.477a7.489 7.489 0 012.388-1.67 7.106 7.106 0 012.918-.608h.87z"/></g></svg>