<svg version="1.0" xmlns="http://www.w3.org/2000/svg" viewBox="0 0 64 64">
    <path fill="#8AD4E2" d="M1 38.2c3.3 13.4 15.4 23.3 29.8 23.3s26.5-9.9 29.8-23.3H1z"/>
    <path fill="#8AD4E2" d="M2.2 42h57.3c.7-1.8 1.3-3.8 1.6-5.8h-.6c.2.2.3.4.3.7 0 .6-.4 1-1 1H2.6c-.6 0-1-.4-1-1 0-.3.1-.5.3-.7H.6c.3 2 .9 3.9 1.6 5.8z"/>
    <path fill="#C5E9F1" d="M59.1 37.4c0 .3-.4.6-1 .6H3.5c-.5 0-1-.3-1-.6 0-.2.1-.3.3-.4H1.3c.2 1.2.7 2.3 1.2 3.4h55.9c.6-1.1 1-2.2 1.2-3.4h-.9c.3.1.4.2.4.4z"/>
    <g fill="#8AD4E2">
        <path opacity=".2" d="M46.7 22c0-.4-.4-.8-.8-.8h-1.3l1.2-1.2c.3-.3.3-.8 0-1.1s-.8-.3-1.1 0l-2.3 2.3h-1.2l1.2-1.2c.3-.3.3-.8 0-1.1-.3-.3-.8-.3-1.1 0L39 21.2h-5.5l3.9-3.9h3.3c.4 0 .8-.4.8-.8s-.4-.8-.8-.8H39l.8-.8H43c.4 0 .8-.4.8-.8s-.4-.8-.8-.8h-1.7l.9-.9c.3-.3.3-.8 0-1.1-.3-.3-.8-.3-1.1 0l-.9.9v-1.7c0-.4-.4-.8-.8-.8s-.8.4-.8.8v3.3l-.8.8v-1.7c0-.4-.4-.8-.8-.8s-.8.4-.8.8v3.3l-3.9 3.9v-5.5l2.3-2.3c.3-.3.3-.8 0-1.1-.3-.3-.8-.3-1.1 0l-1.2 1.2v-1.2l2.3-2.3c.3-.3.3-.8 0-1.1-.3-.3-.8-.3-1.1 0L32.3 9V7.6c0-.4-.4-.8-.8-.8s-.8.4-.8.8v1.3l-1.2-1.2c-.3-.3-.8-.3-1.1 0-.4.3-.4.8-.1 1.1l2.3 2.3v1.2l-1.2-1.2c-.3-.3-.8-.3-1.1 0-.3.3-.3.8 0 1.1l2.3 2.3V20l-3.9-3.9v-3.3c0-.4-.4-.8-.8-.8s-.8.4-.8.8v1.7l-.8-.8v-3.3c0-.4-.4-.8-.8-.8s-.8.4-.8.8v1.7l-.9-.9c-.3-.3-.8-.3-1.1 0-.3.3-.3.8 0 1.1l.9.9h-1.7c-.4 0-.8.4-.8.8s.4.8.8.8h3.3l.8.8h-1.7c-.4 0-.8.4-.8.8s.4.8.8.8h3.3l3.9 3.9H24l-2.3-2.3c-.3-.3-.8-.3-1.1 0s-.3.8 0 1.1l1.2 1.2h-1.2l-2.3-2.3c-.3-.3-.8-.3-1.1 0-.3.3-.3.8 0 1.1l1.2 1.2H17c-.4 0-.8.4-.8.8s.4.8.8.8h1.3L17.1 24c-.3.3-.3.8 0 1.1.2.2.4.2.6.2.2 0 .4-.1.6-.2l2.3-2.3h1.2L20.5 24c-.3.3-.3.8 0 1.1.2.2.4.2.6.2.2 0 .4-.1.6-.2l2.3-2.3h5.5l-3.9 3.9h-3.3c-.4 0-.8.4-.8.8s.4.8.8.8H24l-.8.8h-3.3c-.4 0-.8.4-.8.8s.4.8.8.8h1.7l-.9.9c-.3.3-.3.8 0 1.1.2.2.4.2.6.2.2 0 .4-.1.6-.2l.9-.9v1.7c0 .4.4.8.8.8s.8-.4.8-.8v-3.3l.8-.8v1.7c0 .4.4.8.8.8s.8-.4.8-.8v-3.3l3.9-3.9v5.5l-2.3 2.3c-.3.3-.3.8 0 1.1.3.3.8.3 1.1 0l1.2-1.2v1.2l-2.3 2.3c-.3.3-.3.8 0 1.1.2.2.4.2.6.2.2 0 .4-.1.6-.2l1.2-1.2v1.3c0 .4.4.8.8.8s.8-.4.8-.8V35l1.2 1.2c.3.3.8.3 1.1 0 .3-.3.3-.8 0-1.1l-2.3-2.3v-1.2l1.2 1.2c.2.2.4.2.6.2s.4-.1.6-.2c.3-.3.3-.8 0-1.1l-2.3-2.3v-5.5l3.9 3.9v3.3c0 .4.4.8.8.8s.8-.4.8-.8v-1.7l.8.8v3.3c0 .4.4.8.8.8s.8-.4.8-.8v-1.7l.9.9c.2.2.4.2.6.2.2 0 .4-.1.6-.2.3-.3.3-.8 0-1.1l-.9-.9H43c.4 0 .8-.4.8-.8s-.4-.8-.8-.8h-3.3l-.8-.8h1.7c.4 0 .8-.4.8-.8s-.4-.8-.8-.8h-3.3l-3.9-3.9h5.5l2.3 2.3c.2.2.4.2.6.2.2 0 .4-.1.6-.2.3-.3.3-.8 0-1.1l-1.2-1.2h1.2l2.3 2.3c.2.2.4.2.6.2.2 0 .4-.1.6-.2.3-.3.3-.8 0-1.1l-1.2-1.2H46c.3 0 .7-.4.7-.8z"/>
        <path d="M46 21.3c0-.4-.4-.8-.8-.8H44l1.2-1.2c.3-.3.3-.8 0-1.1-.3-.3-.8-.3-1.1 0l-2.3 2.3h-1.2l1.2-1.2c.3-.3.3-.8 0-1.1-.3-.3-.8-.3-1.1 0l-2.3 2.3h-5.5l3.9-3.9h3.3c.4 0 .8-.4.8-.8s-.5-.8-1-.8h-1.7l.8-.8h3.3c.4 0 .8-.4.8-.8s-.4-.8-.8-.8h-1.7l.9-.9c.3-.3.3-.8 0-1.1-.3-.3-.8-.3-1.1 0l-.9.9V9.8c0-.4-.4-.8-.8-.8s-.8.4-.8.8v3.3l-.8.8v-1.7c0-.4-.4-.8-.8-.8s-.8.4-.8.8v3.3l-3.9 3.9v-5.5l2.3-2.3c.3-.3.3-.8 0-1.1-.3-.3-.8-.3-1.1 0l-1.2 1.2v-1.2l2.3-2.3c.3-.3.3-.8 0-1.1-.3-.3-.8-.3-1.1 0l-1.2 1.2V6.9c0-.4-.4-.8-.8-.8s-.8.4-.8.8v1.3L28.8 7c-.3-.3-.8-.3-1.1 0s-.3.8 0 1.1l2.3 2.3v1.2l-1.2-1.2c-.3-.3-.8-.3-1.1 0s-.3.8 0 1.1l2.3 2.3v5.5l-3.9-3.9v-3.3c0-.4-.4-.8-.8-.8s-.8.4-.8.8v1.7l-.8-.8V9.8c0-.4-.4-.8-.8-.8s-.8.4-.8.8v1.7l-.9-.9c-.3-.3-.8-.3-1.1 0-.3.3-.3.8 0 1.1l.9.9h-1.7c-.4 0-.8.4-.8.8s.4.8.8.8h3.3l.8.8h-1.7c-.4 0-.8.4-.8.8s.4.8.8.8H25l3.9 3.9h-5.5L21 18.2c-.3-.3-.8-.3-1.1 0-.3.3-.3.8 0 1.1l1.2 1.2h-1.2l-2.3-2.3c-.3-.3-.8-.3-1.1 0-.3.3-.3.8 0 1.1l1.2 1.2h-1.3c-.4 0-.8.4-.8.8s.4.8.8.8h1.3l-1.2 1.2c-.3.3-.3.8 0 1.1.2.2.4.2.6.2.2 0 .4-.1.6-.2l2.3-2.3h1.2L20 23.3c-.3.3-.3.8 0 1.1.2.2.4.2.6.2.2 0 .4-.1.6-.2l2.3-2.3H29l-4 4h-3.3c-.4 0-.8.4-.8.8s.4.8.8.8h1.7l-.8.8h-3.3c-.4 0-.8.4-.8.8s.4.8.8.8H21l-1 .9c-.3.3-.3.8 0 1.1.2.2.4.2.6.2.2 0 .4-.1.6-.2l.9-.9v1.7c0 .4.4.8.8.8s.8-.4.8-.8v-3.3l.8-.8v1.7c0 .4.4.8.8.8s.8-.4.8-.8v-3.3l3.9-3.9v5.5l-2.3 2.3c-.3.3-.3.8 0 1.1.3.3.8.3 1.1 0L30 31v1.2l-2.3 2.3c-.3.3-.3.8 0 1.1.2.2.4.2.6.2.2 0 .4-.1.6-.2l1.2-1.2v1.3c0 .4.4.8.8.8s.8-.4.8-.8v-1.3l1.2 1.2c.3.3.8.3 1.1 0 .3-.3.3-.8 0-1.1l-2.3-2.3V31l1.2 1.2c.2.2.4.2.6.2s.4-.1.6-.2c.3-.3.3-.8 0-1.1l-2.3-2.3v-5.5l3.9 3.9v3.3c0 .4.4.8.8.8s.8-.4.8-.8v-1.7l.8.8v3.3c0 .4.4.8.8.8s.8-.4.8-.8v-1.7l.9.9c.2.2.4.2.6.2.2 0 .4-.1.6-.2.3-.3.3-.8 0-1.1l-.9-.9h1.7c.4 0 .8-.4.8-.8s-.4-.8-.8-.8h-3.3l-.8-.8h1.7c.4 0 .8-.4.8-.8s-.4-.8-.8-.8h-3.3L33 22.2h5.5l2.3 2.3c.2.2.4.2.6.2s.4-.1.6-.2c.3-.3.3-.8 0-1.1l-1.2-1.2H42l2.3 2.3c.2.2.4.2.6.2.2 0 .4-.1.6-.2.3-.3.3-.8 0-1.1L44 22.1h1.3c.4 0 .7-.3.7-.8z"/>
    </g>
    <path opacity=".2" fill="#9D2347" d="M54.3 10.9c4.6 5.4 7.3 12.3 7.3 19.9 0 17-13.8 30.8-30.8 30.8-8.2 0-15.6-3.2-21.1-8.4C15.4 59.8 23.8 64 33.2 64 50.2 64 64 50.3 64 33.3c0-8.9-3.8-16.8-9.7-22.4z"/>
    <path fill="#9D2347" d="M30.8 3c15.3 0 27.8 12.5 27.8 27.8S46.1 58.5 30.8 58.5 3 46 3 30.7 15.5 3 30.8 3m0-3C13.8 0 .1 13.8.1 30.8s13.8 30.8 30.8 30.8 30.8-13.8 30.8-30.8C61.6 13.8 47.8 0 30.8 0z"/>
    <path opacity=".05" fill="#9D2347" d="M43.9 2.9c1.9 4 2.9 8.4 2.9 13.1C46.8 33 33 46.8 16 46.8c-4.7 0-9.1-1.1-13.1-2.9 4.9 10.4 15.5 17.7 27.8 17.7 17 0 30.8-13.8 30.8-30.8.1-12.3-7.1-23-17.6-27.9z"/>
</svg>
