<svg version="1.0" xmlns="http://www.w3.org/2000/svg" viewBox="0 0 64 64">
    <path fill="#C5E9F1" d="M35.9 42.2V11.8c0-2.8-2.2-5-5-5s-5 2.2-5 5v30.4c-3.1 2.8-3.4 7.5-.6 10.6 2.8 3.1 7.5 3.4 10.6.6 3.1-2.8 3.4-7.5.6-10.6l-.6-.6z"/>
    <path fill="#8AD4E2" d="M32.6 44V11.8c0-.9-.7-1.7-1.7-1.7-.9 0-1.7.7-1.7 1.7V44c-2.1.9-3.1 3.4-2.2 5.5.9 2.1 3.4 3.1 5.5 2.2 2.1-.9 3.1-3.4 2.2-5.5-.4-1-1.2-1.8-2.1-2.2z"/>
    <path fill="#F3CA79" d="M30.9 52c2.3 0 4.2-1.9 4.2-4.2 0-1.7-1-3.2-2.5-3.8V26.8h-3.3V44c-2.1.9-3.1 3.4-2.1 5.5.5 1.5 2 2.5 3.7 2.5z"/>
    <path fill="#C5E9F1" d="M38.3 36.9h2.5v1.7h-2.5v-1.7z"/>
    <path fill="#8AD4E2" d="M38.3 31.9h5v1.7h-5v-1.7z"/>
    <path fill="#C5E9F1" d="M38.3 26.9h2.5v1.7h-2.5v-1.7z"/>
    <path fill="#8AD4E2" d="M38.3 21.9h5v1.7h-5v-1.7z"/>
    <path fill="#C5E9F1" d="M38.3 16.9h2.5v1.7h-2.5v-1.7z"/>
    <path fill="#8AD4E2" d="M38.3 11.8h5v1.7h-5v-1.7z"/>
    <path fill="#EBA720" d="M32.9 44.1c.2.6.3 1.2.3 1.8.1 2.5-1.6 4.8-3.8 5.7.5.2 1 .3 1.5.3 2.3 0 4.2-1.9 4.2-4.2 0-1.5-.9-2.9-2.2-3.6z"/>
    <path opacity=".2" fill="#9D2347" d="M54.3 10.9c4.6 5.4 7.3 12.3 7.3 19.9 0 17-13.8 30.8-30.8 30.8-8.2 0-15.6-3.2-21.1-8.4C15.4 59.8 23.8 64 33.2 64 50.2 64 64 50.3 64 33.3c0-8.9-3.8-16.8-9.7-22.4z"/>
    <path fill="#9D2347" d="M30.8 3c15.3 0 27.8 12.5 27.8 27.8S46.1 58.5 30.8 58.5 3 46 3 30.7 15.5 3 30.8 3m0-3C13.8 0 .1 13.8.1 30.8s13.8 30.8 30.8 30.8 30.8-13.8 30.8-30.8C61.6 13.8 47.8 0 30.8 0z"/>
    <path opacity=".05" fill="#9D2347" d="M43.9 2.9c1.9 4 2.9 8.4 2.9 13.1C46.8 33 33 46.8 16 46.8c-4.7 0-9.1-1.1-13.1-2.9 4.9 10.4 15.5 17.7 27.8 17.7 17 0 30.8-13.8 30.8-30.8.1-12.3-7.1-23-17.6-27.9z"/>
</svg>
