<svg version="1.0" xmlns="http://www.w3.org/2000/svg" viewBox="0 0 64 64">
    <path fill="#EBA720" d="M60.4 34.6c.2.2.3.4.3.7 0 .6-.4 1-1 1H47.2l.8 2.4 3.9 1.4c.1 0 .1.1.2.1h.2c.2.1.3.3.4.5l1.5 3.5 1.7.6c.6.2.8.8.7 1.4-.2.6-.8.8-1.4.7l-2.2-.8s-.1 0-.1-.1c-.1 0-.2-.1-.2-.2-.1-.1-.2-.2-.3-.4L50.9 42l-3.2-1.1-2.7 3.7 1.8 3.1c.3.5.1 1.2-.4 1.5-.5.3-1.2.1-1.5-.4l-2.2-3.6c-.1-.1-.1-.3-.1-.4-.1-.3 0-.6.2-.8l3.2-4.3s0-.1-.1-.1l-1-3.1h-15l-.2 2.6 1.3 2.2 3.7-3.1c.4-.4 1.1-.3 1.5.1.4.4.3 1.1-.1 1.5l-3.2 2.7 2.2.8c.1 0 .2.1.3.2 0 0 .1 0 .1.1.1.1.1.1.1.2s.1.1.1.2v.1c0 .1.1.2 0 .3l-.2 2.4 3.2 1.1c.6.2.8.8.7 1.4s-.8.8-1.4.7l-3.5-1.2-1.3 1.9c-.1.2-.3.4-.6.4l-5.1 1.6-.2 2.5c0 .6-.5 1-1.1 1-.6 0-1-.5-1-1.1l.2-3.2v-.2c0-.1 0-.1.1-.2.1-.3.3-.5.6-.5l5.4-1.7 1.7-2.4h.1l.1-1.6-3.2-1.1c-.1 0-.2-.1-.2-.1s-.1 0-.1-.1c-.1 0-.1-.1-.1-.2l-.1-.1-1.4-2.3-3.3 2.3-.2 2.8c0 .6-.5 1-1.1 1-.6 0-1-.5-1-1.1l.2-3.2c0-.3.2-.6.4-.7l4.2-3.5c0-.1 0-.1.1-.2l.2-2.4h-7.5l-5.4 6.8 1.1 3 3.5 1.2c.6.2.8.8.7 1.4-.2.6-.8.8-1.4.7l-4-1.4h-.1s-.1 0-.1-.1c-.1-.1-.2-.1-.2-.2 0 0 0-.1-.1-.1-.1-.1-.1-.2-.1-.2l-1.3-3.6-5.3-.5c-.6-.1-1-.6-1-1.2s.6-1 1.2-1l5.6.5 4.2-5.4h-15c-.6 0-1-.4-1-1 0-.3.1-.5.3-.7H.3c1.9 15.2 14.8 26.9 30.5 26.9s28.6-11.8 30.5-26.9h-.9z"/>
    <path fill="#EBA720" d="M36.5 38.8c0 .3-.1.6-.4.8l-3.2 2.7 1.6.6 2.7-2.2c.4-.4.5-1 .1-1.5-.2-.3-.5-.4-.8-.4zm.3 6.4v-.4c0-.1-.1-.1-.1-.2s-.1-.1-.1-.2l-.1-.1c-.1-.1-.2-.1-.3-.2l-.5-.1v.1l-.2 2.4 1.1.4.2-1.7zm-6-1c0 .1.1.1.1.1 0 .1.1.1.1.2 0 0 .1 0 .1.1.1 0 .1.1.2.1l2.1.7v-.7l-3-1.1.4.6zM27.4 57c.6 0 1.1-.4 1.1-1l.2-2.5 5.1-1.6c.2-.1.4-.2.6-.4l1.3-1.9 3.5 1.2c.6.2 1.2-.1 1.4-.7s-.1-1.2-.7-1.4l-.3-.1c0 .1 0 .3-.1.4-.2.6-.8.8-1.4.7l-3.5-1.2-1.3 1.9c-.1.2-.3.4-.6.4l-5.1 1.6-.2 2.5c0 .6-.5 1-1.1 1 .1.6.5 1 1.1 1.1zM25 43.7l-.2 2.8c0 .6-.5 1-1.1 1 0 .5.4 1 1 1.1.6 0 1.1-.4 1.1-1l.2-2.8 3.1-2.6-.8-1.3-3.3 2.8zm-9.8 4.7c.1.1.1.2.2.3 0 0 0 .1.1.1.1.1.2.1.2.2 0 0 .1 0 .1.1h.1l4 1.4c.6.2 1.2-.1 1.4-.7.2-.6-.1-1.2-.7-1.4l-.3-.1c0 .1 0 .3-.1.4-.2.6-.8.8-1.4.7l-3.7-1.3.1.3zm-6.6-4.1l4.6.4-.4-1-5.2-.5c0 .6.4 1 1 1.1zm-6-8c0 .6.4 1 1 1h13.1l.8-1H2.6zM16 46.1l.7.3-.8-2.3 5.4-6.8h6.4v-1h-7.5l-5.4 6.8zm28.9-1.5l1.8 3.1c.3.5.1 1.2-.4 1.5-.2.1-.5.2-.7.1l.3.6c.3.5 1 .7 1.5.4.5-.3.7-1 .4-1.5L46 45.7l2.7-3.7 2.5.9-.3-.9-3.2-1.1-2.8 3.7z"/>
    <path fill="#EBA720" d="M31.3 40.8l-.5-.9.2-2.6h14.4l-.3-1H29.9l-.2 2.6 1.3 2.2.3-.3zm-30-5.2h.3c0-.1-.1-.2-.1-.4 0-.3.1-.5.3-.7H.3c.9 7.3 4.3 13.7 9.3 18.5-4.4-4.6-7.4-10.7-8.3-17.4zm55.6 10.3l-.3-.1c0 .1 0 .3-.1.4-.2.6-.8.8-1.4.7l-1.9-.7.1.3c.1.2.2.3.3.4.1.1.2.1.2.2 0 0 .1 0 .1.1l2.1.7h.2c.4-.5.7-1.1 1-1.6.1-.2-.1-.3-.3-.4zM48.7 39l-.5-1.7h12.7c.2-.9.3-1.8.5-2.7h-.9c.2.2.3.4.3.7 0 .6-.4 1-1 1H47.2l.8 2.4.7.3zm5 2.8c-.1-.2-.3-.4-.4-.5h-.2c-.1 0-.1-.1-.2-.1h-.1l1.4 3.2.7.2-1.2-2.8z"/>
    <path fill="#F3CA79" d="M31.4 5.6c-.7 0-1.2.5-1.2 1.2v2c0 .7.5 1.2 1.2 1.2s1.2-.5 1.2-1.2v-2c0-.6-.5-1.2-1.2-1.2z"/>
    <path fill="#EBA720" d="M31.4 29.7c-.7 0-1.2.5-1.2 1.2v2c0 .7.5 1.2 1.2 1.2s1.2-.5 1.2-1.2v-2c0-.7-.5-1.2-1.2-1.2zm14.2-9.9c0-.7-.5-1.2-1.2-1.2h-2c-.7 0-1.2.5-1.2 1.2s.5 1.2 1.2 1.2h2c.7.1 1.2-.5 1.2-1.2z"/>
    <path fill="#F3CA79" d="M21.6 19.8c0-.7-.5-1.2-1.2-1.2h-2c-.7 0-1.2.5-1.2 1.2s.5 1.2 1.2 1.2h2c.6.1 1.2-.5 1.2-1.2z"/>
    <path fill="#EBA720" d="M41.4 9.8c-.5-.5-1.2-.5-1.7 0l-1.4 1.4c-.5.5-.5 1.2 0 1.7s1.2.5 1.7 0l1.4-1.4c.5-.5.5-1.2 0-1.7z"/>
    <path fill="#F3CA79" d="M24.4 26.8c-.5-.5-1.2-.5-1.7 0l-1.4 1.4c-.5.5-.5 1.2 0 1.7s1.2.5 1.7 0l1.4-1.4c.5-.5.5-1.2 0-1.7z"/>
    <path fill="#EBA720" d="M41.4 29.9c.5-.5.5-1.2 0-1.7L40 26.8c-.5-.5-1.2-.5-1.7 0s-.5 1.2 0 1.7l1.4 1.4c.5.5 1.3.5 1.7 0z"/>
    <path fill="#F3CA79" d="M24.4 12.9c.5-.5.5-1.2 0-1.7L23 9.8c-.5-.5-1.2-.5-1.7 0s-.5 1.2 0 1.7l1.4 1.4c.5.5 1.3.5 1.7 0z"/>
    <circle fill="#F3CA79" cx="31.4" cy="19.8" r="8.2"/>
    <path fill="#EBA720" d="M35.3 12.6c.4 1.1.6 2.3.6 3.6.2 4.9-3.1 9.3-7.5 11.2.9.4 1.9.6 2.9.6 4.5 0 8.2-3.7 8.2-8.2.1-3.1-1.7-5.8-4.2-7.2z"/>
    <path fill="#F3CA79" d="M27.3 9.1c-.1-.1-.2-.2-.3-.2h-.1c-.1 0-.2.1-.2.2v.3l.7 1.6c0 .1.1.2.2.2h.3c.1 0 .2-.1.2-.2v-.3l-.8-1.6z"/>
    <path fill="#EBA720" d="M35.4 28.8c0-.1-.1-.2-.2-.2H35c-.1 0-.2.1-.2.2v.3l.7 1.6c.1.2.3.3.4.2.1 0 .2-.1.2-.2v-.3l-.7-1.6zm6.8-13.6H42l-1.6.7c-.1 0-.2.1-.2.2v.3c0 .1.1.2.2.2h.3l1.6-.7c.2-.1.3-.3.2-.4-.2-.3-.3-.3-.3-.3z"/>
    <path fill="#F3CA79" d="M22.5 23.3h-.2l-1.6.7c-.2.1-.3.3-.2.4 0 .1.1.2.2.2h.3l1.6-.7c.1 0 .2-.1.2-.2v-.3c-.2-.1-.3-.1-.3-.1zM35.8 8.9h-.1c-.1 0-.1.1-.2.2l-.7 1.6c-.1.2 0 .4.2.4h.2c.1 0 .1-.1.2-.2l.7-1.6v-.2c0-.1-.1-.1-.2-.2h-.1z"/>
    <path fill="#EBA720" d="M27.5 28.6c-.1 0-.1.1-.2.2l-.7 1.6c-.1.2 0 .4.2.4h.2c.1 0 .1-.1.2-.2l.7-1.6c.1-.2 0-.3-.2-.4h-.1c0-.1-.1-.1-.1 0zm13-5.3h-.1c-.1 0-.3.1-.3.2v.2c0 .1.1.1.2.2l1.6.7h.2c.1 0 .1-.1.2-.2.1-.2 0-.4-.2-.4l-1.6-.7z"/>
    <path fill="#F3CA79" d="M20.4 15.3v.2c0 .1.1.1.2.2l1.6.7c.2.1.3 0 .4-.2V16c0-.1-.1-.1-.2-.2l-1.6-.7h-.1c-.1 0-.2.1-.3.2z"/>
    <path opacity=".2" fill="#9D2347" d="M54.3 10.9c4.6 5.4 7.3 12.3 7.3 19.9 0 17-13.8 30.8-30.8 30.8-8.2 0-15.6-3.2-21.1-8.4C15.4 59.8 23.8 64 33.2 64 50.2 64 64 50.3 64 33.3c0-8.9-3.8-16.8-9.7-22.4z"/>
    <path fill="#9D2347" d="M30.8 3c15.3 0 27.8 12.5 27.8 27.8S46.1 58.5 30.8 58.5 3 46 3 30.7 15.5 3 30.8 3m0-3C13.8 0 .1 13.8.1 30.8s13.8 30.8 30.8 30.8 30.8-13.8 30.8-30.8C61.6 13.8 47.8 0 30.8 0z"/>
    <path opacity=".05" fill="#9D2347" d="M43.9 2.9c1.9 4 2.9 8.4 2.9 13.1C46.8 33 33 46.8 16 46.8c-4.7 0-9.1-1.1-13.1-2.9 4.9 10.4 15.5 17.7 27.8 17.7 17 0 30.8-13.8 30.8-30.8.1-12.3-7.1-23-17.6-27.9z"/>
</svg>
