<svg version="1.0" xmlns="http://www.w3.org/2000/svg" viewBox="0 0 64 64">
    <g fill="#0092D5">
        <path d="M57 37c-.3-.2-.6-.3-.8-.5l-.1-.1c-.3-.2-.5-.4-.7-.6-1.2 1.2-3 2-4.8 2-1.8 0-3.5-.7-4.8-2-1.2 1.2-3 2-4.8 2-1 0-2.1-.3-3-.7-.1 0-.2-.1-.3-.1-.1 0-.1-.1-.2-.1-.2-.1-.4-.2-.6-.4-.3-.2-.5-.4-.7-.6-.6.6-1.4 1.1-2.2 1.5-.6.3-1.3.4-1.9.5h-.7c-.9 0-1.8-.2-2.6-.5l-.6-.3c-.6-.3-1.1-.7-1.6-1.2-.3.3-.6.5-.9.7-.1.1-.2.1-.3.2-.3.2-.6.4-1 .5h-.1c-.4.1-.7.3-1.1.3-.1 0-.2 0-.3.1-.4.1-.8.1-1.2.1-.4 0-.8 0-1.2-.1-.1 0-.2 0-.3-.1-.4-.1-.7-.2-1.1-.3H19c-.3-.1-.6-.3-1-.5-.1-.1-.2-.1-.3-.2-.3-.2-.6-.5-.9-.7-.6.6-1.4 1.1-2.2 1.5-.6.3-1.3.4-1.9.5H12c-.9 0-1.8-.2-2.6-.5l-.6-.3c-.6-.3-1.1-.7-1.6-1.2-.1.2-.3.3-.5.4l-.2.2c-.1.1-.2.1-.3.2-.1.1-.2.1-.3.2-.1 0-.1.1-.2.1.4-.1.2 0 .1 0 0 0-.1 0-.1.1-.2.1-.3.1-.5.2h-.1c-.2.1-.4.1-.5.2-.2 0-.4.1-.6.1-.2 0-.4.1-.6.1 3.1 12.5 14.4 21.7 27.8 21.7S55.9 50.1 59 37.6c-.8-.1-1.4-.3-2-.6zM46.8 52.1c-1.2 2.1-3.4 3.3-5.8 3.3-1.8 0-3.5-.7-4.8-2-1.2 1.2-3 2-4.8 2s-3.5-.7-4.8-2c-1.2 1.2-3 2-4.8 2-2.4 0-4.6-1.3-5.8-3.3-.3-.6-.1-1.3.4-1.7.6-.3 1.3-.1 1.7.4.9 1.4 2.4 2.2 3.9 2.2s2.9-.8 3.7-2.1c.2-.4.6-.6 1-.6s.8.2 1 .6c.8 1.3 2.2 2.1 3.7 2.1s2.9-.8 3.7-2.1c.2-.4.6-.6 1-.6s.8.2 1 .6C38 52.2 39.5 53 41 53s2.9-.8 3.7-2.1c.3-.6 1.1-.8 1.7-.4.5.3.7 1 .4 1.6zm3.7-5.5c-1.8 0-3.5-.7-4.8-2-1.2 1.2-3 2-4.8 2-1.8 0-3.5-.7-4.8-2-.3.3-.6.5-.9.7-.1.1-.2.1-.3.2-.3.2-.6.4-1 .5h-.1c-.4.1-.7.3-1.1.3-.1 0-.2 0-.3.1-.4.1-.8.1-1.2.1-.4 0-.8 0-1.2-.1-.1 0-.2 0-.3-.1-.4-.1-.7-.2-1.1-.3h-.1c-.3-.1-.6-.3-1-.5-.1-.1-.2-.1-.3-.2-.3-.2-.6-.5-.9-.7-1.2 1.2-3 2-4.8 2-1.8 0-3.5-.7-4.8-2-1.2 1.2-3 2-4.8 2-2.4 0-4.6-1.3-5.8-3.3-.3-.6-.1-1.3.4-1.7.6-.3 1.3-.1 1.7.4.8 1.3 2.2 2.1 3.7 2.1s2.9-.8 3.7-2.1c.2-.4.6-.6 1-.6s.8.2 1 .6c.8 1.3 2.2 2.1 3.7 2.1s2.9-.8 3.7-2.1c0 0 0-.1.1-.1l.1-.1c.2-.2.4-.4.7-.4h.5c.1 0 .2.1.4.2 0 0 .1 0 .1.1l.3.3c.8 1.3 2.2 2.1 3.7 2.1s2.9-.8 3.7-2.1l.3-.3s.1 0 .1-.1c.1-.1.2-.1.4-.2h.5c.3 0 .5.2.7.4l.1.1s0 .1.1.1c.8 1.3 2.2 2.1 3.7 2.1s2.9-.8 3.7-2.1c.2-.4.6-.6 1-.6s.8.2 1 .6c.8 1.3 2.2 2.1 3.7 2.1s2.9-.8 3.7-2.1c.3-.6 1.1-.8 1.7-.4.6.3.8 1.1.4 1.7-.6 2-2.8 3.3-5.2 3.3z"/>
        <path d="M28.6 51.9c.2.2.5.4.8.6-.2-.3-.5-.5-.8-.6zm9.5 0c.2.2.5.4.8.6-.2-.3-.5-.5-.8-.6zm-19 0c.2.2.5.4.8.6-.3-.3-.5-.5-.8-.6zm10.2-8.3l-.3-.3-.1-.1c-.1-.1-.2-.1-.4-.2.3.2.6.4.8.6zm18.3-.6c.2.2.5.4.8.6-.2-.3-.5-.5-.8-.6zm-28.5 0c.2.2.5.4.8.6-.3-.3-.5-.5-.8-.6zm-9.5 0c.2.2.5.4.8.6-.3-.3-.5-.5-.8-.6zm29.2.5c-.1 0-.1-.1 0 0-.2-.3-.4-.4-.7-.4.2.2.5.3.7.4 0 .1 0 .1 0 0z"/>
    </g>
    <path fill="#0092D5" d="M30.8 18.6L24.7 6.9l-.1-.1s-.1 0-.1.1l-6.1 11.7c-.6 1.7-.6 3.6.2 5.2.8 1.7 2.1 2.9 3.8 3.6.7.3 1.4.4 2.2.4.7 0 1.5-.2 2.2-.4 1.7-.6 3.1-1.9 3.8-3.6.7-1.6.8-3.5.2-5.2zm9.3 3.1l-3-5.8-.1-.1c-.1 0-.1 0-.1.1l-3 5.8c-.3.9-.3 1.8.1 2.6s1.1 1.5 1.9 1.8c.4.1.7.2 1.1.2.4 0 .7-.1 1.1-.2 1.8-.6 2.7-2.6 2-4.4z"/>
    <path fill="#0092D5" d="M40.1 21.7l-3-5.8-.1-.1-1.2 6.8c0 1 .3 2 1 2.7.3.3.6.6 1 .8.1 0 .2-.1.3-.1 1.8-.5 2.7-2.5 2-4.3zm-5.9 9.1l-2-3.8-.1-.1c-.1 0-.1 0-.1.1l-2 3.8c-.5 1.2.2 2.6 1.4 3 .2.1.5.1.7.1.3 0 .5-.1.7-.1 1.2-.4 1.9-1.7 1.4-3z"/>
    <path opacity=".2" fill="#9D2347" d="M54.3 10.9c4.6 5.4 7.3 12.3 7.3 19.9 0 17-13.8 30.8-30.8 30.8-8.2 0-15.6-3.2-21.1-8.4C15.4 59.8 23.8 64 33.2 64 50.2 64 64 50.3 64 33.3c0-8.9-3.8-16.8-9.7-22.4z"/>
    <path fill="#9D2347" d="M30.8 3c15.3 0 27.8 12.5 27.8 27.8S46.1 58.5 30.8 58.5 3 46 3 30.7 15.5 3 30.8 3m0-3C13.8 0 .1 13.8.1 30.8s13.8 30.8 30.8 30.8 30.8-13.8 30.8-30.8C61.6 13.8 47.8 0 30.8 0z"/>
    <path opacity=".05" fill="#9D2347" d="M43.9 2.9c1.9 4 2.9 8.4 2.9 13.1C46.8 33 33 46.8 16 46.8c-4.7 0-9.1-1.1-13.1-2.9 4.9 10.4 15.5 17.7 27.8 17.7 17 0 30.8-13.8 30.8-30.8.1-12.3-7.1-23-17.6-27.9z"/>
</svg>
