<svg xmlns="http://www.w3.org/2000/svg" width="1096" height="160"><g fill="none" fill-rule="evenodd"><path fill="#81B740" d="M718 0h348l30 80-30 80H718l30-80z"/><path fill="#FFF" fill-rule="nonzero" d="M911.43 56v-3.363h2.332v-2.203h-2.332V39.09h-3.797c-3.797 5.508-5.73 8.543-7.184 11.262v2.285h8.461V56h2.52zm-2.496-5.531h-6.047v-.07c1.347-2.403 3.07-5.075 6-9.27h.047v9.34zM833.998 88.28c4.242 0 6.844-2.578 6.844-6.222v-10.97h-2.613v10.747c0 2.414-1.536 4.113-4.231 4.113s-4.219-1.699-4.219-4.113V71.09h-2.625v10.969c0 3.644 2.602 6.222 6.844 6.222zM846.186 88v-7.617c0-1.582 1.066-2.754 2.566-2.754 1.43 0 2.332.902 2.332 2.32V88h2.484v-7.7c0-1.558 1.043-2.671 2.543-2.671 1.5 0 2.356.914 2.356 2.508V88h2.543v-8.473c0-2.449-1.594-4.066-4.031-4.066-1.758 0-3.211.914-3.844 2.414h-.059c-.492-1.535-1.734-2.414-3.445-2.414-1.664 0-2.953.914-3.504 2.285h-.059v-2.074h-2.414V88h2.532zm21.89.234c2.906 0 5.004-1.546 5.004-3.796 0-1.782-.96-2.766-3.48-3.352l-2.004-.457c-1.336-.305-1.899-.832-1.899-1.606 0-.984.914-1.652 2.285-1.652 1.418 0 2.297.75 2.438 1.945h2.379c-.082-2.273-1.945-3.867-4.817-3.867-2.836 0-4.757 1.512-4.757 3.715 0 1.793 1.16 2.918 3.504 3.457l2.003.469c1.348.305 1.805.773 1.805 1.57 0 1.008-.937 1.64-2.46 1.64-1.548 0-2.427-.632-2.661-1.921h-2.508c.235 2.344 2.086 3.855 5.168 3.855zm12.223 0c2.824 0 4.957-1.605 5.308-3.855h-2.402c-.34 1.078-1.406 1.805-2.848 1.805-2.027 0-3.316-1.418-3.316-3.563v-.152h8.707v-.867c0-3.739-2.133-6.153-5.555-6.153-3.48 0-5.707 2.578-5.707 6.446 0 3.89 2.192 6.34 5.813 6.34zm2.918-7.535h-6.164c.129-1.863 1.37-3.21 3.14-3.21s2.965 1.323 3.024 3.21zm8.695 7.383c.563 0 1.125-.047 1.406-.117V85.96c-.164.035-.574.059-.832.059-1.03 0-1.5-.48-1.5-1.547v-6.797h2.344v-2.004h-2.344v-2.918h-2.543v2.918h-1.793v2.004h1.793v7.078c0 2.379.973 3.328 3.47 3.328zM904.697 88v-2.016h-6.48v-.046l6.41-8.532v-1.734h-9.434v2.016h6.528v.046l-6.575 8.637V88h9.551zm6.528.223c1.886 0 3.14-.832 3.82-2.309h.059V88h2.425V75.672h-2.531v7.183c0 1.922-1.102 3.188-2.93 3.188-1.746 0-2.636-1.008-2.636-2.883v-7.488H906.9v7.98c0 2.825 1.641 4.57 4.325 4.57zM922.557 88v-7.184c0-1.91 1.148-3.175 2.93-3.175 1.757 0 2.624 1.02 2.624 2.87V88h2.543v-7.98c0-2.825-1.558-4.56-4.277-4.56-1.898 0-3.211.868-3.879 2.274h-.059v-2.062h-2.414V88h2.532zm15.808 4.64c3.516 0 5.79-1.921 5.79-4.863V75.672h-2.462v2.11h-.047c-.75-1.43-2.18-2.31-3.925-2.31-3.164 0-5.18 2.438-5.18 6.317 0 3.844 2.027 6.258 5.121 6.258 1.758 0 3.211-.879 3.902-2.215h.047v2.027c0 1.688-1.172 2.813-3.152 2.813-1.441 0-2.566-.68-2.93-1.711h-2.543c.317 2.133 2.473 3.68 5.38 3.68zm-.023-6.69c-1.946 0-3.211-1.571-3.211-4.15 0-2.566 1.265-4.195 3.21-4.195 1.981 0 3.282 1.665 3.282 4.196 0 2.543-1.3 4.148-3.281 4.148zM957.619 88l4.418-12.328h-2.648l-3.094 9.855h-.047l-3.094-9.855h-2.695L954.9 88h2.72zm11.168.234c3.527 0 5.848-2.425 5.848-6.398 0-3.961-2.332-6.387-5.848-6.387s-5.848 2.426-5.848 6.387c0 3.973 2.32 6.398 5.848 6.398zm0-2.086c-1.98 0-3.27-1.57-3.27-4.312 0-2.73 1.29-4.3 3.27-4.3s3.27 1.57 3.27 4.3c0 2.742-1.278 4.312-3.27 4.312zM979.123 88v-7.184c0-1.91 1.148-3.175 2.93-3.175 1.758 0 2.625 1.02 2.625 2.87V88h2.543v-7.98c0-2.825-1.559-4.56-4.278-4.56-1.898 0-3.21.868-3.879 2.274h-.058v-2.062h-2.414V88h2.531zm-199.266 32l1.547-4.57h6.446l1.546 4.57h2.778l-6.106-16.91h-2.836L777.127 120h2.73zm7.325-6.68h-5.11l2.52-7.418h.07l2.52 7.418zm9.082 6.68v-7.184c0-1.91 1.148-3.175 2.93-3.175 1.757 0 2.624 1.02 2.624 2.87V120h2.543v-7.98c0-2.825-1.558-4.56-4.277-4.56-1.898 0-3.211.868-3.879 2.274h-.059v-2.062h-2.414V120h2.532zm13.066 4.078v-6.105h.059c.703 1.37 2.109 2.238 3.879 2.238 3.093 0 5.144-2.473 5.144-6.375s-2.062-6.363-5.191-6.363c-1.782 0-3.2.902-3.926 2.32h-.047v-2.121h-2.45v16.406h2.532zm3.223-6.012c-1.946 0-3.235-1.664-3.235-4.23 0-2.543 1.301-4.23 3.235-4.23 2.004 0 3.258 1.652 3.258 4.23 0 2.59-1.254 4.23-3.258 4.23zm11.414 2.145c1.617 0 3.176-.867 3.89-2.238h.059V120h2.426v-8.496c0-2.473-1.91-4.055-4.899-4.055-3.047 0-4.945 1.64-5.086 3.867h2.391c.223-1.101 1.137-1.804 2.602-1.804 1.546 0 2.472.82 2.472 2.191v.95l-3.375.199c-2.93.164-4.582 1.488-4.582 3.644 0 2.215 1.688 3.715 4.102 3.715zm.703-2.004c-1.36 0-2.25-.703-2.25-1.781 0-1.055.855-1.723 2.367-1.828l3.035-.188v.973c0 1.605-1.383 2.824-3.152 2.824zm12.75 2.027c2.906 0 5.004-1.546 5.004-3.796 0-1.782-.961-2.766-3.48-3.352l-2.005-.457c-1.335-.305-1.898-.832-1.898-1.606 0-.984.914-1.652 2.285-1.652 1.418 0 2.297.75 2.438 1.945h2.379c-.082-2.273-1.946-3.867-4.817-3.867-2.836 0-4.758 1.512-4.758 3.715 0 1.793 1.16 2.918 3.504 3.457l2.004.469c1.348.305 1.805.773 1.805 1.57 0 1.008-.938 1.64-2.461 1.64-1.547 0-2.426-.632-2.66-1.921h-2.508c.234 2.344 2.086 3.855 5.168 3.855zm11.59 0c2.906 0 5.004-1.546 5.004-3.796 0-1.782-.961-2.766-3.48-3.352l-2.005-.457c-1.336-.305-1.898-.832-1.898-1.606 0-.984.914-1.652 2.285-1.652 1.418 0 2.297.75 2.438 1.945h2.378c-.082-2.273-1.945-3.867-4.816-3.867-2.836 0-4.758 1.512-4.758 3.715 0 1.793 1.16 2.918 3.504 3.457l2.004.469c1.348.305 1.805.773 1.805 1.57 0 1.008-.938 1.64-2.461 1.64-1.547 0-2.426-.632-2.66-1.921h-2.508c.234 2.344 2.086 3.855 5.168 3.855zm11.226-.011c1.887 0 3.141-.832 3.82-2.309h.06V120h2.425v-12.328h-2.531v7.183c0 1.922-1.102 3.188-2.93 3.188-1.746 0-2.637-1.008-2.637-2.883v-7.488h-2.53v7.98c0 2.825 1.64 4.57 4.323 4.57zm11.332-.223v-7.184c0-1.91 1.149-3.175 2.93-3.175 1.758 0 2.625 1.02 2.625 2.87V120h2.543v-7.98c0-2.825-1.559-4.56-4.277-4.56-1.899 0-3.211.868-3.88 2.274h-.058v-2.062h-2.414V120h2.531zm15.809 4.64c3.516 0 5.789-1.921 5.789-4.863v-12.105h-2.46v2.11h-.048c-.75-1.43-2.18-2.31-3.926-2.31-3.164 0-5.18 2.438-5.18 6.317 0 3.844 2.028 6.258 5.122 6.258 1.758 0 3.21-.879 3.902-2.215h.047v2.027c0 1.688-1.172 2.813-3.152 2.813-1.442 0-2.567-.68-2.93-1.711h-2.543c.316 2.133 2.473 3.68 5.379 3.68zm-.023-6.69c-1.946 0-3.211-1.571-3.211-4.15 0-2.566 1.265-4.195 3.21-4.195 1.981 0 3.282 1.665 3.282 4.196 0 2.543-1.301 4.148-3.281 4.148zm12.937 2.284c2.906 0 5.004-1.546 5.004-3.796 0-1.782-.961-2.766-3.48-3.352l-2.004-.457c-1.336-.305-1.899-.832-1.899-1.606 0-.984.914-1.652 2.285-1.652 1.418 0 2.297.75 2.438 1.945h2.379c-.082-2.273-1.946-3.867-4.817-3.867-2.836 0-4.758 1.512-4.758 3.715 0 1.793 1.16 2.918 3.504 3.457l2.004.469c1.348.305 1.805.773 1.805 1.57 0 1.008-.938 1.64-2.461 1.64-1.547 0-2.426-.632-2.66-1.921h-2.508c.234 2.344 2.086 3.855 5.168 3.855zm9.492-.234v-7.617c0-1.582 1.067-2.754 2.567-2.754 1.43 0 2.332.902 2.332 2.32V120h2.484v-7.7c0-1.558 1.043-2.671 2.543-2.671 1.5 0 2.355.914 2.355 2.508V120h2.543v-8.473c0-2.449-1.593-4.066-4.03-4.066-1.759 0-3.212.914-3.845 2.414h-.058c-.492-1.535-1.735-2.414-3.445-2.414-1.665 0-2.954.914-3.504 2.285h-.059v-2.074h-2.414V120h2.531zm20.871.21c1.617 0 3.176-.866 3.89-2.237h.06V120h2.425v-8.496c0-2.473-1.91-4.055-4.898-4.055-3.047 0-4.945 1.64-5.086 3.867h2.39c.223-1.101 1.137-1.804 2.602-1.804 1.547 0 2.473.82 2.473 2.191v.95l-3.375.199c-2.93.164-4.582 1.488-4.582 3.644 0 2.215 1.687 3.715 4.101 3.715zm.703-2.003c-1.359 0-2.25-.703-2.25-1.781 0-1.055.856-1.723 2.368-1.828l3.035-.188v.973c0 1.605-1.383 2.824-3.153 2.824zm14.942 1.957c3.234 0 5.297-1.84 5.297-4.687 0-2.32-1.418-3.973-3.797-4.266v-.082c1.558-.469 2.543-1.992 2.543-3.879 0-2.508-2.098-4.266-5.074-4.266-3.141 0-5.145 1.77-5.145 4.512V120h2.52v-12.117c0-1.758.972-2.778 2.66-2.778 1.535 0 2.578.985 2.578 2.426 0 1.676-.95 2.73-2.52 2.73h-.586v2.25h.75c2.227 0 3.54 1.102 3.54 2.837 0 1.652-1.196 2.718-3.094 2.718-.54 0-1.078-.058-1.477-.175V120c.469.117 1.113.164 1.805.164zM956.61 120v-7.184c0-1.91 1.149-3.175 2.93-3.175 1.758 0 2.625 1.02 2.625 2.87V120h2.543v-7.98c0-2.825-1.559-4.56-4.277-4.56-1.899 0-3.211.868-3.88 2.274h-.058v-2.062h-2.414V120h2.531zm14.145.21c1.617 0 3.176-.866 3.89-2.237h.06V120h2.425v-8.496c0-2.473-1.91-4.055-4.899-4.055-3.046 0-4.945 1.64-5.086 3.867h2.391c.223-1.101 1.137-1.804 2.602-1.804 1.547 0 2.472.82 2.472 2.191v.95l-3.375.199c-2.93.164-4.582 1.488-4.582 3.644 0 2.215 1.688 3.715 4.102 3.715zm.703-2.003c-1.36 0-2.25-.703-2.25-1.781 0-1.055.855-1.723 2.367-1.828l3.035-.188v.973c0 1.605-1.382 2.824-3.152 2.824zM982.205 120v-7.125c0-1.945 1.149-3.234 3.024-3.234 1.78 0 2.695 1.09 2.695 2.906V120h2.543v-7.945c0-2.79-1.617-4.594-4.324-4.594-1.875 0-3.223.832-3.903 2.273h-.058v-6.644h-2.508V120h2.531zm13.23 0v-7.617c0-1.582 1.067-2.754 2.567-2.754 1.43 0 2.332.902 2.332 2.32V120h2.484v-7.7c0-1.558 1.043-2.671 2.543-2.671 1.5 0 2.356.914 2.356 2.508V120h2.543v-8.473c0-2.449-1.594-4.066-4.031-4.066-1.758 0-3.211.914-3.844 2.414h-.059c-.492-1.535-1.734-2.414-3.445-2.414-1.664 0-2.953.914-3.504 2.285h-.059v-2.074h-2.414V120h2.532zm22.524.234c2.824 0 4.957-1.605 5.309-3.855h-2.403c-.34 1.078-1.406 1.805-2.847 1.805-2.028 0-3.317-1.418-3.317-3.563v-.152h8.707v-.867c0-3.739-2.133-6.153-5.554-6.153-3.481 0-5.708 2.578-5.708 6.446 0 3.89 2.192 6.34 5.813 6.34zm2.918-7.535h-6.164c.129-1.863 1.371-3.21 3.14-3.21 1.77 0 2.965 1.323 3.024 3.21zm7.02 7.301v-7.184c0-1.91 1.148-3.175 2.93-3.175 1.757 0 2.624 1.02 2.624 2.87V120h2.543v-7.98c0-2.825-1.558-4.56-4.277-4.56-1.899 0-3.211.868-3.88 2.274h-.058v-2.062h-2.414V120h2.531z"/><path fill="#DCC31C" d="M401 0h308.088L739 80l-29.912 80H401l29.912-80z"/><path fill="#FFF" fill-rule="nonzero" d="M579.425 56.316c3.527 0 6.129-2.027 6.129-5.004 0-2.367-1.664-3.878-4.148-4.101v-.059c2.074-.433 3.562-1.851 3.562-3.972 0-2.52-2.121-4.407-5.566-4.407-3.305 0-5.614 1.887-5.825 4.84h2.461c.13-1.687 1.489-2.683 3.364-2.683 1.992 0 3.011 1.03 3.011 2.613 0 1.582-1.312 2.719-3.246 2.719h-1.98V48.3h2.05c2.262 0 3.657 1.078 3.645 3.011-.012 1.641-1.394 2.813-3.457 2.813-2.121 0-3.562-1.066-3.691-2.719h-2.52c.164 2.907 2.59 4.91 6.211 4.91zM452.33 88l1.547-4.57h6.446l1.546 4.57h2.778l-6.106-16.91h-2.836L449.6 88h2.73zm7.325-6.68h-5.11l2.52-7.418h.07l2.52 7.418zm9.082 6.68v-7.184c0-1.91 1.148-3.175 2.93-3.175 1.757 0 2.624 1.02 2.624 2.87V88h2.543v-7.98c0-2.825-1.558-4.56-4.277-4.56-1.898 0-3.211.868-3.879 2.274h-.059v-2.062h-2.414V88h2.532zm13.066 4.078v-6.105h.059c.703 1.37 2.109 2.238 3.879 2.238 3.093 0 5.144-2.473 5.144-6.375s-2.062-6.363-5.191-6.363c-1.782 0-3.2.902-3.926 2.32h-.047v-2.121h-2.45v16.406h2.532zm3.223-6.012c-1.946 0-3.235-1.664-3.235-4.23 0-2.543 1.301-4.23 3.235-4.23 2.004 0 3.258 1.652 3.258 4.23 0 2.59-1.254 4.23-3.258 4.23zm11.414 2.145c1.617 0 3.176-.867 3.89-2.238h.059V88h2.426v-8.496c0-2.473-1.91-4.055-4.899-4.055-3.047 0-4.945 1.64-5.086 3.867h2.391c.223-1.101 1.137-1.804 2.602-1.804 1.546 0 2.472.82 2.472 2.191v.95l-3.375.199c-2.93.164-4.582 1.488-4.582 3.644 0 2.215 1.688 3.715 4.102 3.715zm.703-2.004c-1.36 0-2.25-.703-2.25-1.781 0-1.055.855-1.723 2.367-1.828l3.035-.188v.973c0 1.605-1.383 2.824-3.152 2.824zm12.75 2.027c2.906 0 5.004-1.546 5.004-3.796 0-1.782-.961-2.766-3.48-3.352l-2.005-.457c-1.336-.305-1.898-.832-1.898-1.606 0-.984.914-1.652 2.285-1.652 1.418 0 2.297.75 2.438 1.945h2.379c-.082-2.273-1.946-3.867-4.817-3.867-2.836 0-4.758 1.512-4.758 3.715 0 1.793 1.16 2.918 3.504 3.457l2.004.469c1.348.305 1.805.773 1.805 1.57 0 1.008-.938 1.64-2.461 1.64-1.547 0-2.426-.632-2.66-1.921h-2.508c.234 2.344 2.086 3.855 5.168 3.855zm11.59 0c2.906 0 5.004-1.546 5.004-3.796 0-1.782-.961-2.766-3.48-3.352L521 80.629c-1.336-.305-1.898-.832-1.898-1.606 0-.984.914-1.652 2.285-1.652 1.418 0 2.297.75 2.437 1.945h2.38c-.083-2.273-1.946-3.867-4.817-3.867-2.836 0-4.758 1.512-4.758 3.715 0 1.793 1.16 2.918 3.504 3.457l2.004.469c1.348.305 1.805.773 1.805 1.57 0 1.008-.938 1.64-2.461 1.64-1.547 0-2.426-.632-2.66-1.921h-2.508c.234 2.344 2.086 3.855 5.168 3.855zm11.226-.011c1.887 0 3.14-.832 3.82-2.309h.06V88h2.425V75.672h-2.531v7.183c0 1.922-1.102 3.188-2.93 3.188-1.746 0-2.637-1.008-2.637-2.883v-7.488h-2.53v7.98c0 2.825 1.64 4.57 4.323 4.57zM544.04 88v-7.184c0-1.91 1.149-3.175 2.93-3.175 1.758 0 2.625 1.02 2.625 2.87V88h2.543v-7.98c0-2.825-1.559-4.56-4.277-4.56-1.899 0-3.211.868-3.88 2.274h-.058v-2.062h-2.414V88h2.531zm15.809 4.64c3.516 0 5.789-1.921 5.789-4.863V75.672h-2.46v2.11h-.048c-.75-1.43-2.18-2.31-3.926-2.31-3.164 0-5.18 2.438-5.18 6.317 0 3.844 2.028 6.258 5.122 6.258 1.758 0 3.21-.879 3.902-2.215h.047v2.027c0 1.688-1.172 2.813-3.152 2.813-1.442 0-2.567-.68-2.93-1.711h-2.543c.316 2.133 2.473 3.68 5.379 3.68zm-.024-6.69c-1.945 0-3.21-1.571-3.21-4.15 0-2.566 1.265-4.195 3.21-4.195 1.981 0 3.282 1.665 3.282 4.196 0 2.543-1.301 4.148-3.282 4.148zm12.938 2.284c2.906 0 5.004-1.546 5.004-3.796 0-1.782-.961-2.766-3.48-3.352l-2.004-.457c-1.336-.305-1.899-.832-1.899-1.606 0-.984.914-1.652 2.285-1.652 1.418 0 2.297.75 2.438 1.945h2.379c-.082-2.273-1.946-3.867-4.817-3.867-2.836 0-4.758 1.512-4.758 3.715 0 1.793 1.16 2.918 3.504 3.457l2.004.469c1.348.305 1.805.773 1.805 1.57 0 1.008-.938 1.64-2.461 1.64-1.547 0-2.426-.632-2.66-1.921h-2.508c.234 2.344 2.086 3.855 5.168 3.855zm9.492-.234v-7.617c0-1.582 1.067-2.754 2.567-2.754 1.43 0 2.332.902 2.332 2.32V88h2.484v-7.7c0-1.558 1.043-2.671 2.543-2.671 1.5 0 2.355.914 2.355 2.508V88h2.543v-8.473c0-2.449-1.593-4.066-4.03-4.066-1.759 0-3.212.914-3.845 2.414h-.058c-.492-1.535-1.735-2.414-3.446-2.414-1.664 0-2.953.914-3.503 2.285h-.059v-2.074h-2.414V88h2.531zm20.871.21c1.617 0 3.176-.866 3.89-2.237h.06V88h2.425v-8.496c0-2.473-1.91-4.055-4.898-4.055-3.047 0-4.945 1.64-5.086 3.867h2.39c.223-1.101 1.137-1.804 2.602-1.804 1.547 0 2.473.82 2.473 2.191v.95l-3.375.199c-2.93.164-4.582 1.488-4.582 3.644 0 2.215 1.687 3.715 4.101 3.715zm.703-2.003c-1.359 0-2.25-.703-2.25-1.781 0-1.055.856-1.723 2.368-1.828l3.035-.188v.973c0 1.605-1.383 2.824-3.153 2.824zm14.942 1.957c3.234 0 5.297-1.84 5.297-4.687 0-2.32-1.418-3.973-3.797-4.266v-.082c1.558-.469 2.543-1.992 2.543-3.879 0-2.508-2.098-4.266-5.074-4.266-3.141 0-5.145 1.77-5.145 4.512V88h2.52V75.883c0-1.758.972-2.778 2.66-2.778 1.535 0 2.578.985 2.578 2.426 0 1.676-.95 2.73-2.52 2.73h-.586v2.25h.75c2.227 0 3.54 1.102 3.54 2.837 0 1.652-1.196 2.718-3.094 2.718-.54 0-1.078-.058-1.477-.175V88c.469.117 1.113.164 1.805.164zM629.083 88v-7.184c0-1.91 1.149-3.175 2.93-3.175 1.758 0 2.625 1.02 2.625 2.87V88h2.543v-7.98c0-2.825-1.559-4.56-4.277-4.56-1.899 0-3.211.868-3.88 2.274h-.058v-2.062h-2.414V88h2.531zm14.145.21c1.617 0 3.176-.866 3.89-2.237h.06V88h2.425v-8.496c0-2.473-1.91-4.055-4.899-4.055-3.046 0-4.945 1.64-5.086 3.867h2.391c.223-1.101 1.137-1.804 2.602-1.804 1.547 0 2.472.82 2.472 2.191v.95l-3.375.199c-2.93.164-4.582 1.488-4.582 3.644 0 2.215 1.688 3.715 4.102 3.715zm.703-2.003c-1.36 0-2.25-.703-2.25-1.781 0-1.055.855-1.723 2.367-1.828l3.035-.188v.973c0 1.605-1.383 2.824-3.152 2.824zM654.677 88v-7.125c0-1.945 1.148-3.234 3.023-3.234 1.782 0 2.696 1.09 2.696 2.906V88h2.543v-7.945c0-2.79-1.617-4.594-4.324-4.594-1.875 0-3.223.832-3.903 2.273h-.058V71.09h-2.508V88h2.531zm13.23 0v-7.617c0-1.582 1.067-2.754 2.567-2.754 1.43 0 2.332.902 2.332 2.32V88h2.484v-7.7c0-1.558 1.043-2.671 2.543-2.671 1.5 0 2.356.914 2.356 2.508V88h2.543v-8.473c0-2.449-1.594-4.066-4.032-4.066-1.757 0-3.21.914-3.843 2.414h-.059c-.492-1.535-1.734-2.414-3.445-2.414-1.664 0-2.953.914-3.504 2.285h-.059v-2.074h-2.414V88h2.532zm22.524.234c2.824 0 4.957-1.605 5.309-3.855h-2.403c-.34 1.078-1.406 1.805-2.847 1.805-2.028 0-3.317-1.418-3.317-3.563v-.152h8.707v-.867c0-3.739-2.133-6.153-5.555-6.153-3.48 0-5.707 2.578-5.707 6.446 0 3.89 2.192 6.34 5.813 6.34zm2.918-7.535h-6.164c.129-1.863 1.371-3.21 3.14-3.21 1.77 0 2.965 1.323 3.024 3.21zm7.02 7.301v-7.184c0-1.91 1.148-3.175 2.93-3.175 1.757 0 2.624 1.02 2.624 2.87V88h2.543v-7.98c0-2.825-1.558-4.56-4.277-4.56-1.899 0-3.211.868-3.88 2.274h-.058v-2.062h-2.414V88h2.531zM544.93 120.21c3.129 0 5.144-2.46 5.144-6.374 0-3.902-2.027-6.363-5.132-6.363-1.746 0-3.153.867-3.89 2.297h-.06v-6.68h-2.53V120h2.46v-2.098h.047c.762 1.43 2.156 2.309 3.961 2.309zm-.68-2.144c-1.922 0-3.27-1.664-3.27-4.23 0-2.543 1.348-4.23 3.27-4.23 1.992 0 3.223 1.64 3.223 4.23 0 2.613-1.23 4.23-3.223 4.23zm13.055 2.168c2.824 0 4.957-1.605 5.309-3.855h-2.403c-.34 1.078-1.406 1.805-2.847 1.805-2.028 0-3.317-1.418-3.317-3.563v-.152h8.707v-.867c0-3.739-2.133-6.153-5.555-6.153-3.48 0-5.707 2.578-5.707 6.446 0 3.89 2.192 6.34 5.813 6.34zm2.918-7.535h-6.164c.129-1.863 1.371-3.21 3.14-3.21 1.77 0 2.965 1.323 3.024 3.21zm7.113 7.301v-4.43l1.055-1.043 4.183 5.473h2.942l-5.309-7.02 5.11-5.308h-2.977l-4.98 5.285h-.024v-9.867h-2.531V120h2.531zm13.09.21c1.617 0 3.176-.866 3.89-2.237h.06V120h2.425v-8.496c0-2.473-1.91-4.055-4.898-4.055-3.047 0-4.946 1.64-5.086 3.867h2.39c.223-1.101 1.137-1.804 2.602-1.804 1.547 0 2.473.82 2.473 2.191v.95l-3.375.199c-2.93.164-4.583 1.488-4.583 3.644 0 2.215 1.688 3.715 4.102 3.715zm.703-2.003c-1.36 0-2.25-.703-2.25-1.781 0-1.055.856-1.723 2.367-1.828l3.036-.188v.973c0 1.605-1.383 2.824-3.153 2.824zM591.783 120v-7.184c0-1.91 1.148-3.175 2.93-3.175 1.757 0 2.624 1.02 2.624 2.87V120h2.543v-7.98c0-2.825-1.558-4.56-4.277-4.56-1.899 0-3.211.868-3.88 2.274h-.058v-2.062h-2.414V120h2.532zm13.066 0v-7.184c0-1.91 1.148-3.175 2.93-3.175 1.757 0 2.625 1.02 2.625 2.87V120h2.543v-7.98c0-2.825-1.559-4.56-4.278-4.56-1.898 0-3.21.868-3.879 2.274h-.058v-2.062h-2.414V120h2.53zm14.742.082c.563 0 1.125-.047 1.406-.117v-2.004c-.164.035-.574.059-.832.059-1.03 0-1.5-.48-1.5-1.547v-6.797h2.344v-2.004h-2.344v-2.918h-2.543v2.918h-1.793v2.004h1.793v7.078c0 2.379.973 3.328 3.47 3.328z"/><path fill="#D2981C" d="M172 0h221.085L423 80l-29.915 80H172l30-80z"/><path fill="#FFF" fill-rule="nonzero" d="M305.828 56v-2.215h-8.05v-.058l3.843-3.856c3.023-3.023 3.937-4.371 3.937-6.316 0-2.66-2.238-4.782-5.554-4.782-3.399 0-5.883 2.227-5.883 5.297h2.484c0-1.804 1.465-3.129 3.399-3.129 1.793 0 2.965 1.22 2.965 2.778 0 1.324-.516 2.191-2.743 4.465l-5.964 6.011V56h11.566zm-60.785 32l1.547-4.57h6.445l1.547 4.57h2.777l-6.105-16.91h-2.836L242.312 88h2.73zm7.324-6.68h-5.11l2.52-7.418h.07l2.52 7.418zM261.45 88v-7.184c0-1.91 1.149-3.175 2.93-3.175 1.758 0 2.625 1.02 2.625 2.87V88h2.543v-7.98c0-2.825-1.559-4.56-4.278-4.56-1.898 0-3.21.868-3.879 2.274h-.058v-2.062h-2.414V88h2.531zm13.816 0V77.676h2.461v-1.98h-2.496v-1.16c0-1.09.516-1.641 1.618-1.641.34 0 .68.023.925.07V71.09a9.069 9.069 0 00-1.418-.117c-2.507 0-3.632 1.125-3.632 3.515v1.207h-1.7v1.98h1.7V88h2.542zm7.125-14.355a1.418 1.418 0 100-2.836 1.418 1.418 0 100 2.836zm4.57 0a1.418 1.418 0 100-2.836c-.784 0-1.429.632-1.429 1.418 0 .785.645 1.418 1.43 1.418zm-3.632 14.566c1.617 0 3.176-.867 3.89-2.238h.06V88h2.425v-8.496c0-2.473-1.91-4.055-4.898-4.055-3.047 0-4.946 1.64-5.086 3.867h2.39c.223-1.101 1.137-1.804 2.602-1.804 1.547 0 2.472.82 2.472 2.191v.95l-3.375.199c-2.93.164-4.582 1.488-4.582 3.644 0 2.215 1.688 3.715 4.102 3.715zm.703-2.004c-1.36 0-2.25-.703-2.25-1.781 0-1.055.856-1.723 2.367-1.828l3.035-.188v.973c0 1.605-1.382 2.824-3.152 2.824zM294.777 88V71.09h-2.531V88h2.531zm5.227 0V71.09h-2.531V88h2.53zm3.949-14.32c.809 0 1.453-.657 1.453-1.453 0-.809-.644-1.454-1.453-1.454s-1.465.645-1.465 1.454c0 .796.656 1.453 1.465 1.453zM305.219 88V75.672h-2.532V88h2.532zm7.863 4.64c3.516 0 5.789-1.921 5.789-4.863V75.672h-2.461v2.11h-.047c-.75-1.43-2.18-2.31-3.926-2.31-3.164 0-5.18 2.438-5.18 6.317 0 3.844 2.028 6.258 5.122 6.258 1.758 0 3.21-.879 3.902-2.215h.047v2.027c0 1.688-1.172 2.813-3.152 2.813-1.442 0-2.567-.68-2.93-1.711h-2.543c.316 2.133 2.473 3.68 5.379 3.68zm-.024-6.69c-1.945 0-3.21-1.571-3.21-4.15 0-2.566 1.265-4.195 3.21-4.195 1.98 0 3.282 1.665 3.282 4.196 0 2.543-1.301 4.148-3.282 4.148zM323.992 88v-4.43l1.055-1.043L329.23 88h2.942l-5.309-7.02 5.11-5.308h-2.977l-4.98 5.285h-.024V71.09h-2.531V88h2.531zm14.742.234c2.824 0 4.957-1.605 5.309-3.855h-2.403c-.34 1.078-1.406 1.805-2.847 1.805-2.028 0-3.317-1.418-3.317-3.563v-.152h8.707v-.867c0-3.739-2.132-6.153-5.554-6.153-3.48 0-5.707 2.578-5.707 6.446 0 3.89 2.191 6.34 5.812 6.34zm2.918-7.535h-6.164c.13-1.863 1.371-3.21 3.14-3.21 1.77 0 2.966 1.323 3.024 3.21zm5.836-7.02c.809 0 1.453-.656 1.453-1.452 0-.809-.644-1.454-1.453-1.454-.808 0-1.465.645-1.465 1.454 0 .796.657 1.453 1.465 1.453zM348.754 88V75.672h-2.531V88h2.53zm6.797.082c.562 0 1.125-.047 1.406-.117V85.96c-.164.035-.574.059-.832.059-1.031 0-1.5-.48-1.5-1.547v-6.797h2.344v-2.004h-2.344v-2.918h-2.543v2.918h-1.793v2.004h1.793v7.078c0 2.379.973 3.328 3.469 3.328zm-90.194 32.129c3.13 0 5.145-2.461 5.145-6.375 0-3.902-2.028-6.363-5.133-6.363-1.746 0-3.152.867-3.89 2.297h-.06v-6.68h-2.53V120h2.46v-2.098h.047c.762 1.43 2.157 2.309 3.961 2.309zm-.68-2.145c-1.921 0-3.269-1.664-3.269-4.23 0-2.543 1.348-4.23 3.27-4.23 1.992 0 3.222 1.64 3.222 4.23 0 2.613-1.23 4.23-3.222 4.23zm13.055 2.168c2.825 0 4.957-1.605 5.309-3.855h-2.402c-.34 1.078-1.407 1.805-2.848 1.805-2.027 0-3.317-1.418-3.317-3.563v-.152h8.708v-.867c0-3.739-2.133-6.153-5.555-6.153-3.48 0-5.707 2.578-5.707 6.446 0 3.89 2.191 6.34 5.812 6.34zm2.918-7.535h-6.164c.13-1.863 1.371-3.21 3.14-3.21 1.77 0 2.966 1.323 3.024 3.21zm7.114 7.301v-4.43l1.054-1.043 4.184 5.473h2.941l-5.308-7.02 5.109-5.308h-2.977l-4.98 5.285h-.023v-9.867h-2.532V120h2.532zm13.09.21c1.617 0 3.175-.866 3.89-2.237h.059V120h2.425v-8.496c0-2.473-1.91-4.055-4.898-4.055-3.047 0-4.945 1.64-5.086 3.867h2.39c.223-1.101 1.137-1.804 2.602-1.804 1.547 0 2.473.82 2.473 2.191v.95l-3.375.199c-2.93.164-4.582 1.488-4.582 3.644 0 2.215 1.687 3.715 4.101 3.715zm.703-2.003c-1.36 0-2.25-.703-2.25-1.781 0-1.055.855-1.723 2.367-1.828l3.035-.188v.973c0 1.605-1.383 2.824-3.152 2.824zM312.209 120v-7.184c0-1.91 1.148-3.175 2.93-3.175 1.757 0 2.625 1.02 2.625 2.87V120h2.543v-7.98c0-2.825-1.56-4.56-4.278-4.56-1.898 0-3.21.868-3.879 2.274h-.058v-2.062h-2.414V120h2.53zm13.066 0v-7.184c0-1.91 1.149-3.175 2.93-3.175 1.758 0 2.625 1.02 2.625 2.87V120h2.543v-7.98c0-2.825-1.559-4.56-4.277-4.56-1.899 0-3.211.868-3.88 2.274h-.058v-2.062h-2.414V120h2.531zm14.742.082c.563 0 1.125-.047 1.407-.117v-2.004c-.164.035-.575.059-.832.059-1.032 0-1.5-.48-1.5-1.547v-6.797h2.343v-2.004h-2.343v-2.918h-2.543v2.918h-1.793v2.004h1.793v7.078c0 2.379.972 3.328 3.468 3.328z"/><path fill="#8A2542" fill-opacity=".832" d="M0 0h164l30 80-30 80H0V80z"/><path fill="#FFF" fill-rule="nonzero" d="M86.678 56V39.09h-2.59l-4.453 3.164v2.484l4.418-3.047h.058V56h2.567zM29.145 88l1.546-4.57h6.446L38.684 88h2.777l-6.106-16.91H32.52L26.414 88h2.73zm7.324-6.68h-5.11l2.52-7.418h.07l2.52 7.418zM45.55 88v-7.184c0-1.91 1.148-3.175 2.93-3.175 1.757 0 2.624 1.02 2.624 2.87V88h2.543v-7.98c0-2.825-1.558-4.56-4.277-4.56-1.898 0-3.21.868-3.879 2.274h-.058v-2.062H43.02V88h2.53zm13.816 0V77.676h2.461v-1.98h-2.496v-1.16c0-1.09.516-1.641 1.617-1.641.34 0 .68.023.926.07V71.09a9.069 9.069 0 00-1.418-.117c-2.508 0-3.633 1.125-3.633 3.515v1.207h-1.699v1.98h1.7V88h2.542zm7.125-14.355a1.418 1.418 0 100-2.836 1.418 1.418 0 100 2.836zm4.57 0a1.418 1.418 0 100-2.836c-.785 0-1.43.632-1.43 1.418 0 .785.645 1.418 1.43 1.418zM67.43 88.21c1.617 0 3.175-.867 3.89-2.238h.059V88h2.426v-8.496c0-2.473-1.91-4.055-4.899-4.055-3.047 0-4.945 1.64-5.086 3.867h2.39c.224-1.101 1.138-1.804 2.603-1.804 1.546 0 2.472.82 2.472 2.191v.95l-3.375.199c-2.93.164-4.582 1.488-4.582 3.644 0 2.215 1.688 3.715 4.102 3.715zm.703-2.004c-1.36 0-2.25-.703-2.25-1.781 0-1.055.855-1.723 2.367-1.828l3.035-.188v.973c0 1.605-1.383 2.824-3.152 2.824zM78.879 88V71.09h-2.531V88h2.53zm5.226 0V71.09h-2.53V88h2.53zm3.95-14.32c.808 0 1.453-.657 1.453-1.453 0-.809-.645-1.454-1.453-1.454-.809 0-1.465.645-1.465 1.454 0 .796.656 1.453 1.465 1.453zM89.32 88V75.672h-2.53V88h2.53zm7.864 4.64c3.515 0 5.789-1.921 5.789-4.863V75.672h-2.461v2.11h-.047c-.75-1.43-2.18-2.31-3.926-2.31-3.164 0-5.18 2.438-5.18 6.317 0 3.844 2.028 6.258 5.121 6.258 1.758 0 3.211-.879 3.903-2.215h.047v2.027c0 1.688-1.172 2.813-3.153 2.813-1.441 0-2.566-.68-2.93-1.711h-2.542c.316 2.133 2.472 3.68 5.379 3.68zm-.024-6.69c-1.945 0-3.21-1.571-3.21-4.15 0-2.566 1.265-4.195 3.21-4.195 1.98 0 3.281 1.665 3.281 4.196 0 2.543-1.3 4.148-3.28 4.148zM108.094 88v-4.43l1.054-1.043L113.332 88h2.941l-5.308-7.02 5.11-5.308h-2.977l-4.98 5.285h-.024V71.09h-2.531V88h2.53zm14.742.234c2.824 0 4.957-1.605 5.309-3.855h-2.403c-.34 1.078-1.406 1.805-2.847 1.805-2.028 0-3.317-1.418-3.317-3.563v-.152h8.707v-.867c0-3.739-2.133-6.153-5.555-6.153-3.48 0-5.707 2.578-5.707 6.446 0 3.89 2.192 6.34 5.813 6.34zm2.918-7.535h-6.164c.129-1.863 1.37-3.21 3.14-3.21s2.965 1.323 3.024 3.21zm5.836-7.02c.808 0 1.453-.656 1.453-1.452 0-.809-.645-1.454-1.453-1.454-.809 0-1.465.645-1.465 1.454 0 .796.656 1.453 1.465 1.453zM132.855 88V75.672h-2.53V88h2.53zm6.797.082c.563 0 1.125-.047 1.407-.117V85.96c-.164.035-.575.059-.832.059-1.032 0-1.5-.48-1.5-1.547v-6.797h2.343v-2.004h-2.343v-2.918h-2.543v2.918h-1.793v2.004h1.793v7.078c0 2.379.972 3.328 3.468 3.328zm-105.556 32.14c1.886 0 3.14-.831 3.82-2.308h.059V120H40.4v-12.328h-2.53v7.183c0 1.922-1.102 3.188-2.93 3.188-1.747 0-2.637-1.008-2.637-2.883v-7.488H29.77v7.98c0 2.825 1.641 4.57 4.325 4.57zM45.428 120v-7.184c0-1.91 1.148-3.175 2.93-3.175 1.757 0 2.624 1.02 2.624 2.87V120h2.543v-7.98c0-2.825-1.558-4.56-4.277-4.56-1.898 0-3.21.868-3.879 2.274h-.058v-2.062h-2.415V120h2.532zm17.097.21c3.13 0 5.145-2.46 5.145-6.374 0-3.902-2.027-6.363-5.133-6.363-1.746 0-3.152.867-3.89 2.297h-.06v-6.68h-2.53V120h2.46v-2.098h.047c.762 1.43 2.157 2.309 3.961 2.309zm-.68-2.144c-1.921 0-3.269-1.664-3.269-4.23 0-2.543 1.348-4.23 3.27-4.23 1.992 0 3.222 1.64 3.222 4.23 0 2.613-1.23 4.23-3.222 4.23zm13.055 2.168c2.825 0 4.957-1.605 5.309-3.855h-2.402c-.34 1.078-1.407 1.805-2.848 1.805-2.027 0-3.316-1.418-3.316-3.563v-.152h8.707v-.867c0-3.739-2.133-6.153-5.555-6.153-3.48 0-5.707 2.578-5.707 6.446 0 3.89 2.191 6.34 5.812 6.34zm2.918-7.535h-6.164c.13-1.863 1.371-3.21 3.14-3.21 1.77 0 2.966 1.323 3.024 3.21zM84.932 120v-4.43l1.054-1.043L90.17 120h2.941l-5.308-7.02 5.11-5.308h-2.977l-4.98 5.285h-.024v-9.867H82.4V120h2.532zm13.09.21c1.617 0 3.175-.866 3.89-2.237h.059V120h2.425v-8.496c0-2.473-1.91-4.055-4.898-4.055-3.047 0-4.945 1.64-5.086 3.867h2.39c.223-1.101 1.137-1.804 2.602-1.804 1.547 0 2.473.82 2.473 2.191v.95l-3.375.199c-2.93.164-4.582 1.488-4.582 3.644 0 2.215 1.687 3.715 4.101 3.715zm.703-2.003c-1.36 0-2.25-.703-2.25-1.781 0-1.055.855-1.723 2.367-1.828l3.035-.188v.973c0 1.605-1.383 2.824-3.152 2.824zM109.377 120v-7.184c0-1.91 1.148-3.175 2.93-3.175 1.757 0 2.625 1.02 2.625 2.87V120h2.543v-7.98c0-2.825-1.559-4.56-4.278-4.56-1.898 0-3.21.868-3.879 2.274h-.058v-2.062h-2.414V120h2.531zm13.066 0v-7.184c0-1.91 1.149-3.175 2.93-3.175 1.758 0 2.625 1.02 2.625 2.87V120h2.543v-7.98c0-2.825-1.559-4.56-4.277-4.56-1.899 0-3.211.868-3.88 2.274h-.058v-2.062h-2.414V120h2.531zm14.743.082c.562 0 1.125-.047 1.406-.117v-2.004c-.164.035-.574.059-.832.059-1.031 0-1.5-.48-1.5-1.547v-6.797h2.344v-2.004h-2.344v-2.918h-2.543v2.918h-1.793v2.004h1.793v7.078c0 2.379.972 3.328 3.469 3.328z"/></g></svg>