<svg xmlns="http://www.w3.org/2000/svg" width="1096" height="160"><g fill="none" fill-rule="evenodd"><path fill="#81B740" d="M718 0h348l30 80-30 80H718l30-80z"/><path fill="#FFF" fill-rule="nonzero" d="M911.43 56v-3.363h2.332v-2.203h-2.332V39.09h-3.797c-3.797 5.508-5.73 8.543-7.184 11.262v2.285h8.461V56h2.52zm-2.496-5.531h-6.047v-.07c1.347-2.403 3.07-5.075 6-9.27h.047v9.34zM846.684 88v-5.637l1.734-1.98 5.86 7.617h3.257l-7.265-9.422 6.703-7.488h-3.118l-7.066 8.05h-.105v-8.05h-2.625V88h2.625zm17.52.234c3.526 0 5.847-2.425 5.847-6.398 0-3.961-2.332-6.387-5.848-6.387-3.515 0-5.848 2.426-5.848 6.387 0 3.973 2.32 6.398 5.848 6.398zm0-2.086c-1.981 0-3.27-1.57-3.27-4.312 0-2.73 1.289-4.3 3.27-4.3 1.98 0 3.269 1.57 3.269 4.3 0 2.742-1.278 4.312-3.27 4.312zM874.632 88v-7.125c0-1.945 1.148-3.234 3.023-3.234 1.782 0 2.696 1.09 2.696 2.906V88h2.543v-7.945c0-2.79-1.618-4.594-4.325-4.594-1.875 0-3.222.832-3.902 2.273h-.059V71.09h-2.507V88h2.53zm14.308.21c1.618 0 3.176-.866 3.891-2.237h.059V88h2.425v-8.496c0-2.473-1.91-4.055-4.898-4.055-3.047 0-4.945 1.64-5.086 3.867h2.39c.223-1.101 1.137-1.804 2.602-1.804 1.547 0 2.473.82 2.473 2.191v.95l-3.375.199c-2.93.164-4.582 1.488-4.582 3.644 0 2.215 1.687 3.715 4.101 3.715zm.704-2.003c-1.36 0-2.25-.703-2.25-1.781 0-1.055.855-1.723 2.367-1.828l3.035-.188v.973c0 1.605-1.383 2.824-3.152 2.824zM900.297 88v-7.184c0-1.91 1.148-3.175 2.93-3.175 1.757 0 2.625 1.02 2.625 2.87V88h2.543v-7.98c0-2.825-1.56-4.56-4.278-4.56-1.898 0-3.21.868-3.879 2.274h-.058v-2.062h-2.414V88h2.53zm15.797.234c2.824 0 4.957-1.605 5.308-3.855H919c-.34 1.078-1.406 1.805-2.848 1.805-2.027 0-3.316-1.418-3.316-3.563v-.152h8.707v-.867c0-3.739-2.133-6.153-5.555-6.153-3.48 0-5.707 2.578-5.707 6.446 0 3.89 2.192 6.34 5.813 6.34zm2.918-7.535h-6.164c.129-1.863 1.37-3.21 3.14-3.21s2.965 1.323 3.024 3.21zm7.02 7.301v-7.617c0-1.582 1.066-2.754 2.566-2.754 1.43 0 2.332.902 2.332 2.32V88h2.484v-7.7c0-1.558 1.043-2.671 2.543-2.671 1.5 0 2.356.914 2.356 2.508V88h2.542v-8.473c0-2.449-1.593-4.066-4.03-4.066-1.759 0-3.212.914-3.845 2.414h-.058c-.492-1.535-1.735-2.414-3.445-2.414-1.664 0-2.954.914-3.504 2.285h-.059v-2.074H923.5V88h2.531zm18.609-14.32c.808 0 1.453-.657 1.453-1.453 0-.809-.645-1.454-1.453-1.454-.809 0-1.465.645-1.465 1.454 0 .796.656 1.453 1.465 1.453zM945.906 88V75.672h-2.531V88h2.531zm7.219.234c2.906 0 5.004-1.546 5.004-3.796 0-1.782-.961-2.766-3.48-3.352l-2.004-.457c-1.336-.305-1.899-.832-1.899-1.606 0-.984.914-1.652 2.285-1.652 1.418 0 2.297.75 2.438 1.945h2.379c-.082-2.273-1.946-3.867-4.817-3.867-2.836 0-4.758 1.512-4.758 3.715 0 1.793 1.16 2.918 3.504 3.457l2.004.469c1.348.305 1.805.773 1.805 1.57 0 1.008-.938 1.64-2.461 1.64-1.547 0-2.426-.632-2.66-1.921h-2.508c.234 2.344 2.086 3.855 5.168 3.855zm12.223 0c2.824 0 4.957-1.605 5.308-3.855h-2.402c-.34 1.078-1.406 1.805-2.848 1.805-2.027 0-3.316-1.418-3.316-3.563v-.152h8.707v-.867c0-3.739-2.133-6.153-5.555-6.153-3.48 0-5.707 2.578-5.707 6.446 0 3.89 2.192 6.34 5.813 6.34zm2.918-7.535h-6.164c.128-1.863 1.37-3.21 3.14-3.21s2.965 1.323 3.024 3.21zm-85.84 43.38v-6.106h.058c.703 1.37 2.11 2.238 3.88 2.238 3.093 0 5.144-2.473 5.144-6.375s-2.063-6.363-5.192-6.363c-1.78 0-3.199.902-3.925 2.32h-.047v-2.121h-2.45v16.406h2.532zm3.222-6.013c-1.945 0-3.234-1.664-3.234-4.23 0-2.543 1.3-4.23 3.234-4.23 2.004 0 3.258 1.652 3.258 4.23 0 2.59-1.254 4.23-3.258 4.23zm10.43 1.934v-16.91h-2.531V120h2.531zm6.211.21c1.617 0 3.176-.866 3.89-2.237h.06V120h2.425v-8.496c0-2.473-1.91-4.055-4.898-4.055-3.047 0-4.946 1.64-5.086 3.867h2.39c.223-1.101 1.137-1.804 2.602-1.804 1.547 0 2.473.82 2.473 2.191v.95l-3.375.199c-2.93.164-4.582 1.488-4.582 3.644 0 2.215 1.687 3.715 4.101 3.715zm.703-2.003c-1.36 0-2.25-.703-2.25-1.781 0-1.055.856-1.723 2.367-1.828l3.036-.188v.973c0 1.605-1.383 2.824-3.153 2.824zm11.73 2.004c1.618 0 3.176-.867 3.891-2.238h.059V120h2.426v-8.496c0-2.473-1.91-4.055-4.899-4.055-3.047 0-4.945 1.64-5.086 3.867h2.39c.224-1.101 1.138-1.804 2.602-1.804 1.547 0 2.473.82 2.473 2.191v.95l-3.375.199c-2.93.164-4.582 1.488-4.582 3.644 0 2.215 1.688 3.715 4.102 3.715zm.704-2.004c-1.36 0-2.25-.703-2.25-1.781 0-1.055.855-1.723 2.367-1.828l3.035-.188v.973c0 1.605-1.383 2.824-3.152 2.824zM926.078 120v-7.184c0-1.91 1.149-3.175 2.93-3.175 1.758 0 2.625 1.02 2.625 2.87V120h2.543v-7.98c0-2.825-1.559-4.56-4.278-4.56-1.898 0-3.21.868-3.878 2.274h-.06v-2.062h-2.413V120h2.531z"/><path fill="#DCC31C" d="M401 0h308.088L739 80l-29.912 80H401l29.912-80z"/><path fill="#FFF" fill-rule="nonzero" d="M579.425 56.316c3.527 0 6.129-2.027 6.129-5.004 0-2.367-1.664-3.878-4.148-4.101v-.059c2.074-.433 3.562-1.851 3.562-3.972 0-2.52-2.121-4.407-5.566-4.407-3.305 0-5.614 1.887-5.825 4.84h2.461c.13-1.687 1.489-2.683 3.364-2.683 1.992 0 3.011 1.03 3.011 2.613 0 1.582-1.312 2.719-3.246 2.719h-1.98V48.3h2.05c2.262 0 3.657 1.078 3.645 3.011-.012 1.641-1.394 2.813-3.457 2.813-2.121 0-3.562-1.066-3.691-2.719h-2.52c.164 2.907 2.59 4.91 6.211 4.91zM521.587 88v-5.637l1.735-1.98L529.18 88h3.258l-7.266-9.422 6.703-7.488h-3.117l-7.066 8.05h-.106v-8.05h-2.625V88h2.625zm17.52.234c3.527 0 5.847-2.425 5.847-6.398 0-3.961-2.332-6.387-5.847-6.387-3.516 0-5.848 2.426-5.848 6.387 0 3.973 2.32 6.398 5.848 6.398zm0-2.086c-1.98 0-3.27-1.57-3.27-4.312 0-2.73 1.29-4.3 3.27-4.3s3.27 1.57 3.27 4.3c0 2.742-1.278 4.312-3.27 4.312zM549.537 88v-7.125c0-1.945 1.148-3.234 3.023-3.234 1.781 0 2.695 1.09 2.695 2.906V88h2.543v-7.945c0-2.79-1.617-4.594-4.324-4.594-1.875 0-3.223.832-3.902 2.273h-.059V71.09h-2.508V88h2.531zm14.308.21c1.617 0 3.176-.866 3.89-2.237h.06V88h2.425v-8.496c0-2.473-1.91-4.055-4.898-4.055-3.047 0-4.946 1.64-5.086 3.867h2.39c.223-1.101 1.137-1.804 2.602-1.804 1.547 0 2.472.82 2.472 2.191v.95l-3.375.199c-2.93.164-4.582 1.488-4.582 3.644 0 2.215 1.688 3.715 4.102 3.715zm.703-2.003c-1.36 0-2.25-.703-2.25-1.781 0-1.055.856-1.723 2.367-1.828l3.035-.188v.973c0 1.605-1.382 2.824-3.152 2.824zM575.2 88v-7.184c0-1.91 1.149-3.175 2.93-3.175 1.758 0 2.625 1.02 2.625 2.87V88h2.543v-7.98c0-2.825-1.558-4.56-4.277-4.56-1.899 0-3.211.868-3.88 2.274h-.058v-2.062h-2.414V88h2.531zm15.797.234c2.825 0 4.957-1.605 5.309-3.855h-2.402c-.34 1.078-1.407 1.805-2.848 1.805-2.027 0-3.316-1.418-3.316-3.563v-.152h8.707v-.867c0-3.739-2.133-6.153-5.555-6.153-3.48 0-5.707 2.578-5.707 6.446 0 3.89 2.191 6.34 5.812 6.34zm2.918-7.535h-6.164c.13-1.863 1.371-3.21 3.14-3.21 1.77 0 2.966 1.323 3.024 3.21zm7.02 7.301v-7.617c0-1.582 1.066-2.754 2.566-2.754 1.43 0 2.332.902 2.332 2.32V88h2.485v-7.7c0-1.558 1.043-2.671 2.543-2.671 1.5 0 2.355.914 2.355 2.508V88h2.543v-8.473c0-2.449-1.594-4.066-4.031-4.066-1.758 0-3.211.914-3.844 2.414h-.059c-.492-1.535-1.734-2.414-3.445-2.414-1.664 0-2.953.914-3.504 2.285h-.058v-2.074h-2.414V88h2.53zm18.61-14.32c.808 0 1.452-.657 1.452-1.453 0-.809-.644-1.454-1.453-1.454-.808 0-1.465.645-1.465 1.454 0 .796.657 1.453 1.465 1.453zM620.81 88V75.672h-2.531V88h2.53zm7.219.234c2.906 0 5.004-1.546 5.004-3.796 0-1.782-.961-2.766-3.48-3.352l-2.005-.457c-1.336-.305-1.898-.832-1.898-1.606 0-.984.914-1.652 2.285-1.652 1.418 0 2.297.75 2.437 1.945h2.38c-.083-2.273-1.946-3.867-4.817-3.867-2.836 0-4.758 1.512-4.758 3.715 0 1.793 1.16 2.918 3.504 3.457l2.004.469c1.348.305 1.805.773 1.805 1.57 0 1.008-.938 1.64-2.461 1.64-1.547 0-2.426-.632-2.66-1.921h-2.508c.234 2.344 2.086 3.855 5.168 3.855zm12.222 0c2.824 0 4.957-1.605 5.309-3.855h-2.402c-.34 1.078-1.407 1.805-2.848 1.805-2.027 0-3.317-1.418-3.317-3.563v-.152h8.707v-.867c0-3.739-2.132-6.153-5.554-6.153-3.48 0-5.707 2.578-5.707 6.446 0 3.89 2.191 6.34 5.812 6.34zm2.918-7.535h-6.164c.13-1.863 1.371-3.21 3.14-3.21 1.77 0 2.966 1.323 3.024 3.21zm-90.017 24.98c.808 0 1.453-.656 1.453-1.452 0-.809-.645-1.454-1.453-1.454-.809 0-1.465.645-1.465 1.454 0 .796.656 1.453 1.465 1.453zM554.417 120v-12.328h-2.531V120h2.531zm7.219.21c1.793 0 3.2-.901 3.926-2.308h.047V120h2.46v-16.91h-2.542v6.633h-.047c-.692-1.36-2.098-2.25-3.867-2.25-3.094 0-5.157 2.472-5.157 6.363 0 3.89 2.063 6.375 5.18 6.375zm.668-2.144c-2.004 0-3.258-1.629-3.258-4.23 0-2.59 1.254-4.23 3.258-4.23 1.945 0 3.246 1.675 3.246 4.23 0 2.578-1.3 4.23-3.246 4.23zm13.617 2.168c2.824 0 4.957-1.605 5.309-3.855h-2.403c-.34 1.078-1.406 1.805-2.847 1.805-2.028 0-3.317-1.418-3.317-3.563v-.152h8.707v-.867c0-3.739-2.132-6.153-5.554-6.153-3.48 0-5.707 2.578-5.707 6.446 0 3.89 2.191 6.34 5.812 6.34zm2.918-7.535h-6.164c.129-1.863 1.371-3.21 3.14-3.21 1.77 0 2.966 1.323 3.024 3.21zm9.75 7.535c2.824 0 4.957-1.605 5.309-3.855h-2.403c-.34 1.078-1.406 1.805-2.847 1.805-2.028 0-3.317-1.418-3.317-3.563v-.152h8.707v-.867c0-3.739-2.132-6.153-5.554-6.153-3.48 0-5.707 2.578-5.707 6.446 0 3.89 2.191 6.34 5.812 6.34zm2.918-7.535h-6.164c.129-1.863 1.371-3.21 3.14-3.21 1.77 0 2.966 1.323 3.024 3.21zm9.117 7.512c1.793 0 3.2-.902 3.926-2.309h.047V120h2.46v-16.91h-2.542v6.633h-.047c-.691-1.36-2.098-2.25-3.867-2.25-3.094 0-5.156 2.472-5.156 6.363 0 3.89 2.062 6.375 5.18 6.375zm.668-2.145c-2.004 0-3.258-1.629-3.258-4.23 0-2.59 1.254-4.23 3.258-4.23 1.946 0 3.246 1.675 3.246 4.23 0 2.578-1.3 4.23-3.246 4.23z"/><path fill="#D2981C" d="M172 0h221.085L423 80l-29.915 80H172l30-80z"/><path fill="#FFF" fill-rule="nonzero" d="M305.828 56v-2.215h-8.05v-.058l3.843-3.856c3.023-3.023 3.937-4.371 3.937-6.316 0-2.66-2.238-4.782-5.554-4.782-3.399 0-5.883 2.227-5.883 5.297h2.484c0-1.804 1.465-3.129 3.399-3.129 1.793 0 2.965 1.22 2.965 2.778 0 1.324-.516 2.191-2.743 4.465l-5.964 6.011V56h11.566zm-63.287 32v-7.488h8.683V88h2.625V71.09h-2.625v7.148h-8.683V71.09h-2.625V88h2.625zm17.719.21c1.617 0 3.175-.866 3.89-2.237h.059V88h2.426v-8.496c0-2.473-1.91-4.055-4.899-4.055-3.047 0-4.945 1.64-5.086 3.867h2.39c.224-1.101 1.138-1.804 2.602-1.804 1.547 0 2.473.82 2.473 2.191v.95l-3.375.199c-2.93.164-4.582 1.488-4.582 3.644 0 2.215 1.688 3.715 4.102 3.715zm.703-2.003c-1.36 0-2.25-.703-2.25-1.781 0-1.055.855-1.723 2.367-1.828l3.035-.188v.973c0 1.605-1.383 2.824-3.152 2.824zm11.73 2.004c1.617 0 3.176-.867 3.89-2.238h.06V88h2.425v-8.496c0-2.473-1.91-4.055-4.898-4.055-3.047 0-4.946 1.64-5.086 3.867h2.39c.223-1.101 1.137-1.804 2.602-1.804 1.547 0 2.473.82 2.473 2.191v.95l-3.375.199c-2.93.164-4.582 1.488-4.582 3.644 0 2.215 1.687 3.715 4.101 3.715zm.703-2.004c-1.359 0-2.25-.703-2.25-1.781 0-1.055.856-1.723 2.368-1.828l3.035-.188v.973c0 1.605-1.383 2.824-3.153 2.824zM287.623 88l4.418-12.328h-2.649l-3.093 9.855h-.047l-3.094-9.855h-2.695L284.904 88h2.719zm9.48.21c1.618 0 3.176-.866 3.891-2.237h.059V88h2.425v-8.496c0-2.473-1.91-4.055-4.898-4.055-3.047 0-4.945 1.64-5.086 3.867h2.39c.223-1.101 1.137-1.804 2.602-1.804 1.547 0 2.473.82 2.473 2.191v.95l-3.375.199c-2.93.164-4.582 1.488-4.582 3.644 0 2.215 1.687 3.715 4.101 3.715zm.704-2.003c-1.36 0-2.25-.703-2.25-1.781 0-1.055.855-1.723 2.367-1.828l3.035-.188v.973c0 1.605-1.383 2.824-3.152 2.824zm12.328 1.875c.562 0 1.125-.047 1.406-.117V85.96c-.164.035-.574.059-.832.059-1.031 0-1.5-.48-1.5-1.547v-6.797h2.344v-2.004h-2.344v-2.918h-2.543v2.918h-1.793v2.004h1.793v7.078c0 2.379.973 3.328 3.469 3.328zm7.101.129c1.617 0 3.176-.867 3.89-2.238h.06V88h2.425v-8.496c0-2.473-1.91-4.055-4.898-4.055-3.047 0-4.946 1.64-5.086 3.867h2.39c.223-1.101 1.137-1.804 2.602-1.804 1.547 0 2.473.82 2.473 2.191v.95l-3.375.199c-2.93.164-4.582 1.488-4.582 3.644 0 2.215 1.687 3.715 4.101 3.715zm.703-2.004c-1.36 0-2.25-.703-2.25-1.781 0-1.055.856-1.723 2.368-1.828l3.035-.188v.973c0 1.605-1.383 2.824-3.153 2.824zM332.166 88l4.418-12.328h-2.649l-3.093 9.855h-.047l-3.094-9.855h-2.695L329.447 88h2.719zm10.137.223c1.886 0 3.14-.832 3.82-2.309h.059V88h2.425V75.672h-2.531v7.183c0 1.922-1.102 3.188-2.93 3.188-1.746 0-2.636-1.008-2.636-2.883v-7.488h-2.532v7.98c0 2.825 1.641 4.57 4.325 4.57zm13.43.011c2.906 0 5.003-1.546 5.003-3.796 0-1.782-.96-2.766-3.48-3.352l-2.004-.457c-1.336-.305-1.899-.832-1.899-1.606 0-.984.914-1.652 2.286-1.652 1.418 0 2.296.75 2.437 1.945h2.379c-.082-2.273-1.945-3.867-4.816-3.867-2.836 0-4.758 1.512-4.758 3.715 0 1.793 1.16 2.918 3.504 3.457l2.004.469c1.347.305 1.804.773 1.804 1.57 0 1.008-.937 1.64-2.46 1.64-1.548 0-2.426-.632-2.66-1.921h-2.509c.235 2.344 2.086 3.855 5.168 3.855zm-79.817 31.848c.562 0 1.125-.047 1.406-.117v-2.004c-.164.035-.574.059-.832.059-1.031 0-1.5-.48-1.5-1.547v-6.797h2.344v-2.004h-2.344v-2.918h-2.543v2.918h-1.793v2.004h1.793v7.078c0 2.379.973 3.328 3.469 3.328zm8.754.152c2.824 0 4.957-1.605 5.308-3.855h-2.402c-.34 1.078-1.406 1.805-2.848 1.805-2.027 0-3.316-1.418-3.316-3.563v-.152h8.707v-.867c0-3.739-2.133-6.153-5.555-6.153-3.48 0-5.707 2.578-5.707 6.446 0 3.89 2.192 6.34 5.813 6.34zm2.918-7.535h-6.164c.129-1.863 1.37-3.21 3.14-3.21s2.965 1.323 3.024 3.21zm8.097 7.512c1.618 0 3.176-.867 3.891-2.238h.059V120h2.425v-8.496c0-2.473-1.91-4.055-4.898-4.055-3.047 0-4.945 1.64-5.086 3.867h2.39c.223-1.101 1.137-1.804 2.602-1.804 1.547 0 2.473.82 2.473 2.191v.95l-3.375.199c-2.93.164-4.582 1.488-4.582 3.644 0 2.215 1.687 3.715 4.101 3.715zm.704-2.004c-1.36 0-2.25-.703-2.25-1.781 0-1.055.855-1.723 2.367-1.828l3.035-.188v.973c0 1.605-1.383 2.824-3.152 2.824zm12.75 2.004c1.793 0 3.199-.902 3.925-2.309h.047V120h2.461v-16.91h-2.543v6.633h-.047c-.691-1.36-2.097-2.25-3.867-2.25-3.094 0-5.156 2.472-5.156 6.363 0 3.89 2.062 6.375 5.18 6.375zm.668-2.145c-2.004 0-3.258-1.629-3.258-4.23 0-2.59 1.254-4.23 3.258-4.23 1.945 0 3.246 1.675 3.246 4.23 0 2.578-1.301 4.23-3.246 4.23zm11.964 2.145c1.618 0 3.176-.867 3.891-2.238h.059V120h2.425v-8.496c0-2.473-1.91-4.055-4.898-4.055-3.047 0-4.945 1.64-5.086 3.867h2.39c.223-1.101 1.137-1.804 2.602-1.804 1.547 0 2.473.82 2.473 2.191v.95l-3.375.199c-2.93.164-4.582 1.488-4.582 3.644 0 2.215 1.687 3.715 4.101 3.715zm.703-2.004c-1.359 0-2.25-.703-2.25-1.781 0-1.055.856-1.723 2.368-1.828l3.035-.188v.973c0 1.605-1.383 2.824-3.153 2.824z"/><path fill="#8A2542" fill-opacity=".832" d="M0 0h164l30 80-30 80H0V80z"/><path fill="#FFF" fill-rule="nonzero" d="M86.678 56V39.09h-2.59l-4.453 3.164v2.484l4.418-3.047h.058V56h2.567zM26.643 88v-7.488h8.683V88h2.625V71.09h-2.625v7.148h-8.683V71.09h-2.625V88h2.625zm17.718.21c1.618 0 3.176-.866 3.891-2.237h.059V88h2.425v-8.496c0-2.473-1.91-4.055-4.898-4.055-3.047 0-4.945 1.64-5.086 3.867h2.39c.223-1.101 1.137-1.804 2.602-1.804 1.547 0 2.473.82 2.473 2.191v.95l-3.375.199c-2.93.164-4.582 1.488-4.582 3.644 0 2.215 1.687 3.715 4.101 3.715zm.703-2.003c-1.359 0-2.25-.703-2.25-1.781 0-1.055.856-1.723 2.368-1.828l3.035-.188v.973c0 1.605-1.383 2.824-3.153 2.824zm11.73 2.004c1.618 0 3.177-.867 3.892-2.238h.058V88h2.426v-8.496c0-2.473-1.91-4.055-4.899-4.055-3.046 0-4.945 1.64-5.085 3.867h2.39c.223-1.101 1.137-1.804 2.602-1.804 1.547 0 2.472.82 2.472 2.191v.95l-3.375.199c-2.93.164-4.582 1.488-4.582 3.644 0 2.215 1.688 3.715 4.102 3.715zm.704-2.004c-1.36 0-2.25-.703-2.25-1.781 0-1.055.856-1.723 2.367-1.828l3.035-.188v.973c0 1.605-1.382 2.824-3.152 2.824zM71.725 88l4.418-12.328h-2.649L70.4 85.527h-.046l-3.094-9.855h-2.696L69.006 88h2.719zm9.48.21c1.617 0 3.176-.866 3.89-2.237h.06V88h2.425v-8.496c0-2.473-1.91-4.055-4.898-4.055-3.047 0-4.946 1.64-5.086 3.867h2.39c.223-1.101 1.137-1.804 2.602-1.804 1.547 0 2.473.82 2.473 2.191v.95l-3.375.199c-2.93.164-4.582 1.488-4.582 3.644 0 2.215 1.687 3.715 4.101 3.715zm.703-2.003c-1.36 0-2.25-.703-2.25-1.781 0-1.055.856-1.723 2.367-1.828l3.036-.188v.973c0 1.605-1.383 2.824-3.153 2.824zm12.328 1.875c.563 0 1.125-.047 1.407-.117V85.96c-.164.035-.575.059-.832.059-1.032 0-1.5-.48-1.5-1.547v-6.797h2.343v-2.004h-2.343v-2.918h-2.543v2.918h-1.793v2.004h1.793v7.078c0 2.379.972 3.328 3.468 3.328zm7.102.129c1.617 0 3.176-.867 3.89-2.238h.06V88h2.425v-8.496c0-2.473-1.91-4.055-4.899-4.055-3.046 0-4.945 1.64-5.085 3.867h2.39c.223-1.101 1.137-1.804 2.602-1.804 1.547 0 2.472.82 2.472 2.191v.95l-3.375.199c-2.93.164-4.582 1.488-4.582 3.644 0 2.215 1.688 3.715 4.102 3.715zm.703-2.004c-1.36 0-2.25-.703-2.25-1.781 0-1.055.855-1.723 2.367-1.828l3.035-.188v.973c0 1.605-1.382 2.824-3.152 2.824zM116.268 88l4.418-12.328h-2.649l-3.094 9.855h-.047l-3.093-9.855h-2.696L113.55 88h2.719zm10.136.223c1.887 0 3.14-.832 3.82-2.309h.06V88h2.425V75.672h-2.531v7.183c0 1.922-1.102 3.188-2.93 3.188-1.746 0-2.637-1.008-2.637-2.883v-7.488h-2.53v7.98c0 2.825 1.64 4.57 4.323 4.57zm13.43.011c2.906 0 5.004-1.546 5.004-3.796 0-1.782-.961-2.766-3.48-3.352l-2.004-.457c-1.336-.305-1.899-.832-1.899-1.606 0-.984.914-1.652 2.285-1.652 1.418 0 2.297.75 2.438 1.945h2.379c-.082-2.273-1.946-3.867-4.817-3.867-2.836 0-4.758 1.512-4.758 3.715 0 1.793 1.16 2.918 3.504 3.457l2.004.469c1.348.305 1.805.773 1.805 1.57 0 1.008-.938 1.64-2.461 1.64-1.547 0-2.426-.632-2.66-1.921h-2.508c.234 2.344 2.086 3.855 5.168 3.855zm-99.78 31.848c.563 0 1.126-.047 1.407-.117v-2.004c-.164.035-.574.059-.832.059-1.031 0-1.5-.48-1.5-1.547v-6.797h2.344v-2.004h-2.344v-2.918h-2.543v2.918h-1.793v2.004h1.793v7.078c0 2.379.973 3.328 3.469 3.328zm8.755.152c2.824 0 4.957-1.605 5.308-3.855h-2.402c-.34 1.078-1.406 1.805-2.848 1.805-2.027 0-3.316-1.418-3.316-3.563v-.152h8.707v-.867c0-3.739-2.133-6.153-5.555-6.153-3.48 0-5.707 2.578-5.707 6.446 0 3.89 2.191 6.34 5.813 6.34zm2.918-7.535h-6.164c.128-1.863 1.37-3.21 3.14-3.21s2.965 1.323 3.024 3.21zm8.097 7.512c1.617 0 3.176-.867 3.89-2.238h.06V120h2.425v-8.496c0-2.473-1.91-4.055-4.898-4.055-3.047 0-4.946 1.64-5.086 3.867h2.39c.223-1.101 1.137-1.804 2.602-1.804 1.547 0 2.473.82 2.473 2.191v.95l-3.375.199c-2.93.164-4.582 1.488-4.582 3.644 0 2.215 1.687 3.715 4.101 3.715zm.703-2.004c-1.359 0-2.25-.703-2.25-1.781 0-1.055.856-1.723 2.368-1.828l3.035-.188v.973c0 1.605-1.383 2.824-3.153 2.824zm12.75 2.004c1.793 0 3.2-.902 3.926-2.309h.047V120h2.46v-16.91h-2.542v6.633h-.047c-.691-1.36-2.098-2.25-3.867-2.25-3.094 0-5.156 2.472-5.156 6.363 0 3.89 2.062 6.375 5.18 6.375zm.668-2.145c-2.004 0-3.257-1.629-3.257-4.23 0-2.59 1.253-4.23 3.257-4.23 1.946 0 3.246 1.675 3.246 4.23 0 2.578-1.3 4.23-3.246 4.23zM84.832 120v-7.617c0-1.582 1.066-2.754 2.566-2.754 1.43 0 2.332.902 2.332 2.32V120h2.485v-7.7c0-1.558 1.043-2.671 2.543-2.671 1.5 0 2.355.914 2.355 2.508V120h2.543v-8.473c0-2.449-1.594-4.066-4.031-4.066-1.758 0-3.21.914-3.844 2.414h-.058c-.493-1.535-1.735-2.414-3.446-2.414-1.664 0-2.953.914-3.504 2.285h-.058v-2.074H82.3V120h2.531zm20.871.21c1.617 0 3.176-.866 3.89-2.237h.06V120h2.425v-8.496c0-2.473-1.91-4.055-4.898-4.055-3.047 0-4.946 1.64-5.086 3.867h2.39c.223-1.101 1.137-1.804 2.602-1.804 1.547 0 2.473.82 2.473 2.191v.95l-3.375.199c-2.93.164-4.582 1.488-4.582 3.644 0 2.215 1.687 3.715 4.101 3.715zm.703-2.003c-1.36 0-2.25-.703-2.25-1.781 0-1.055.856-1.723 2.367-1.828l3.036-.188v.973c0 1.605-1.383 2.824-3.153 2.824zm12.328 1.875c.563 0 1.125-.047 1.407-.117v-2.004c-.164.035-.575.059-.832.059-1.032 0-1.5-.48-1.5-1.547v-6.797h2.343v-2.004h-2.343v-2.918h-2.543v2.918h-1.793v2.004h1.793v7.078c0 2.379.972 3.328 3.468 3.328zm7.102.129c1.617 0 3.176-.867 3.89-2.238h.06V120h2.425v-8.496c0-2.473-1.91-4.055-4.899-4.055-3.046 0-4.945 1.64-5.085 3.867h2.39c.223-1.101 1.137-1.804 2.602-1.804 1.547 0 2.472.82 2.472 2.191v.95l-3.375.199c-2.93.164-4.582 1.488-4.582 3.644 0 2.215 1.688 3.715 4.102 3.715zm.703-2.004c-1.36 0-2.25-.703-2.25-1.781 0-1.055.856-1.723 2.367-1.828l3.035-.188v.973c0 1.605-1.382 2.824-3.152 2.824z"/></g></svg>