<svg xmlns="http://www.w3.org/2000/svg" width="1096" height="160"><g fill="none" fill-rule="evenodd"><path fill="#81B740" d="M718 0h348l30 80-30 80H718l30-80z"/><path fill="#FFF" fill-rule="nonzero" d="M911.43 56v-3.363h2.332v-2.203h-2.332V39.09h-3.797c-3.797 5.508-5.73 8.543-7.184 11.262v2.285h8.461V56h2.52zm-2.496-5.531h-6.047v-.07c1.347-2.403 3.07-5.075 6-9.27h.047v9.34zM888.719 88v-5.777h3.633c3.316 0 5.648-2.274 5.648-5.578 0-3.293-2.285-5.555-5.566-5.555h-6.34V88h2.625zm3.011-7.98h-3.011v-6.715h3.023c2.274 0 3.574 1.218 3.574 3.351s-1.3 3.364-3.586 3.364zM902.617 88V71.09h-2.531V88h2.531zm6.211.21c1.617 0 3.176-.866 3.89-2.237h.06V88h2.425v-8.496c0-2.473-1.91-4.055-4.898-4.055-3.047 0-4.946 1.64-5.086 3.867h2.39c.223-1.101 1.137-1.804 2.602-1.804 1.547 0 2.473.82 2.473 2.191v.95l-3.375.199c-2.93.164-4.582 1.488-4.582 3.644 0 2.215 1.687 3.715 4.101 3.715zm.703-2.003c-1.36 0-2.25-.703-2.25-1.781 0-1.055.856-1.723 2.367-1.828l3.036-.188v.973c0 1.605-1.383 2.824-3.153 2.824zM920.184 88v-7.184c0-1.91 1.148-3.175 2.93-3.175 1.757 0 2.624 1.02 2.624 2.87V88h2.543v-7.98c0-2.825-1.558-4.56-4.277-4.56-1.899 0-3.211.868-3.879 2.274h-.059v-2.062h-2.414V88h2.532zm-73.038 32.21c1.793 0 3.2-.901 3.926-2.308h.047V120h2.461v-16.91h-2.543v6.633h-.047c-.691-1.36-2.097-2.25-3.867-2.25-3.094 0-5.156 2.472-5.156 6.363 0 3.89 2.062 6.375 5.18 6.375zm.668-2.144c-2.003 0-3.257-1.629-3.257-4.23 0-2.59 1.254-4.23 3.257-4.23 1.946 0 3.247 1.675 3.247 4.23 0 2.578-1.301 4.23-3.247 4.23zm10.559-8.789l1.629-6.187h-2.555l-1.078 6.187h2.004zm7.945 10.934c1.618 0 3.176-.867 3.891-2.238h.059V120h2.425v-8.496c0-2.473-1.91-4.055-4.898-4.055-3.047 0-4.945 1.64-5.086 3.867h2.39c.223-1.101 1.137-1.804 2.602-1.804 1.547 0 2.473.82 2.473 2.191v.95l-3.375.199c-2.93.164-4.582 1.488-4.582 3.644 0 2.215 1.687 3.715 4.101 3.715zm.703-2.004c-1.359 0-2.25-.703-2.25-1.781 0-1.055.856-1.723 2.368-1.828l3.035-.188v.973c0 1.605-1.383 2.824-3.153 2.824zm12.75 2.004c1.793 0 3.2-.902 3.926-2.309h.047V120h2.461v-16.91h-2.543v6.633h-.047c-.691-1.36-2.097-2.25-3.867-2.25-3.094 0-5.156 2.472-5.156 6.363 0 3.89 2.062 6.375 5.18 6.375zm.668-2.145c-2.003 0-3.257-1.629-3.257-4.23 0-2.59 1.254-4.23 3.257-4.23 1.946 0 3.247 1.675 3.247 4.23 0 2.578-1.301 4.23-3.247 4.23zm11.965 2.145c1.617 0 3.176-.867 3.89-2.238h.06V120h2.425v-8.496c0-2.473-1.91-4.055-4.898-4.055-3.047 0-4.945 1.64-5.086 3.867h2.39c.223-1.101 1.137-1.804 2.602-1.804 1.547 0 2.473.82 2.473 2.191v.95l-3.375.199c-2.93.164-4.582 1.488-4.582 3.644 0 2.215 1.687 3.715 4.101 3.715zm.703-2.004c-1.359 0-2.25-.703-2.25-1.781 0-1.055.856-1.723 2.368-1.828l3.035-.188v.973c0 1.605-1.383 2.824-3.153 2.824zm10.653 5.871v-6.105h.058c.703 1.37 2.11 2.238 3.88 2.238 3.093 0 5.144-2.473 5.144-6.375s-2.063-6.363-5.192-6.363c-1.78 0-3.199.902-3.925 2.32h-.047v-2.121h-2.45v16.406h2.532zm3.222-6.012c-1.945 0-3.234-1.664-3.234-4.23 0-2.543 1.3-4.23 3.234-4.23 2.004 0 3.258 1.652 3.258 4.23 0 2.59-1.254 4.23-3.258 4.23zm12.012 2.016c.563 0 1.125-.047 1.406-.117v-2.004c-.164.035-.574.059-.832.059-1.03 0-1.5-.48-1.5-1.547v-6.797h2.344v-2.004h-2.344v-2.918h-2.543v2.918h-1.793v2.004h1.793v7.078c0 2.379.973 3.328 3.47 3.328zm7.102.129c1.617 0 3.175-.867 3.89-2.238h.059V120h2.426v-8.496c0-2.473-1.91-4.055-4.899-4.055-3.047 0-4.945 1.64-5.086 3.867h2.391c.223-1.101 1.137-1.804 2.602-1.804 1.546 0 2.472.82 2.472 2.191v.95l-3.375.199c-2.93.164-4.582 1.488-4.582 3.644 0 2.215 1.688 3.715 4.102 3.715zm.703-2.004c-1.36 0-2.25-.703-2.25-1.781 0-1.055.855-1.723 2.367-1.828l3.035-.188v.973c0 1.605-1.383 2.824-3.152 2.824zm12.328 1.875c.562 0 1.125-.047 1.406-.117v-2.004c-.164.035-.574.059-.832.059-1.031 0-1.5-.48-1.5-1.547v-6.797h2.344v-2.004H938.2v-2.918h-2.543v2.918h-1.793v2.004h1.793v7.078c0 2.379.973 3.328 3.469 3.328zm4.84-14.402c.808 0 1.453-.657 1.453-1.453 0-.809-.645-1.454-1.453-1.454-.809 0-1.465.645-1.465 1.454 0 .796.656 1.453 1.465 1.453zm1.265 14.32v-12.328h-2.53V120h2.53zm7.887.234c3.527 0 5.848-2.425 5.848-6.398 0-3.961-2.332-6.387-5.848-6.387-3.515 0-5.848 2.426-5.848 6.387 0 3.973 2.32 6.398 5.848 6.398zm0-2.086c-1.98 0-3.27-1.57-3.27-4.312 0-2.73 1.29-4.3 3.27-4.3s3.27 1.57 3.27 4.3c0 2.742-1.278 4.312-3.27 4.312zM963.455 120v-7.184c0-1.91 1.149-3.175 2.93-3.175 1.758 0 2.625 1.02 2.625 2.87V120h2.543v-7.98c0-2.825-1.559-4.56-4.278-4.56-1.898 0-3.21.868-3.879 2.274h-.058v-2.062h-2.414V120h2.531z"/><path fill="#DCC31C" d="M401 0h308.088L739 80l-29.912 80H401l29.912-80z"/><path fill="#FFF" fill-rule="nonzero" d="M579.425 56.316c3.527 0 6.129-2.027 6.129-5.004 0-2.367-1.664-3.878-4.148-4.101v-.059c2.074-.433 3.562-1.851 3.562-3.972 0-2.52-2.121-4.407-5.566-4.407-3.305 0-5.614 1.887-5.825 4.84h2.461c.13-1.687 1.489-2.683 3.364-2.683 1.992 0 3.011 1.03 3.011 2.613 0 1.582-1.312 2.719-3.246 2.719h-1.98V48.3h2.05c2.262 0 3.657 1.078 3.645 3.011-.012 1.641-1.394 2.813-3.457 2.813-2.121 0-3.562-1.066-3.691-2.719h-2.52c.164 2.907 2.59 4.91 6.211 4.91zM552.18 88v-5.777h3.633c3.316 0 5.648-2.274 5.648-5.578 0-3.293-2.285-5.555-5.566-5.555h-6.34V88h2.625zm3.012-7.98h-3.012v-6.715h3.023c2.274 0 3.575 1.218 3.575 3.351s-1.301 3.364-3.586 3.364zm9.61-6.34c.808 0 1.452-.657 1.452-1.453 0-.809-.644-1.454-1.453-1.454-.808 0-1.465.645-1.465 1.454 0 .796.657 1.453 1.465 1.453zM566.065 88V75.672h-2.532V88h2.532zm7.218.234c2.907 0 5.004-1.546 5.004-3.796 0-1.782-.96-2.766-3.48-3.352l-2.004-.457c-1.336-.305-1.898-.832-1.898-1.606 0-.984.914-1.652 2.285-1.652 1.418 0 2.297.75 2.437 1.945h2.38c-.083-2.273-1.946-3.867-4.817-3.867-2.836 0-4.758 1.512-4.758 3.715 0 1.793 1.16 2.918 3.504 3.457l2.004.469c1.347.305 1.804.773 1.804 1.57 0 1.008-.937 1.64-2.46 1.64-1.547 0-2.426-.632-2.66-1.921h-2.508c.234 2.344 2.085 3.855 5.167 3.855zm11.168-.152c.563 0 1.125-.047 1.407-.117V85.96c-.164.035-.575.059-.832.059-1.032 0-1.5-.48-1.5-1.547v-6.797h2.343v-2.004h-2.343v-2.918h-2.543v2.918h-1.793v2.004h1.793v7.078c0 2.379.972 3.328 3.468 3.328zm8.754.152c2.825 0 4.957-1.605 5.309-3.855h-2.402c-.34 1.078-1.407 1.805-2.848 1.805-2.027 0-3.316-1.418-3.316-3.563v-.152h8.707v-.867c0-3.739-2.133-6.153-5.555-6.153-3.48 0-5.707 2.578-5.707 6.446 0 3.89 2.191 6.34 5.812 6.34zm2.918-7.535h-6.164c.13-1.863 1.371-3.21 3.14-3.21 1.77 0 2.966 1.323 3.024 3.21zm9.118 7.535c2.906 0 5.003-1.546 5.003-3.796 0-1.782-.96-2.766-3.48-3.352l-2.004-.457c-1.336-.305-1.898-.832-1.898-1.606 0-.984.914-1.652 2.285-1.652 1.418 0 2.297.75 2.437 1.945h2.38c-.083-2.273-1.946-3.867-4.817-3.867-2.836 0-4.758 1.512-4.758 3.715 0 1.793 1.16 2.918 3.504 3.457l2.004.469c1.347.305 1.804.773 1.804 1.57 0 1.008-.937 1.64-2.46 1.64-1.547 0-2.426-.632-2.66-1.921h-2.508c.234 2.344 2.085 3.855 5.168 3.855zm-85.624 31.977c1.793 0 3.2-.902 3.926-2.309h.047V120h2.461v-16.91h-2.543v6.633h-.047c-.691-1.36-2.097-2.25-3.867-2.25-3.094 0-5.156 2.472-5.156 6.363 0 3.89 2.062 6.375 5.18 6.375zm.668-2.145c-2.003 0-3.257-1.629-3.257-4.23 0-2.59 1.254-4.23 3.257-4.23 1.946 0 3.247 1.675 3.247 4.23 0 2.578-1.301 4.23-3.247 4.23zm10.559-8.789l1.629-6.187h-2.555l-1.078 6.187h2.004zm7.945 10.934c1.618 0 3.176-.867 3.891-2.238h.059V120h2.425v-8.496c0-2.473-1.91-4.055-4.898-4.055-3.047 0-4.945 1.64-5.086 3.867h2.39c.223-1.101 1.137-1.804 2.602-1.804 1.547 0 2.473.82 2.473 2.191v.95l-3.375.199c-2.93.164-4.582 1.488-4.582 3.644 0 2.215 1.687 3.715 4.101 3.715zm.703-2.004c-1.359 0-2.25-.703-2.25-1.781 0-1.055.856-1.723 2.368-1.828l3.035-.188v.973c0 1.605-1.383 2.824-3.153 2.824zm12.75 2.004c1.793 0 3.2-.902 3.926-2.309h.047V120h2.461v-16.91h-2.543v6.633h-.047c-.691-1.36-2.097-2.25-3.867-2.25-3.094 0-5.156 2.472-5.156 6.363 0 3.89 2.062 6.375 5.18 6.375zm.668-2.145c-2.003 0-3.257-1.629-3.257-4.23 0-2.59 1.254-4.23 3.257-4.23 1.946 0 3.247 1.675 3.247 4.23 0 2.578-1.301 4.23-3.247 4.23zm11.965 2.145c1.617 0 3.176-.867 3.89-2.238h.06V120h2.425v-8.496c0-2.473-1.91-4.055-4.898-4.055-3.047 0-4.945 1.64-5.086 3.867h2.39c.223-1.101 1.137-1.804 2.602-1.804 1.547 0 2.473.82 2.473 2.191v.95l-3.375.199c-2.93.164-4.582 1.488-4.582 3.644 0 2.215 1.687 3.715 4.101 3.715zm.703-2.004c-1.359 0-2.25-.703-2.25-1.781 0-1.055.856-1.723 2.368-1.828l3.035-.188v.973c0 1.605-1.383 2.824-3.153 2.824zm10.653 5.871v-6.105h.058c.703 1.37 2.11 2.238 3.88 2.238 3.093 0 5.144-2.473 5.144-6.375s-2.063-6.363-5.192-6.363c-1.78 0-3.199.902-3.925 2.32h-.047v-2.121h-2.45v16.406h2.532zm3.222-6.012c-1.945 0-3.234-1.664-3.234-4.23 0-2.543 1.3-4.23 3.234-4.23 2.004 0 3.258 1.652 3.258 4.23 0 2.59-1.254 4.23-3.258 4.23zm12.012 2.016c.563 0 1.125-.047 1.406-.117v-2.004c-.164.035-.574.059-.832.059-1.03 0-1.5-.48-1.5-1.547v-6.797h2.344v-2.004h-2.344v-2.918h-2.543v2.918h-1.793v2.004h1.793v7.078c0 2.379.973 3.328 3.47 3.328zm7.102.129c1.617 0 3.175-.867 3.89-2.238h.059V120h2.426v-8.496c0-2.473-1.91-4.055-4.899-4.055-3.047 0-4.945 1.64-5.086 3.867h2.39c.224-1.101 1.138-1.804 2.602-1.804 1.547 0 2.473.82 2.473 2.191v.95l-3.375.199c-2.93.164-4.582 1.488-4.582 3.644 0 2.215 1.688 3.715 4.102 3.715zm.703-2.004c-1.36 0-2.25-.703-2.25-1.781 0-1.055.855-1.723 2.367-1.828l3.035-.188v.973c0 1.605-1.383 2.824-3.152 2.824zm12.328 1.875c.562 0 1.125-.047 1.406-.117v-2.004c-.164.035-.574.059-.832.059-1.031 0-1.5-.48-1.5-1.547v-6.797h2.344v-2.004h-2.344v-2.918h-2.543v2.918h-1.793v2.004h1.793v7.078c0 2.379.973 3.328 3.469 3.328zm4.84-14.402c.808 0 1.453-.657 1.453-1.453 0-.809-.645-1.454-1.453-1.454-.809 0-1.465.645-1.465 1.454 0 .796.656 1.453 1.465 1.453zm1.265 14.32v-12.328h-2.53V120h2.53zm7.887.234c3.527 0 5.848-2.425 5.848-6.398 0-3.961-2.332-6.387-5.848-6.387s-5.848 2.426-5.848 6.387c0 3.973 2.32 6.398 5.848 6.398zm0-2.086c-1.98 0-3.27-1.57-3.27-4.312 0-2.73 1.29-4.3 3.27-4.3s3.27 1.57 3.27 4.3c0 2.742-1.278 4.312-3.27 4.312zM635.927 120v-7.184c0-1.91 1.148-3.175 2.93-3.175 1.758 0 2.625 1.02 2.625 2.87V120h2.543v-7.98c0-2.825-1.559-4.56-4.278-4.56-1.898 0-3.21.868-3.879 2.274h-.058v-2.062h-2.414V120h2.531z"/><path fill="#D2981C" d="M172 0h221.085L423 80l-29.915 80H172l30-80z"/><path fill="#FFF" fill-rule="nonzero" d="M305.828 56v-2.215h-8.05v-.058l3.843-3.856c3.023-3.023 3.937-4.371 3.937-6.316 0-2.66-2.238-4.782-5.554-4.782-3.399 0-5.883 2.227-5.883 5.297h2.484c0-1.804 1.465-3.129 3.399-3.129 1.793 0 2.965 1.22 2.965 2.778 0 1.324-.516 2.191-2.743 4.465l-5.964 6.011V56h11.566zm-61.5 32l6.035-16.91h-2.8l-4.618 13.957h-.07l-4.606-13.957h-2.847L241.457 88h2.871zm11.86.223c1.886 0 3.14-.832 3.82-2.309h.058V88h2.426V75.672h-2.531v7.183c0 1.922-1.102 3.188-2.93 3.188-1.746 0-2.637-1.008-2.637-2.883v-7.488h-2.53v7.98c0 2.825 1.64 4.57 4.323 4.57zM267.612 88V71.09h-2.531V88h2.531zm5.133 0v-7.184c0-1.91 1.148-3.175 2.93-3.175 1.757 0 2.625 1.02 2.625 2.87V88h2.543v-7.98c0-2.825-1.559-4.56-4.278-4.56-1.898 0-3.21.868-3.879 2.274h-.058v-2.062h-2.414V88h2.531zm16.629-14.063l2.707-3.574h-2.555l-2.004 3.575h1.852zm-.832 14.297c2.824 0 4.957-1.605 5.308-3.855h-2.402c-.34 1.078-1.406 1.805-2.848 1.805-2.027 0-3.316-1.418-3.316-3.563v-.152h8.707v-.867c0-3.739-2.133-6.153-5.555-6.153-3.48 0-5.707 2.578-5.707 6.446 0 3.89 2.192 6.34 5.813 6.34zm2.918-7.535h-6.164c.129-1.863 1.37-3.21 3.14-3.21s2.965 1.323 3.024 3.21zM298.48 88v-7.383c0-1.746 1.007-2.836 2.636-2.836.492 0 .938.059 1.137.14v-2.355a4.618 4.618 0 00-.867-.093c-1.454 0-2.555.855-2.965 2.297h-.059v-2.098h-2.414V88h2.531zm8.952.21c1.618 0 3.176-.866 3.891-2.237h.059V88h2.425v-8.496c0-2.473-1.91-4.055-4.898-4.055-3.047 0-4.945 1.64-5.086 3.867h2.39c.223-1.101 1.137-1.804 2.602-1.804 1.547 0 2.473.82 2.473 2.191v.95l-3.375.199c-2.93.164-4.582 1.488-4.582 3.644 0 2.215 1.687 3.715 4.101 3.715zm.704-2.003c-1.36 0-2.25-.703-2.25-1.781 0-1.055.855-1.723 2.367-1.828l3.035-.188v.973c0 1.605-1.383 2.824-3.152 2.824zm14.683 2.004c3.13 0 5.145-2.461 5.145-6.375 0-3.902-2.028-6.363-5.133-6.363-1.746 0-3.152.867-3.89 2.297h-.06v-6.68h-2.53V88h2.46v-2.098h.047c.762 1.43 2.156 2.309 3.961 2.309zm-.68-2.145c-1.921 0-3.269-1.664-3.269-4.23 0-2.543 1.348-4.23 3.27-4.23 1.992 0 3.222 1.64 3.222 4.23 0 2.613-1.23 4.23-3.223 4.23zm9.141-12.386c.809 0 1.453-.657 1.453-1.453 0-.809-.644-1.454-1.453-1.454-.808 0-1.465.645-1.465 1.454 0 .796.657 1.453 1.465 1.453zM332.547 88V75.672h-2.532V88h2.532zm5.215 0V71.09h-2.532V88h2.532zm3.949-14.32c.808 0 1.453-.657 1.453-1.453 0-.809-.645-1.454-1.453-1.454-.809 0-1.465.645-1.465 1.454 0 .796.656 1.453 1.465 1.453zM342.976 88V75.672h-2.53V88h2.53zm6.797.082c.563 0 1.125-.047 1.407-.117V85.96c-.165.035-.575.059-.832.059-1.032 0-1.5-.48-1.5-1.547v-6.797h2.343v-2.004h-2.343v-2.918h-2.543v2.918h-1.793v2.004h1.793v7.078c0 2.379.972 3.328 3.468 3.328zm9.586-14.144l2.707-3.575h-2.554l-2.004 3.575h1.851zm-.832 14.296c2.824 0 4.957-1.605 5.309-3.855h-2.403c-.34 1.078-1.406 1.805-2.847 1.805-2.028 0-3.317-1.418-3.317-3.563v-.152h8.707v-.867c0-3.739-2.132-6.153-5.554-6.153-3.48 0-5.707 2.578-5.707 6.446 0 3.89 2.191 6.34 5.812 6.34zm2.918-7.535h-6.164c.129-1.863 1.371-3.21 3.14-3.21 1.77 0 2.966 1.323 3.024 3.21zm-103.113 39.535c2.965 0 5.062-1.78 5.332-4.406h-2.438c-.293 1.43-1.312 2.285-2.87 2.285-1.97 0-3.27-1.57-3.27-4.277 0-2.648 1.289-4.277 3.246-4.277 1.652 0 2.637 1.043 2.894 2.355h2.414c-.222-2.426-2.156-4.465-5.332-4.465-3.503 0-5.8 2.473-5.8 6.387 0 3.984 2.297 6.398 5.824 6.398zm12.422 0c3.527 0 5.847-2.425 5.847-6.398 0-3.961-2.332-6.387-5.847-6.387-3.516 0-5.848 2.426-5.848 6.387 0 3.973 2.32 6.398 5.848 6.398zm0-2.086c-1.98 0-3.27-1.57-3.27-4.312 0-2.73 1.29-4.3 3.27-4.3s3.27 1.57 3.27 4.3c0 2.742-1.278 4.312-3.27 4.312zM281.09 120v-7.617c0-1.582 1.066-2.754 2.566-2.754 1.43 0 2.332.902 2.332 2.32V120h2.485v-7.7c0-1.558 1.042-2.671 2.542-2.671 1.5 0 2.356.914 2.356 2.508V120h2.543v-8.473c0-2.449-1.594-4.066-4.031-4.066-1.758 0-3.211.914-3.844 2.414h-.059c-.492-1.535-1.734-2.414-3.445-2.414-1.664 0-2.953.914-3.504 2.285h-.058v-2.074h-2.415V120h2.532zm19.793 4.078v-6.105h.058c.703 1.37 2.11 2.238 3.88 2.238 3.093 0 5.144-2.473 5.144-6.375s-2.063-6.363-5.192-6.363c-1.78 0-3.199.902-3.925 2.32h-.047v-2.121h-2.45v16.406h2.532zm3.222-6.012c-1.945 0-3.234-1.664-3.234-4.23 0-2.543 1.3-4.23 3.234-4.23 2.004 0 3.258 1.652 3.258 4.23 0 2.59-1.254 4.23-3.258 4.23zM314.441 120v-7.383c0-1.746 1.008-2.836 2.637-2.836.492 0 .937.059 1.137.14v-2.355a4.619 4.619 0 00-.867-.093c-1.454 0-2.555.855-2.965 2.297h-.059v-2.098h-2.414V120h2.531zm6.692-14.32c.808 0 1.453-.657 1.453-1.453 0-.809-.645-1.454-1.453-1.454-.809 0-1.465.645-1.465 1.454 0 .796.656 1.453 1.465 1.453zm1.265 14.32v-12.328h-2.53V120h2.53zm7.22.234c2.905 0 5.003-1.546 5.003-3.796 0-1.782-.961-2.766-3.48-3.352l-2.004-.457c-1.336-.305-1.899-.832-1.899-1.606 0-.984.914-1.652 2.285-1.652 1.418 0 2.297.75 2.438 1.945h2.379c-.082-2.273-1.946-3.867-4.817-3.867-2.836 0-4.758 1.512-4.758 3.715 0 1.793 1.16 2.918 3.504 3.457l2.004.469c1.348.305 1.805.773 1.805 1.57 0 1.008-.938 1.64-2.46 1.64-1.548 0-2.427-.632-2.661-1.921h-2.508c.234 2.344 2.086 3.855 5.168 3.855zm12.222 0c2.824 0 4.957-1.605 5.308-3.855h-2.402c-.34 1.078-1.406 1.805-2.848 1.805-2.027 0-3.316-1.418-3.316-3.563v-.152h8.707v-.867c0-3.739-2.133-6.153-5.555-6.153-3.48 0-5.707 2.578-5.707 6.446 0 3.89 2.192 6.34 5.813 6.34zm2.918-7.535h-6.164c.129-1.863 1.37-3.21 3.14-3.21s2.965 1.323 3.024 3.21z"/><path fill="#8A2542" fill-opacity=".832" d="M0 0h164l30 80-30 80H0V80z"/><path fill="#FFF" fill-rule="nonzero" d="M86.678 56V39.09h-2.59l-4.453 3.164v2.484l4.418-3.047h.058V56h2.567zM28.43 88l6.035-16.91h-2.8l-4.618 13.957h-.07L22.37 71.09h-2.848L25.56 88h2.87zm11.86.223c1.886 0 3.14-.832 3.82-2.309h.058V88h2.426V75.672h-2.532v7.183c0 1.922-1.101 3.188-2.93 3.188-1.745 0-2.636-1.008-2.636-2.883v-7.488h-2.531v7.98c0 2.825 1.64 4.57 4.324 4.57zM51.714 88V71.09h-2.531V88h2.53zm5.133 0v-7.184c0-1.91 1.148-3.175 2.93-3.175 1.757 0 2.624 1.02 2.624 2.87V88h2.543v-7.98c0-2.825-1.558-4.56-4.277-4.56-1.898 0-3.211.868-3.879 2.274h-.059v-2.062h-2.414V88h2.532zm16.629-14.063l2.707-3.574h-2.555l-2.004 3.575h1.852zm-.832 14.297c2.824 0 4.957-1.605 5.308-3.855h-2.402c-.34 1.078-1.406 1.805-2.848 1.805-2.027 0-3.316-1.418-3.316-3.563v-.152h8.707v-.867c0-3.739-2.133-6.153-5.555-6.153-3.48 0-5.707 2.578-5.707 6.446 0 3.89 2.191 6.34 5.813 6.34zm2.918-7.535h-6.165c.13-1.863 1.372-3.21 3.141-3.21 1.77 0 2.965 1.323 3.023 3.21zM82.582 88v-7.383c0-1.746 1.008-2.836 2.637-2.836.492 0 .937.059 1.136.14v-2.355a4.619 4.619 0 00-.867-.093c-1.453 0-2.554.855-2.965 2.297h-.058v-2.098H80.05V88h2.531zm8.953.21c1.617 0 3.176-.866 3.89-2.237h.06V88h2.425v-8.496c0-2.473-1.91-4.055-4.898-4.055-3.047 0-4.946 1.64-5.086 3.867h2.39c.223-1.101 1.137-1.804 2.602-1.804 1.547 0 2.473.82 2.473 2.191v.95l-3.375.199c-2.93.164-4.582 1.488-4.582 3.644 0 2.215 1.687 3.715 4.101 3.715zm.703-2.003c-1.36 0-2.25-.703-2.25-1.781 0-1.055.856-1.723 2.367-1.828l3.036-.188v.973c0 1.605-1.383 2.824-3.153 2.824zm14.684 2.004c3.129 0 5.144-2.461 5.144-6.375 0-3.902-2.027-6.363-5.132-6.363-1.746 0-3.153.867-3.891 2.297h-.059v-6.68h-2.53V88h2.46v-2.098h.047c.762 1.43 2.156 2.309 3.96 2.309zm-.68-2.145c-1.922 0-3.27-1.664-3.27-4.23 0-2.543 1.348-4.23 3.27-4.23 1.992 0 3.223 1.64 3.223 4.23 0 2.613-1.23 4.23-3.223 4.23zm9.14-12.386c.81 0 1.454-.657 1.454-1.453 0-.809-.645-1.454-1.453-1.454-.809 0-1.465.645-1.465 1.454 0 .796.656 1.453 1.465 1.453zM116.649 88V75.672h-2.53V88h2.53zm5.215 0V71.09h-2.531V88h2.531zm3.95-14.32c.808 0 1.453-.657 1.453-1.453 0-.809-.645-1.454-1.454-1.454-.808 0-1.464.645-1.464 1.454 0 .796.656 1.453 1.465 1.453zM127.078 88V75.672h-2.531V88h2.531zm6.797.082c.563 0 1.125-.047 1.406-.117V85.96c-.164.035-.574.059-.832.059-1.031 0-1.5-.48-1.5-1.547v-6.797h2.344v-2.004h-2.344v-2.918h-2.543v2.918h-1.793v2.004h1.793v7.078c0 2.379.973 3.328 3.469 3.328zm9.586-14.144l2.707-3.575h-2.555l-2.004 3.575h1.852zm-.832 14.296c2.824 0 4.957-1.605 5.309-3.855h-2.403c-.34 1.078-1.406 1.805-2.847 1.805-2.028 0-3.317-1.418-3.317-3.563v-.152h8.707v-.867c0-3.739-2.133-6.153-5.555-6.153-3.48 0-5.707 2.578-5.707 6.446 0 3.89 2.192 6.34 5.813 6.34zm2.918-7.535h-6.164c.129-1.863 1.37-3.21 3.14-3.21s2.965 1.323 3.024 3.21zM38.783 105.68c.809 0 1.453-.656 1.453-1.452 0-.809-.644-1.454-1.453-1.454-.808 0-1.465.645-1.465 1.454 0 .796.657 1.453 1.465 1.453zM40.05 120v-12.328h-2.531V120h2.53zm5.12 0v-7.184c0-1.91 1.15-3.175 2.93-3.175 1.758 0 2.626 1.02 2.626 2.87V120h2.543v-7.98c0-2.825-1.559-4.56-4.278-4.56-1.898 0-3.21.868-3.879 2.274h-.058v-2.062h-2.414V120h2.53zm15.81.234c2.964 0 5.062-1.78 5.332-4.406h-2.438c-.293 1.43-1.312 2.285-2.871 2.285-1.969 0-3.27-1.57-3.27-4.277 0-2.648 1.29-4.277 3.247-4.277 1.652 0 2.636 1.043 2.894 2.355h2.414c-.223-2.426-2.156-4.465-5.332-4.465-3.504 0-5.8 2.473-5.8 6.387 0 3.984 2.296 6.398 5.824 6.398zm12.421 0c3.528 0 5.848-2.425 5.848-6.398 0-3.961-2.332-6.387-5.848-6.387-3.515 0-5.847 2.426-5.847 6.387 0 3.973 2.32 6.398 5.847 6.398zm0-2.086c-1.98 0-3.27-1.57-3.27-4.312 0-2.73 1.29-4.3 3.27-4.3s3.27 1.57 3.27 4.3c0 2.742-1.277 4.312-3.27 4.312zM83.736 120v-7.184c0-1.91 1.149-3.175 2.93-3.175 1.758 0 2.625 1.02 2.625 2.87V120h2.543v-7.98c0-2.825-1.559-4.56-4.277-4.56-1.899 0-3.211.868-3.88 2.274h-.058v-2.062h-2.414V120h2.531zm13.067 0v-7.184c0-1.91 1.148-3.175 2.93-3.175 1.757 0 2.624 1.02 2.624 2.87V120h2.543v-7.98c0-2.825-1.558-4.56-4.277-4.56-1.898 0-3.21.868-3.879 2.274h-.058v-2.062H94.27V120h2.532zm14.8.223c1.887 0 3.141-.832 3.82-2.309h.06V120h2.425v-12.328h-2.531v7.183c0 1.922-1.102 3.188-2.93 3.188-1.746 0-2.636-1.008-2.636-2.883v-7.488h-2.532v7.98c0 2.825 1.64 4.57 4.325 4.57zm14.063.011c2.824 0 4.957-1.605 5.309-3.855h-2.403c-.34 1.078-1.406 1.805-2.847 1.805-2.028 0-3.317-1.418-3.317-3.563v-.152h8.707v-.867c0-3.739-2.133-6.153-5.554-6.153-3.48 0-5.707 2.578-5.707 6.446 0 3.89 2.19 6.34 5.812 6.34zm2.918-7.535h-6.164c.129-1.863 1.371-3.21 3.14-3.21 1.77 0 2.965 1.323 3.024 3.21z"/></g></svg>