<svg xmlns="http://www.w3.org/2000/svg" width="1096" height="160"><g fill="none" fill-rule="evenodd"><path fill="#81B740" d="M718 0h348l30 80-30 80H718l30-80z"/><path fill="#FFF" fill-rule="nonzero" d="M911.43 56v-3.363h2.332v-2.203h-2.332V39.09h-3.797c-3.797 5.508-5.73 8.543-7.184 11.262v2.285h8.461V56h2.52zm-2.496-5.531h-6.047v-.07c1.347-2.403 3.07-5.075 6-9.27h.047v9.34zM852.784 88l1.546-4.57h6.445l1.547 4.57h2.778l-6.106-16.91h-2.836L850.053 88h2.73zm7.323-6.68h-5.109l2.52-7.418h.07l2.52 7.418zm11.18 6.89c1.793 0 3.2-.901 3.926-2.308h.047V88h2.46V71.09h-2.542v6.633h-.047c-.692-1.36-2.098-2.25-3.867-2.25-3.094 0-5.157 2.472-5.157 6.363 0 3.89 2.063 6.375 5.18 6.375zm.668-2.144c-2.004 0-3.258-1.629-3.258-4.23 0-2.59 1.254-4.23 3.258-4.23 1.945 0 3.246 1.675 3.246 4.23 0 2.578-1.3 4.23-3.246 4.23zm11.965 2.145c1.617 0 3.176-.867 3.89-2.238h.06V88h2.425v-8.496c0-2.473-1.91-4.055-4.899-4.055-3.046 0-4.945 1.64-5.085 3.867h2.39c.223-1.101 1.137-1.804 2.602-1.804 1.547 0 2.472.82 2.472 2.191v.95l-3.375.199c-2.93.164-4.582 1.488-4.582 3.644 0 2.215 1.688 3.715 4.102 3.715zm.703-2.004c-1.36 0-2.25-.703-2.25-1.781 0-1.055.856-1.723 2.367-1.828l3.035-.188v.973c0 1.605-1.382 2.824-3.152 2.824zm10.652 5.871v-6.105h.059c.703 1.37 2.11 2.238 3.879 2.238 3.094 0 5.144-2.473 5.144-6.375s-2.062-6.363-5.191-6.363c-1.781 0-3.2.902-3.926 2.32h-.047v-2.121h-2.449v16.406h2.531zm3.223-6.012c-1.945 0-3.234-1.664-3.234-4.23 0-2.543 1.3-4.23 3.234-4.23 2.004 0 3.258 1.652 3.258 4.23 0 2.59-1.254 4.23-3.258 4.23zm12.012 2.016c.562 0 1.125-.047 1.406-.117V85.96c-.164.035-.574.059-.832.059-1.031 0-1.5-.48-1.5-1.547v-6.797h2.344v-2.004h-2.344v-2.918h-2.543v2.918h-1.793v2.004h1.793v7.078c0 2.379.973 3.328 3.469 3.328zm7.101.129c1.618 0 3.176-.867 3.891-2.238h.059V88h2.425v-8.496c0-2.473-1.91-4.055-4.898-4.055-3.047 0-4.945 1.64-5.086 3.867h2.39c.223-1.101 1.137-1.804 2.602-1.804 1.547 0 2.473.82 2.473 2.191v.95l-3.375.199c-2.93.164-4.582 1.488-4.582 3.644 0 2.215 1.687 3.715 4.101 3.715zm.703-2.004c-1.359 0-2.25-.703-2.25-1.781 0-1.055.856-1.723 2.368-1.828l3.035-.188v.973c0 1.605-1.383 2.824-3.153 2.824zm12.329 1.875c.562 0 1.125-.047 1.406-.117V85.96c-.164.035-.574.059-.832.059-1.031 0-1.5-.48-1.5-1.547v-6.797h2.344v-2.004h-2.344v-2.918h-2.543v2.918h-1.793v2.004h1.793v7.078c0 2.379.972 3.328 3.469 3.328zm4.84-14.402c.808 0 1.453-.657 1.453-1.453 0-.809-.645-1.454-1.454-1.454-.808 0-1.464.645-1.464 1.454 0 .796.656 1.453 1.464 1.453zM936.747 88V75.672h-2.531V88h2.531zm7.887.234c3.527 0 5.847-2.425 5.847-6.398 0-3.961-2.332-6.387-5.847-6.387-3.516 0-5.848 2.426-5.848 6.387 0 3.973 2.32 6.398 5.848 6.398zm0-2.086c-1.98 0-3.27-1.57-3.27-4.312 0-2.73 1.29-4.3 3.27-4.3s3.27 1.57 3.27 4.3c0 2.742-1.278 4.312-3.27 4.312zM954.97 88v-7.184c0-1.91 1.148-3.175 2.93-3.175 1.757 0 2.624 1.02 2.624 2.87V88h2.543v-7.98c0-2.825-1.558-4.56-4.277-4.56-1.898 0-3.21.868-3.879 2.274h-.058v-2.062h-2.415V88h2.532zm-66.328 36.078v-6.105h.058c.703 1.37 2.11 2.238 3.88 2.238 3.093 0 5.144-2.473 5.144-6.375s-2.063-6.363-5.192-6.363c-1.781 0-3.199.902-3.926 2.32h-.046v-2.121h-2.45v16.406h2.532zm3.222-6.012c-1.945 0-3.234-1.664-3.234-4.23 0-2.543 1.3-4.23 3.234-4.23 2.004 0 3.258 1.652 3.258 4.23 0 2.59-1.254 4.23-3.258 4.23zm10.43 1.934v-16.91h-2.531V120h2.53zm6.21.21c1.618 0 3.177-.866 3.891-2.237h.06V120h2.425v-8.496c0-2.473-1.91-4.055-4.899-4.055-3.046 0-4.945 1.64-5.086 3.867h2.391c.223-1.101 1.137-1.804 2.602-1.804 1.547 0 2.472.82 2.472 2.191v.95l-3.375.199c-2.93.164-4.582 1.488-4.582 3.644 0 2.215 1.688 3.715 4.102 3.715zm.704-2.003c-1.36 0-2.25-.703-2.25-1.781 0-1.055.855-1.723 2.367-1.828l3.035-.188v.973c0 1.605-1.382 2.824-3.152 2.824zM919.861 120v-7.184c0-1.91 1.149-3.175 2.93-3.175 1.758 0 2.625 1.02 2.625 2.87V120h2.543v-7.98c0-2.825-1.559-4.56-4.277-4.56-1.899 0-3.211.868-3.88 2.274h-.058v-2.062h-2.414V120h2.531z"/><path fill="#DCC31C" d="M401 0h308.088L739 80l-29.912 80H401l29.912-80z"/><path fill="#FFF" fill-rule="nonzero" d="M579.425 56.316c3.527 0 6.129-2.027 6.129-5.004 0-2.367-1.664-3.878-4.148-4.101v-.059c2.074-.433 3.562-1.851 3.562-3.972 0-2.52-2.121-4.407-5.566-4.407-3.305 0-5.614 1.887-5.825 4.84h2.461c.13-1.687 1.489-2.683 3.364-2.683 1.992 0 3.011 1.03 3.011 2.613 0 1.582-1.312 2.719-3.246 2.719h-1.98V48.3h2.05c2.262 0 3.657 1.078 3.645 3.011-.012 1.641-1.394 2.813-3.457 2.813-2.121 0-3.562-1.066-3.691-2.719h-2.52c.164 2.907 2.59 4.91 6.211 4.91zM525.255 88l1.547-4.57h6.445l1.547 4.57h2.778l-6.106-16.91h-2.836L522.525 88h2.73zm7.324-6.68h-5.109l2.52-7.418h.07l2.52 7.418zm11.18 6.89c1.793 0 3.2-.901 3.926-2.308h.047V88h2.46V71.09h-2.542v6.633h-.047c-.692-1.36-2.098-2.25-3.867-2.25-3.094 0-5.157 2.472-5.157 6.363 0 3.89 2.063 6.375 5.18 6.375zm.668-2.144c-2.004 0-3.258-1.629-3.258-4.23 0-2.59 1.254-4.23 3.258-4.23 1.945 0 3.246 1.675 3.246 4.23 0 2.578-1.3 4.23-3.246 4.23zm11.965 2.145c1.617 0 3.176-.867 3.89-2.238h.06V88h2.425v-8.496c0-2.473-1.91-4.055-4.899-4.055-3.046 0-4.945 1.64-5.085 3.867h2.39c.223-1.101 1.137-1.804 2.602-1.804 1.547 0 2.472.82 2.472 2.191v.95l-3.375.199c-2.93.164-4.582 1.488-4.582 3.644 0 2.215 1.688 3.715 4.102 3.715zm.703-2.004c-1.36 0-2.25-.703-2.25-1.781 0-1.055.855-1.723 2.367-1.828l3.035-.188v.973c0 1.605-1.382 2.824-3.152 2.824zm10.652 5.871v-6.105h.059c.703 1.37 2.11 2.238 3.879 2.238 3.094 0 5.144-2.473 5.144-6.375s-2.062-6.363-5.191-6.363c-1.781 0-3.2.902-3.926 2.32h-.047v-2.121h-2.449v16.406h2.531zm3.223-6.012c-1.945 0-3.234-1.664-3.234-4.23 0-2.543 1.3-4.23 3.234-4.23 2.004 0 3.258 1.652 3.258 4.23 0 2.59-1.254 4.23-3.258 4.23zm12.012 2.016c.562 0 1.125-.047 1.406-.117V85.96c-.164.035-.574.059-.832.059-1.031 0-1.5-.48-1.5-1.547v-6.797h2.344v-2.004h-2.344v-2.918h-2.543v2.918h-1.793v2.004h1.793v7.078c0 2.379.973 3.328 3.469 3.328zm7.101.129c1.617 0 3.176-.867 3.89-2.238h.06V88h2.425v-8.496c0-2.473-1.91-4.055-4.898-4.055-3.047 0-4.945 1.64-5.086 3.867h2.39c.223-1.101 1.137-1.804 2.602-1.804 1.547 0 2.473.82 2.473 2.191v.95l-3.375.199c-2.93.164-4.582 1.488-4.582 3.644 0 2.215 1.687 3.715 4.101 3.715zm.703-2.004c-1.359 0-2.25-.703-2.25-1.781 0-1.055.856-1.723 2.368-1.828l3.035-.188v.973c0 1.605-1.383 2.824-3.153 2.824zm12.329 1.875c.562 0 1.125-.047 1.406-.117V85.96c-.164.035-.574.059-.832.059-1.031 0-1.5-.48-1.5-1.547v-6.797h2.344v-2.004h-2.344v-2.918h-2.543v2.918h-1.793v2.004h1.793v7.078c0 2.379.972 3.328 3.469 3.328zm4.84-14.402c.808 0 1.453-.657 1.453-1.453 0-.809-.645-1.454-1.454-1.454-.808 0-1.464.645-1.464 1.454 0 .796.656 1.453 1.464 1.453zM609.22 88V75.672h-2.531V88h2.531zm7.887.234c3.527 0 5.847-2.425 5.847-6.398 0-3.961-2.332-6.387-5.847-6.387-3.516 0-5.848 2.426-5.848 6.387 0 3.973 2.32 6.398 5.848 6.398zm0-2.086c-1.98 0-3.27-1.57-3.27-4.312 0-2.73 1.29-4.3 3.27-4.3s3.27 1.57 3.27 4.3c0 2.742-1.278 4.312-3.27 4.312zM627.443 88v-7.184c0-1.91 1.148-3.175 2.93-3.175 1.757 0 2.624 1.02 2.624 2.87V88h2.543v-7.98c0-2.825-1.558-4.56-4.277-4.56-1.898 0-3.21.868-3.879 2.274h-.059v-2.062h-2.414V88h2.532zM554.3 105.68c.809 0 1.453-.657 1.453-1.453 0-.809-.644-1.454-1.453-1.454-.808 0-1.465.645-1.465 1.454 0 .796.657 1.453 1.465 1.453zm1.266 14.32v-12.328h-2.532V120h2.532zm7.218.21c1.793 0 3.2-.901 3.926-2.308h.047V120h2.461v-16.91h-2.543v6.633h-.047c-.691-1.36-2.097-2.25-3.867-2.25-3.094 0-5.156 2.472-5.156 6.363 0 3.89 2.062 6.375 5.18 6.375zm.668-2.144c-2.003 0-3.257-1.629-3.257-4.23 0-2.59 1.254-4.23 3.257-4.23 1.946 0 3.247 1.675 3.247 4.23 0 2.578-1.301 4.23-3.247 4.23zm13.618 2.168c2.824 0 4.957-1.605 5.308-3.855h-2.402c-.34 1.078-1.406 1.805-2.848 1.805-2.027 0-3.316-1.418-3.316-3.563v-.152h8.707v-.867c0-3.739-2.133-6.153-5.555-6.153-3.48 0-5.707 2.578-5.707 6.446 0 3.89 2.192 6.34 5.813 6.34zm2.918-7.535h-6.164c.128-1.863 1.37-3.21 3.14-3.21s2.965 1.323 3.024 3.21zm8.097 7.512c1.617 0 3.176-.867 3.89-2.238h.06V120h2.425v-8.496c0-2.473-1.91-4.055-4.898-4.055-3.047 0-4.945 1.64-5.086 3.867h2.39c.223-1.101 1.137-1.804 2.602-1.804 1.547 0 2.473.82 2.473 2.191v.95l-3.375.199c-2.93.164-4.582 1.488-4.582 3.644 0 2.215 1.687 3.715 4.101 3.715zm.703-2.004c-1.359 0-2.25-.703-2.25-1.781 0-1.055.856-1.723 2.368-1.828l3.035-.188v.973c0 1.605-1.383 2.824-3.153 2.824zm12.75 2.027c2.907 0 5.004-1.546 5.004-3.796 0-1.782-.96-2.766-3.48-3.352l-2.004-.457c-1.336-.305-1.899-.832-1.899-1.606 0-.984.915-1.652 2.286-1.652 1.418 0 2.297.75 2.437 1.945h2.379c-.082-2.273-1.945-3.867-4.816-3.867-2.836 0-4.758 1.512-4.758 3.715 0 1.793 1.16 2.918 3.504 3.457l2.004.469c1.347.305 1.804.773 1.804 1.57 0 1.008-.937 1.64-2.46 1.64-1.547 0-2.426-.632-2.66-1.921h-2.509c.235 2.344 2.086 3.855 5.168 3.855z"/><path fill="#D2981C" d="M172 0h221.085L423 80l-29.915 80H172l30-80z"/><path fill="#FFF" fill-rule="nonzero" d="M305.828 56v-2.215h-8.05v-.058l3.843-3.856c3.023-3.023 3.937-4.371 3.937-6.316 0-2.66-2.238-4.782-5.554-4.782-3.399 0-5.883 2.227-5.883 5.297h2.484c0-1.804 1.465-3.129 3.399-3.129 1.793 0 2.965 1.22 2.965 2.778 0 1.324-.516 2.191-2.743 4.465l-5.964 6.011V56h11.566zM244.58 88l6.035-16.91h-2.8l-4.618 13.957h-.07L238.52 71.09h-2.847L241.709 88h2.87zm11.86.223c1.886 0 3.14-.832 3.82-2.309h.058V88h2.426V75.672h-2.531v7.183c0 1.922-1.102 3.188-2.93 3.188-1.746 0-2.637-1.008-2.637-2.883v-7.488h-2.53v7.98c0 2.825 1.64 4.57 4.323 4.57zM267.864 88V71.09h-2.531V88h2.531zm5.133 0v-7.184c0-1.91 1.148-3.175 2.93-3.175 1.757 0 2.625 1.02 2.625 2.87V88h2.543v-7.98c0-2.825-1.559-4.56-4.278-4.56-1.898 0-3.21.868-3.879 2.274h-.058v-2.062h-2.414V88h2.53zm15.797.234c2.824 0 4.957-1.605 5.308-3.855h-2.402c-.34 1.078-1.406 1.805-2.848 1.805-2.027 0-3.316-1.418-3.316-3.563v-.152h8.707v-.867c0-3.739-2.133-6.153-5.555-6.153-3.48 0-5.707 2.578-5.707 6.446 0 3.89 2.192 6.34 5.813 6.34zm2.918-7.535h-6.164c.129-1.863 1.37-3.21 3.14-3.21s2.965 1.323 3.024 3.21zm7.02 7.301v-7.383c0-1.746 1.007-2.836 2.636-2.836.492 0 .938.059 1.137.14v-2.355a4.618 4.618 0 00-.867-.093c-1.454 0-2.555.855-2.965 2.297h-.059v-2.098h-2.414V88h2.531zm8.952.21c1.618 0 3.176-.866 3.891-2.237h.059V88h2.425v-8.496c0-2.473-1.91-4.055-4.898-4.055-3.047 0-4.945 1.64-5.086 3.867h2.39c.223-1.101 1.137-1.804 2.602-1.804 1.547 0 2.473.82 2.473 2.191v.95l-3.375.199c-2.93.164-4.582 1.488-4.582 3.644 0 2.215 1.687 3.715 4.101 3.715zm.704-2.003c-1.36 0-2.25-.703-2.25-1.781 0-1.055.855-1.723 2.367-1.828l3.035-.188v.973c0 1.605-1.383 2.824-3.152 2.824zm14.683 2.004c3.129 0 5.145-2.461 5.145-6.375 0-3.902-2.028-6.363-5.133-6.363-1.746 0-3.152.867-3.89 2.297h-.06v-6.68h-2.53V88h2.46v-2.098h.047c.762 1.43 2.156 2.309 3.961 2.309zm-.68-2.145c-1.921 0-3.27-1.664-3.27-4.23 0-2.543 1.349-4.23 3.27-4.23 1.993 0 3.223 1.64 3.223 4.23 0 2.613-1.23 4.23-3.223 4.23zm9.141-12.386c.809 0 1.453-.657 1.453-1.453 0-.809-.644-1.454-1.453-1.454s-1.465.645-1.465 1.454c0 .796.656 1.453 1.465 1.453zM332.8 88V75.672h-2.532V88h2.532zm5.215 0V71.09h-2.532V88h2.532zm3.949-14.32c.808 0 1.453-.657 1.453-1.453 0-.809-.645-1.454-1.453-1.454-.809 0-1.465.645-1.465 1.454 0 .796.656 1.453 1.465 1.453zM343.228 88V75.672h-2.53V88h2.53zm6.797.082c.563 0 1.125-.047 1.407-.117V85.96c-.165.035-.575.059-.833.059-1.03 0-1.5-.48-1.5-1.547v-6.797h2.344v-2.004H349.1v-2.918h-2.542v2.918h-1.793v2.004h1.793v7.078c0 2.379.972 3.328 3.468 3.328zm4.723 4.512c2.555 0 3.773-.961 4.828-3.95l4.617-12.972h-2.672l-3.117 10.031h-.047l-3.117-10.031h-2.742l4.453 12.34c0 .011-.223.738-.223.761-.386 1.266-1.02 1.758-2.191 1.758-.211 0-.633 0-.82-.047v2.051c.187.035.82.059 1.03.059zm-109.066 27.629c1.886 0 3.14-.832 3.82-2.309h.058V120h2.426v-12.328h-2.531v7.183c0 1.922-1.102 3.188-2.93 3.188-1.746 0-2.636-1.008-2.636-2.883v-7.488h-2.532v7.98c0 2.825 1.64 4.57 4.325 4.57zm11.332-.223v-7.184c0-1.91 1.148-3.175 2.93-3.175 1.757 0 2.624 1.02 2.624 2.87V120h2.543v-7.98c0-2.825-1.558-4.56-4.277-4.56-1.899 0-3.211.868-3.88 2.274h-.058v-2.062h-2.414V120h2.532zm15.164.21c1.793 0 3.199-.901 3.925-2.308h.047V120h2.461v-16.91h-2.543v6.633h-.047c-.691-1.36-2.097-2.25-3.867-2.25-3.094 0-5.156 2.472-5.156 6.363 0 3.89 2.062 6.375 5.18 6.375zm.668-2.144c-2.004 0-3.258-1.629-3.258-4.23 0-2.59 1.254-4.23 3.258-4.23 1.945 0 3.246 1.675 3.246 4.23 0 2.578-1.301 4.23-3.246 4.23zm13.617 2.168c2.824 0 4.957-1.605 5.308-3.855h-2.402c-.34 1.078-1.406 1.805-2.848 1.805-2.027 0-3.316-1.418-3.316-3.563v-.152h8.707v-.867c0-3.739-2.133-6.153-5.555-6.153-3.48 0-5.707 2.578-5.707 6.446 0 3.89 2.192 6.34 5.813 6.34zm2.918-7.535h-6.164c.129-1.863 1.37-3.21 3.14-3.21s2.965 1.323 3.024 3.21zM296.4 120v-7.383c0-1.746 1.007-2.836 2.636-2.836.492 0 .937.059 1.137.14v-2.355a4.619 4.619 0 00-.867-.093c-1.454 0-2.555.855-2.965 2.297h-.059v-2.098h-2.414V120h2.531zm9.972.234c2.906 0 5.004-1.546 5.004-3.796 0-1.782-.961-2.766-3.48-3.352l-2.005-.457c-1.335-.305-1.898-.832-1.898-1.606 0-.984.914-1.652 2.285-1.652 1.418 0 2.297.75 2.438 1.945h2.379c-.082-2.273-1.946-3.867-4.817-3.867-2.836 0-4.758 1.512-4.758 3.715 0 1.793 1.16 2.918 3.504 3.457l2.004.469c1.348.305 1.805.773 1.805 1.57 0 1.008-.938 1.64-2.461 1.64-1.547 0-2.426-.632-2.66-1.921h-2.508c.234 2.344 2.086 3.855 5.168 3.855zm11.168-.152c.562 0 1.125-.047 1.406-.117v-2.004c-.164.035-.574.059-.832.059-1.031 0-1.5-.48-1.5-1.547v-6.797h2.344v-2.004h-2.344v-2.918h-2.543v2.918h-1.793v2.004h1.793v7.078c0 2.379.973 3.328 3.469 3.328zm8.789.152c3.527 0 5.848-2.425 5.848-6.398 0-3.961-2.332-6.387-5.848-6.387s-5.848 2.426-5.848 6.387c0 3.973 2.32 6.398 5.848 6.398zm0-2.086c-1.98 0-3.27-1.57-3.27-4.312 0-2.73 1.29-4.3 3.27-4.3s3.27 1.57 3.27 4.3c0 2.742-1.278 4.312-3.27 4.312zm13.102 2.086c3.527 0 5.847-2.425 5.847-6.398 0-3.961-2.332-6.387-5.847-6.387-3.516 0-5.848 2.426-5.848 6.387 0 3.973 2.32 6.398 5.848 6.398zm0-2.086c-1.981 0-3.27-1.57-3.27-4.312 0-2.73 1.289-4.3 3.27-4.3 1.98 0 3.269 1.57 3.269 4.3 0 2.742-1.277 4.312-3.27 4.312zm12.433 2.063c1.793 0 3.2-.902 3.926-2.309h.047V120h2.46v-16.91h-2.542v6.633h-.047c-.692-1.36-2.098-2.25-3.867-2.25-3.094 0-5.157 2.472-5.157 6.363 0 3.89 2.063 6.375 5.18 6.375zm.668-2.145c-2.004 0-3.258-1.629-3.258-4.23 0-2.59 1.254-4.23 3.258-4.23 1.945 0 3.246 1.675 3.246 4.23 0 2.578-1.3 4.23-3.246 4.23z"/><path fill="#8A2542" fill-opacity=".832" d="M0 0h164l30 80-30 80H0V80z"/><path fill="#FFF" fill-rule="nonzero" d="M86.678 56V39.09h-2.59l-4.453 3.164v2.484l4.418-3.047h.058V56h2.567zM28.682 88l6.035-16.91h-2.801l-4.617 13.957h-.07L22.623 71.09h-2.848L25.811 88h2.87zm11.859.223c1.887 0 3.14-.832 3.82-2.309h.059V88h2.426V75.672h-2.532v7.183c0 1.922-1.101 3.188-2.93 3.188-1.745 0-2.636-1.008-2.636-2.883v-7.488h-2.531v7.98c0 2.825 1.64 4.57 4.324 4.57zM51.967 88V71.09h-2.531V88h2.53zm5.133 0v-7.184c0-1.91 1.148-3.175 2.93-3.175 1.757 0 2.624 1.02 2.624 2.87V88h2.543v-7.98c0-2.825-1.558-4.56-4.277-4.56-1.899 0-3.211.868-3.879 2.274h-.059v-2.062h-2.414V88H57.1zm15.796.234c2.825 0 4.958-1.605 5.31-3.855h-2.403c-.34 1.078-1.407 1.805-2.848 1.805-2.027 0-3.316-1.418-3.316-3.563v-.152h8.707v-.867c0-3.739-2.133-6.153-5.555-6.153-3.48 0-5.707 2.578-5.707 6.446 0 3.89 2.191 6.34 5.812 6.34zm2.918-7.535H69.65c.13-1.863 1.371-3.21 3.141-3.21s2.965 1.323 3.023 3.21zM82.834 88v-7.383c0-1.746 1.008-2.836 2.637-2.836.492 0 .937.059 1.136.14v-2.355a4.619 4.619 0 00-.867-.093c-1.453 0-2.554.855-2.965 2.297h-.058v-2.098h-2.414V88h2.531zm8.953.21c1.617 0 3.176-.866 3.89-2.237h.06V88h2.425v-8.496c0-2.473-1.91-4.055-4.898-4.055-3.047 0-4.946 1.64-5.086 3.867h2.39c.223-1.101 1.137-1.804 2.602-1.804 1.547 0 2.473.82 2.473 2.191v.95l-3.375.199c-2.93.164-4.582 1.488-4.582 3.644 0 2.215 1.687 3.715 4.101 3.715zm.703-2.003c-1.36 0-2.25-.703-2.25-1.781 0-1.055.856-1.723 2.367-1.828l3.036-.188v.973c0 1.605-1.383 2.824-3.153 2.824zm14.684 2.004c3.129 0 5.144-2.461 5.144-6.375 0-3.902-2.027-6.363-5.132-6.363-1.747 0-3.153.867-3.891 2.297h-.059v-6.68h-2.53V88h2.46v-2.098h.047c.762 1.43 2.156 2.309 3.96 2.309zm-.68-2.145c-1.922 0-3.27-1.664-3.27-4.23 0-2.543 1.348-4.23 3.27-4.23 1.992 0 3.223 1.64 3.223 4.23 0 2.613-1.23 4.23-3.223 4.23zm9.14-12.386c.81 0 1.454-.657 1.454-1.453 0-.809-.645-1.454-1.453-1.454-.809 0-1.465.645-1.465 1.454 0 .796.656 1.453 1.465 1.453zM116.9 88V75.672h-2.53V88h2.53zm5.215 0V71.09h-2.531V88h2.531zm3.95-14.32c.808 0 1.453-.657 1.453-1.453 0-.809-.645-1.454-1.454-1.454-.808 0-1.464.645-1.464 1.454 0 .796.656 1.453 1.464 1.453zM127.33 88V75.672H124.8V88h2.531zm6.797.082c.562 0 1.125-.047 1.406-.117V85.96c-.164.035-.574.059-.832.059-1.031 0-1.5-.48-1.5-1.547v-6.797h2.344v-2.004H133.2v-2.918h-2.543v2.918h-1.793v2.004h1.793v7.078c0 2.379.973 3.328 3.469 3.328zm4.723 4.512c2.554 0 3.773-.961 4.828-3.95l4.617-12.972h-2.672l-3.117 10.031h-.047l-3.117-10.031H136.6l4.453 12.34c0 .011-.223.738-.223.761-.387 1.266-1.02 1.758-2.191 1.758-.211 0-.633 0-.82-.047v2.051c.187.035.82.059 1.03.059zm-96.973 27.629c1.887 0 3.14-.832 3.82-2.309h.059V120h2.426v-12.328H45.65v7.183c0 1.922-1.101 3.188-2.93 3.188-1.745 0-2.636-1.008-2.636-2.883v-7.488h-2.531v7.98c0 2.825 1.64 4.57 4.324 4.57zM53.209 120v-7.184c0-1.91 1.148-3.175 2.93-3.175 1.757 0 2.625 1.02 2.625 2.87V120h2.543v-7.98c0-2.825-1.559-4.56-4.278-4.56-1.898 0-3.21.868-3.879 2.274h-.058v-2.062h-2.414V120h2.531zm13.16 0v-4.43l1.055-1.043L71.607 120h2.942l-5.309-7.02 5.11-5.308h-2.977l-4.98 5.285h-.024v-9.867h-2.531V120h2.531zm12.012 0v-7.184c0-1.91 1.148-3.175 2.93-3.175 1.757 0 2.625 1.02 2.625 2.87V120h2.543v-7.98c0-2.825-1.56-4.56-4.278-4.56-1.898 0-3.21.868-3.879 2.274h-.058v-2.062H75.85V120h2.53zm15.832.234c3.527 0 5.848-2.425 5.848-6.398 0-3.961-2.332-6.387-5.848-6.387s-5.848 2.426-5.848 6.387c0 3.973 2.32 6.398 5.848 6.398zm0-2.086c-1.98 0-3.27-1.57-3.27-4.312 0-2.73 1.29-4.3 3.27-4.3s3.27 1.57 3.27 4.3c0 2.742-1.278 4.312-3.27 4.312zM107.057 120l2.566-9.234h.059l2.59 9.234h2.636l3.375-12.328h-2.508l-2.25 9.703h-.058l-2.578-9.703h-2.438l-2.566 9.703h-.047l-2.25-9.703h-2.531L104.443 120h2.614zm15.304 0v-7.184c0-1.91 1.149-3.175 2.93-3.175 1.758 0 2.625 1.02 2.625 2.87V120h2.543v-7.98c0-2.825-1.559-4.56-4.277-4.56-1.899 0-3.211.868-3.88 2.274h-.058v-2.062h-2.414V120h2.531z"/></g></svg>