<svg xmlns="http://www.w3.org/2000/svg" width="1923" height="5224"><g fill="none" fill-rule="evenodd" opacity=".149"><path fill="#8ACED4" d="M898.233 0C-429.35 0-1524.833 990.703-1691 2272.912c410.947-367.227 916.071-630.833 1474.395-751.658 323.789-471.073 866.266-780.18 1481.13-780.18 992.08 0 1796.374 804.232 1796.374 1796.236 0 62.082-3.17 123.428-9.339 183.868 140.7 183.529 262.438 382.394 361.878 593.822 62.483-223.879 96.61-459.585 96.61-703.384C3510.049 1169.25 2340.709 0 898.234 0"/><path fill="#E1A22E" d="M1339.28 805c-541.988 0-1021.612 265.789-1316.573 673.868 147.084-20.376 297.338-31.13 450.025-31.13 995.353 0 1885.444 448.151 2481.196 1153.262 5.942-56.542 9.112-113.877 9.112-172.004C2963.04 1532.07 2236.05 805 1339.28 805"/><path fill="#8A2540" d="M854.28 1844c-1050.024 0-1971.617 547.55-2496.827 1372.186C-1369.725 4367.325-336.003 5224 898.486 5224c183.9 0 363.272-19.19 536.417-55.36-468.438-191.782-872.972-295.937-1158.02-295.937-153.844 0-261.218 11.604-310.971 18.397 0 0 14.546-416.846 1343.448-312.295 259.407 20.435-42.112-432.074-1703.946-1537.985 33.168-7.755 69.394-11.717 108.28-11.717 642.036 0 1834.073 1043.758 1846.016 1054.286l50.603 44.606C1599.275 3627.71 60.437 2687.599-246.572 2518.234c42.848-16.19 92.261-24.284 147.674-24.284 645.49 0 1893.45 1077.212 1906.016 1088.08-47.49-327.918-491.702-707.009-1443.86-1284.786 29.999-7.528 71.997-14.491 124.977-14.491 107.6 0 224.257 27.737 346.744 82.362 465.381 207.63 1199.679 760.728 1199.679 760.728-27.396-345.806-637.112-740.86-884.576-861.94 185.428 10.869 743.75 81.23 1293.299 526.492 380.478 308.22 612.32 688.612 752.07 1063.57 91.243-168.402 164.938-347.73 217.692-535.945C2900.725 2436.89 1947.038 1844 854.28 1844"/></g></svg>