<svg xmlns="http://www.w3.org/2000/svg" height="5224" width="6000">
    <g fill="none" fill-rule="evenodd" opacity=".25">
        <path d="M4521.894 796.881c-1327.583 0-2423.066 990.703-2589.233 2272.912 410.947-367.227 916.071-630.833 1474.395-751.658 323.789-471.073 866.266-780.18 1481.13-780.18 992.08 0 1796.374 804.232 1796.374 1796.236 0 62.082-3.17 123.428-9.339 183.868 140.7 183.53 262.438 382.394 361.878 593.822 62.483-223.879 96.61-459.585 96.61-703.384.001-1442.366-1169.339-2611.616-2611.814-2611.616" fill="#8aced4"/>
        <path d="M4962.941 1601.881c-541.988 0-1021.612 265.79-1316.573 673.868 147.084-20.376 297.338-31.13 450.025-31.13 995.353 0 1885.444 448.151 2481.196 1153.262 5.942-56.542 9.112-113.877 9.112-172.004 0-896.926-726.99-1623.996-1623.76-1623.996" fill="#e1a22e"/>
        <path d="M4477.941 2640.881c-1050.024 0-1971.617 547.55-2496.827 1372.186 272.822 1151.14 1306.544 2007.814 2541.033 2007.814 183.9 0 363.272-19.19 536.417-55.36-468.438-191.782-872.972-295.937-1158.02-295.937-153.844 0-261.218 11.604-310.971 18.397 0 0 14.546-416.846 1343.448-312.295 259.407 20.435-42.112-432.074-1703.946-1537.985 33.168-7.755 69.394-11.717 108.28-11.717 642.036 0 1834.073 1043.758 1846.016 1054.286l50.603 44.606c-11.038-500.285-1549.876-1440.396-1856.885-1609.76 42.848-16.19 92.261-24.285 147.674-24.285 645.49 0 1893.45 1077.212 1906.016 1088.08-47.49-327.918-491.702-707.009-1443.86-1284.786 29.999-7.528 71.997-14.49 124.977-14.49 107.6 0 224.257 27.736 346.744 82.361 465.381 207.63 1199.679 760.728 1199.679 760.728-27.396-345.806-637.112-740.86-884.576-861.94 185.428 10.87 743.75 81.23 1293.299 526.492 380.478 308.22 612.32 688.612 752.07 1063.57 91.243-168.402 164.938-347.73 217.692-535.945-512.418-881.13-1466.105-1474.02-2558.863-1474.02" fill="#8a2540"/>
    </g>
</svg>
