<svg version="1.0" xmlns="http://www.w3.org/2000/svg" viewBox="0 0 64 64">
    <g fill="#EAE8E7">
        <path d="M42.7 56.6c-.3-.3-.8-.5-.8-.5l-.4-.2v-.3l-.4-.3s.3-.4-.2-.3-.4.1-.4.1L40 55l-.4.1H39l-.5-.1-.3.5-.2.4-.1.5s.1-.1.2.3.3.5-.1.8.1.1-.3.3-.8.5-.8.5-.7-.7-1.2-1l-.5-.3c-.5-.3-1-.6-1.1-.5s-.2.2-.6 0-.2.1-.4-.2c-.1-.3-.3-.4-.3-.7s.3 0 0-.3.1-.8-.2-.6-1.1-.2-1.1-.2l-.8-.5-.8.1-.2-.3-.5-.1c-.2-.1-.5-.2-.5-.2s-.2 0-.2-.2c0-.1.1.1 0-.1 0 0 0-.1-.1-.1-.1-.2-.1-.3-.1-.3l-.2.4-.2-.2v-.2h-.1l-.4-.3-.1-.5.7-.5s.3-.2.4-.3 0-.2 0-.2v-.7L28 50c0-.1-.1-.5-.1-.5 0-.1.3-.1.3-.3 0-.2.1-.2.2-.4.1-.1.2-.3.1-.3l-.2-.1-.3.4v.1l-.1-.1-.2-.5s.1-.1.1-.2c-.1-.1-.3-.1-.3-.1H27l-.4.2-.3.2H26s-.2-.1-.5 0l-.3.1s0-.2-.2-.3l-.2-.1s-.4.1-.4.2-.1.2-.1.2-.2 0-.2-.2.1-.3-.1-.3h-.2s.2.1 0 .2-.8 0-.8 0l-.4.1c-.3 0-.1-.2-.4-.3s-.5 0-.5 0h-.1l-.5-.1s-.3-.1-.5 0-.4 0-.4 0-.1-.1-.2.1-.2 0-.2 0 .1.3-.2.1-.2-.1-.2-.1h-.5l-.3.1-.2.1-.6.1h-.5s-.5-.1-.5 0-.1.4-.2.4-.2.2-.3.1.1-.5-.5 0-.4.5-.6.5-.6.1-.6.1h-.2l-.3-.1-.5-.3v-.2s-.2-.1-.3 0l-.3.3s-.6-.4-.7-.2-.4.1-.4.1l-.5-.1-.1-.1s-.1-.1-.1-.3.1-.4 0-.4h-.5s-.2-.1-.2.2-.4.7-.4.7l-.4.4-.6.6s9 7.6 9.3 7.6c.3 0 13.1 2.4 13.1 2.4s3.7.1 3.9 0c.2-.1 6-1.7 6.3-2 .3-.4 1-1.4 1-1.4zM13 9l.7.2s.3-.2.5-.2.6-.2.5.2 0 .5 0 .5 0 .1.1.3.2.5.2.6v.5c0 .2-.1.5-.1.5s-.3 0-.7.1-.6 0-.9.1 0 .3-.5.2-.4-.1-.8 0-.6 0-.6 0-.7.5-.9-.3-.7-.8-.2-1.2c.6-.4 1.5-1.3 1.5-1.3L13 9zm26.8 36.9zm-.5 0l-.3-.1-.3.1-.1.1h-.3l-.1.3-.1.1v.2h.2l.2.2.3.3v.1l-.1.1.1.2.1.2.1.1h.2l-.1-.1v-.2l.1-.1h.2v.1c0 .1.1.3.1.3l.1.3h.1v-.2l-.1-.1.1-.3h.2l.1.3.3.2s.1 0 .1-.1c0 0-.1-.2-.2-.2 0 0-.1 0-.1-.1v-.1h.1l-.2-.4-.3-.5.3.1.2.1v.1l.1.1v-.1l.3-.1-.1-.2h-.1v.1l-.2-.1v-.1l-.5-.5.1-.1h-.5zM27.8 23c-.1 0-.1 0 0 0 0 .1-.1.2 0 0 .2 0 .2.2.2 0v-.2l-.2.2s0-.1 0 0zm2.1 3.9zm-2.4-1.1c.1 0 .2 0 .2-.1v-.3s0-.1.1-.2c0 0-.1-.2-.2-.1s-.4 0-.4 0l-.1.1H27s-.1.2 0 .2.1-.1.1 0v.2c.1 0 .2.2.2.2h.2s-.1.1 0 0z"/>
        <path d="M28.4 24.8c0-.2-.2 0-.2 0s0 .1-.2.1-.2-.1-.2 0 0 .1.1.2 0 .3 0 .3c.1.2.1.2.2.2s.1-.1.2 0l.1.1.1.2-.2.1c-.1.1-.2 0-.2 0-.3 0-.2-.2-.3 0 0 .2-.1.1 0 .2 0 .1-.1 0 0 .1.2.1 0 .2.1.2h.2s-.2.1 0 0 .3 0 .3-.1.1 0 .1-.1c.1-.1.1 0 .1-.1s.2-.1.2-.1V26s-.1-.1-.2 0h-.1s0 .2-.1.1l.1-.2c-.1-.1 0-.2 0-.2.2-.1.2.1.2-.1 0-.1-.2-.3-.2-.3.1-.1 0-.1.1-.1s.4-.2.4-.2v-.3c0-.2.1-.1 0-.2s-.1 0-.1 0 0-.2-.1 0l-.1.2v.2c-.1 0-.4.1-.3-.1zm2.4.7l-.1-.1s-.1-.2-.1-.1v.1c0 .1-.1.1.1.2l.2.1s.1.1 0 0c-.1-.2 0-.1-.1-.2z"/>
        <path d="M28 26.5h-.1s-.1.3 0 .2c.1-.1.2-.1.2-.1l-.1-.1zm-.3-.4l.1-.4-.2.3v.2c.1 0 .1-.1.1-.1zm-.1-1.5c-.1 0-.2.2-.1.2h.1v-.2zm-15.8 2.8c.1 0 .1 0 0 0zm0-.1c.2-.1.3.1.3.1l-.4.2c-.1.1-.2.1-.1.1h.1l.1.1h.3l-.4.2h.4c.1 0 .2-.1.2 0s0 .2-.1.1-.2 0-.2 0 .2.1.3.1.1.1.1.1h.8c.2 0 .2-.1.3-.1s0 0 .2-.1.2-.2.3-.1.1 0 .1 0 0-.1.1 0 0 .1.2.1.2-.1.3 0 .3.1.3.1-.1.3 0 0-.1-.1.1-.3.1 0 .2-.2.1-.1.2-.4 0-.2 0-.4.1-.3.1-.3l-.1-.3v-.2s.2.1.2-.1v-.1c0-.1-.2-.1-.2-.1s-.3-.2-.1-.1l.2.1.3.1.1-.2s.2.1.2 0v-.4l.2.1v-.2l-.1-.1-.5-.1.1-.2s0-.2-.1-.2-.1-.2-.1-.2 0-.1-.2-.1h-.4s-.1-.3-.1-.4-.1 0-.1 0l-.2.1h-.4s-.1 0-.1.2-.1.2-.2.2-.3-.1-.2.1 0 .1.2.2.1 0 .2 0h.1s.2.3-.1.2-.4 0-.4 0h-.4s-.2-.1-.3-.1h-.4v.3h-.2l.2.2h.3c-.2.1-.1.1-.2.1s0 0-.1.1l-.2.2v.2l.2.1s0-.1.1-.1.1-.1.1 0l.1.2h.2c.1 0 .2 0 .1.1s.3-.1-.1.1-.3.1-.4.2-.1.2-.1.2c-.2.2-.6.1-.6.1s.2.2.3.2h.1l-.2.2s.1 0 0 .1-.1 0-.1 0-.1 0-.1-.1-.1-.1-.2 0-.1 0-.1 0v.1s-.2 0 0 0 0-.1 0 0zm4.7-.3h.2l-.2-.3-.1-.2-.1.2c-.1.2 0 .3 0 .3.2.2.2.1.2 0z"/>
        <path d="M16.8 21.6c0 .1-.3-.1-.2 0s.1.3.1.3l-.1.1v.1s0-.1-.1-.2c-.1-.4-.6-.3-.6-.3s-.2-.1 0 .2c.2.3 0 .1.2.3l.2.1h.1s-.1.1 0 0 .1 0 .1 0c0 .1 0 .3-.1.3h-.1v.2c.1.1-.2.2-.2.2l.2.1.5-.2.1.1-.3.1v.1l-.1-.1v.1l-.1.2s-.1.3 0 .2l.2-.2c.1-.1.1.2 0 .2s-.3 0-.1.1c.2.1.4-.3.5-.2s-.1.2 0 .3.2.1.2.1l.1.1-.4-.1v.2s0-.2 0 0 .1.2.1.2l-.2.3-.3.2v.2s-.3-.1 0 0l.3.1.2-.1s-.3-.2 0 0 .5 0 .6 0h.4l-.1.1-.3.1-.1.2s-.1 0-.1.1.1.3.1.3-.1.1 0 .1h.4s0 .2-.1.3l-.1.1s-.2.2 0 .2h.2c.1 0 0-.2 0 0s-.2.1-.2.1h-.1c0 .2.1.4.1.4v.1l.1.2-.4-.2s.1.2 0 .2-.1-.1-.2-.2-.2 0-.3 0h-.4c-.1 0-.1.1-.1.1l-.1.1c-.1 0-.2.1-.2.1l.4-.1h.2c0 .2-.1.2-.1.2l-.1.2h.1l-.2.2c-.1.1-.1.2-.1.2 0 .2 0 .2-.1.2s-.2-.1-.3 0c-.1.1-.3.2-.4.2s-.3.1-.2.1 0 .2.2.2.1-.1.3-.1-.1-.1.1 0 0 .1.2.1.4-.2.2 0l-.2.2c.4 0 .4.2.4.2h.1l.2.1c.2-.1.2-.1.3-.1s.4-.3.4-.3.1-.1 0 0l-.3.3s.1 0 0 .1h-.3l.1.6-.3-.1-.1-.1h-.5v.1h-.3s.2.3-.1.3-.5.3-.5.3l-.1.1c-.1.1.1.1-.1.1h-.3c-.1 0 0 .1 0 .1h.3s-.1.2 0 .1 0-.1.2-.3.2-.1.4-.1h.1l.2.1s.1 0 .2.1 0 .1.1 0 .1.2.3-.1c.1-.3 0-.3.1-.3h.2c.2 0 .3.2.4.2s0-.1.1 0 .1 0 .1 0l.1.1.1-.1h.2c.1 0 .2-.2.2-.2.2.1.1.1.3.2s.3.1.4.1h.1s.3.2.5.1.3-.2.4-.2.5-.2.5-.2c-.1-.2 0-.1-.3-.2s-.4-.1-.4-.1l-.2-.3.3.1h.2c.1-.2.3-.3.3-.3.2-.1.3-.2.3-.2s.1.1.2-.1.1-.4.1-.4l-.1-.1c.2-.1.2-.2.1-.2s-.3-.3-.3-.3h-.3l-.4.1-.1-.1.2-.2c0-.2.1-.3-.1-.4s-.2-.2-.2-.2-.3 0-.3-.1-.2.1 0-.1.2-.1.4 0c.1 0 .1.1.2.1 0-.2-.2-.7-.2-.7l-.3-.4h-.4s.1-.3.2-.2l-.1-.5-.2-.1s-.1-.1 0-.1.1.1.2 0 0-.2 0-.2v-.5s-.1-.1-.2-.3 0-.1-.1-.2 0-.3-.2-.2-.3.1-.4 0l-.1-.1-.2-.1c.4 0 .2.1.4 0l.2-.1h.2l-.1-.2h-.3l.1-.1.1-.1s0 .1.2 0 .1 0 .2-.2.3-.4.3-.4c.1-.2.3-.7.3-.7s.2 0-.1-.1-.4-.1-.5-.1h-.4s-.2-.1-.3 0-.3 0-.3 0 .1 0 .2-.1l.1-.1c.1-.1.3-.1.1-.1H18l-.1.1s.1-.3.2-.2-.1-.2-.1-.2h.3c.2-.1.3-.2.3-.2l.3-.2.1-.2s-.1-.1-.3-.1H18s0-.1-.1-.1-.1.1-.1.1l-.1.2-.2.1-.4.5s.1-.1.1.1.2.2 0 .2-.3-.1-.3-.1l-.2.1c0 .1.1.2.1.3zm3 5.4c-.1.1 0 0 0 0z"/>
        <path d="M18 30.6l.2.1h.1l.1-.1-.2-.2-.2.2zm.5-10.4h.4s.2-.2 0-.2-.3-.1-.3-.1h-.1c-.1.1-.1.4 0 .3zm.2-.3c.1 0 0 0 0 0zm1.2-1.2c.1.1.1.4.1.4s0-.3.1-.3c.1-.1.1-.4.3-.6l.3-.3s-.3.2-.3.3c0 0-.6 0-.5.1s.2-.1.1.1-.2.2-.1.3zm-4 2.3c.1 0 .1 0 .3-.1.1 0 0 0 .2-.1s.1-.1.2-.2 0-.4 0-.4l-.3.1-.2.1c-.2.1-.2.2-.2.2 0 .1.1-.1 0 .1-.1.3-.1.3 0 .3zm-.4.8c.1.1.2-.1.2-.2s-.1-.2 0-.4 0-.2-.1-.1l-.1.1s-.1.2-.1.3c.1.1 0 .2.1.3zm.5.8c.1.2 0 .3 0 .3 0 .1.1.1.2.1h.2l-.1-.3c-.1 0-.4-.3-.3-.1zm-.3 1.2h.2c.1 0 0 .1.1-.1s.2-.1.2-.3v-.1c0-.1.1-.1-.1-.1-.2.1-.3.1-.4.2-.1 0 0-.2-.1 0v.2c.1.2-.1.2.1.2zm.7-.2s-.1.1-.1.2l-.3.4h.3c.1-.1.1-.2.1-.2s.1.3.1.2c0-.2.1-.1 0-.3v-.4l-.1-.1v.2z"/>
        <path d="M58 18.5L48.5 6.8l-5-2.8-1.3 5.4-1.1 1.2.9 1.2-1.8-.3-.6-1.6s-2.2-1-1.8-1.1 3.2.4 3.2.4l1-1.4-.6-1-4.1-.6s-1.7.8-1.5 0 .3-1.7-.2-1.7-1-.1-1.5.4S33 6.1 33 6.1l-2.1 1.7L29.4 9s.1 1.3 0 1.5-.9.9-.9.9c-.2 1.5-.5 2.4-.5 2.4l-.8.9s-.2.8-1 1.2c-.8.3-1.8 2.1-1.8 2.1s.3 1.7 0 2.1-.1 1.3.5 1.7-.4 1.2.6.4.7-1.5 1.5-1.4l.8.1.2.2v.5s.1-.2.2 0 0 .2 0 .2h.1c.1.1.1.2 0 .3v.1h-.1l.2.3.1.2v.1l.2.2.2.3c.1.2.2.4.3.5v.2l.1.2h-.2l.1.2c.1.1.1.2.2.3-.1.1-.1.2.1.2v.2l.2.1c.1-.1.2-.1.3-.1h.3s.2-.1.1-.2v-.1l.3-.6.6-.2h.1l.1-.1.3-.1.1-.2s.1-.2.1-.5c.1-.3.1-.3.1-.5 0-.1 0-.4-.2-.3-.2.1.2.3.1.4-.1.1-.1.3-.2.4 0 0 0 .1-.1.2v-1.9l.6-1.1c.1-.1.2-.3.2-.3h.1l-.1-.1.4-.7-.1-.1-.2-.2-.2.1c-.1-.1.1-.3-.1-.3s-.3-.1-.3-.1v.1l-.4-.4v-1.8c.1-.2.7-1.3 1.1-1.9l.1-.1.2-.3V14c0-.1.1-.3.1-.3l.1-.2s0-.2-.1-.2l-.1-.1v-.7s.1-.2.3-.4V12c.1-.1.2-.2.3-.2l.2-.1c.4-.1 1 .1 1 .1l-.2 1.4c-.1.1 0 .1 0 .1l-.6 1v.1l-.1.1.1.2-.1.3h-.2v.5c0 .2-.1.1-.1.1v.4c0 .1.1.1.1.1l.1.3v.3l.1.1.1.1c0 .2.1.3.1.3s0 .1.1.2v.5h-.1l.1.3s.1.1.2.1h.1l.4.4c-.2.1 0 0 0 .1v.2c0 .1.2 0 .2 0v-.1l.1.1h.2l.1-.1s.1 0 .3-.1.2-.2.2-.2h.2l.1-.2.1-.1c.1-.1.2-.1.2-.2h.2l.2-.1s1.5-.5 1.6-.4 1.1.4 1.1.4l-1.2.8-1.1.1H37l-.4.2-.5.1-.3.3-.1.2v.3h-.1c-.1 0-.1.1 0 .1s0 .1.1 0c.1.1.1.2.2.3v.2l.2.2h.5v.5s0 .1.1.2v.5l-.2.6-.4-.1c-.1-.3 0-.2-.1-.3s-.2-.2-.3-.2-.2-.1-.2-.1l-.1-.1s-.2.1-.2.2H35v.2l-.1.2v.3l-.2.3v.3c0 .1 0 .2.1.4s.1.3.1.3l.1.3.2.4h.1l-.3.7h-.7v.4l-.6.4-.6-.5c-.1-.1-.2-.1-.3-.1-.1.1 0 .2-.4.3-.3 0-.4.1-.5.1-.1 0-.1.2-.1.2l-.1.2s-.1 0-.1.1h-.1l-.4.1c-.1 0-.2 0-.3.1l-.7.2v-.1c-.1-.1-.3-.3-.3-.2.1.1 0 .4 0 .3v-.1h-.3l-.1-.1.1-.1c.1 0 .2.2.1 0v-.2s.2 0 0-.1l-.2-.1s-.1-.1-.1 0v.3c-.1.1 0 .1 0 .1-.2 0-.3.1-.3.1-.1.1-.2.1-.2.1l-.3.1-.7.2v-.5h-.4l-.2-.6v-.1h-.1c-.1-.1-.1-.2-.2-.3 0-.1.1-.4.1-.5s.1.1.1 0V25l-.1-.1.1-.1h.1v-.1l.2-.2.1-.1c0 .1 0 .1.1 0s.2 0 .1-.2 0-.1 0-.1h-.1c-.1-.1-.2-.3-.2-.3l-.2-.3h.1v-.2c0-.1.1.2.1-.1 0-.3.1-.3.1-.4v-.3s-.3.2-.4.2c-.1 0-.1.1-.1.1l-.6.4h-.2l-.3.1v.3s-.1.1 0 .1v.1c0-.1 0-.1 0 0 0 .2-.1.1 0 .2v.2c-.1.1-.1.2-.1.3v.5h.1l.1.3.1.4v.2l.2.3.1.2s0 .1-.1.1h-.2v.1l.2.1c-.1.2-.1.3-.1.3v.2c-.1 0-.1.1-.1.1-.1 0-.2.1-.4 0 0 0 0-.1-.1-.1h-.4s0-.1-.1 0c-.1 0-.3 0-.3.1s-.2.1-.2.2H24c-.2.1-.3.3-.3.3s.2-.1-.1.1l-.4.2-.1.1H23v.2l-.2.4-.3.3-.2.2c-.1.1-.2.1-.1.1s.2.1.2.1v.2l-.1.1v-.2H22s-.1 0 .1.1.1 0 .1 0h-.7c-.2.1-.5.2-.6.2h-.4l-.1.1h-.2v.8s-.5.2-.8.3 0 0-.1 0-.2.1-.2.1c-.1 0 0-.2-.1 0l-.1.2s-.1 0 0 .1c0 .1 0 .2-.1.2h-.2c-.1 0-.2-.1-.2-.1h-.2c-.1 0-.2-.1-.3-.1h-.2l.3.4.1-.1-.1-.1-.4-.1h-.1c-.1 0 0 .1 0 .1l.1 1.3h-.5c-.1 0 0-.1-.1 0h-.1l-.4-.2c0-.1 0-.1-.1-.1h-.3c-.2 0-.5 0-.6.1h-.4v.1c0 .1-.2.1 0 .1h.1l.1.4h-.1l.1.1.1.1v.2c.1 0-.1.1.1 0l.9.4h-.1c.2 0 .1.1.2 0l.5 1s.2.3.2.4l.3.7s0-.1 0 0-.1.2 0 .3c.1 0 .1.1.1.1v.4l-.9 2.5-2-.4-1.6-.5-1.1-.2-.5-.4-.4.1s-.3.2-.4.2H10l-.1.2.2 1.1-.2.4-.2 1.5s-.5.9-.5 1-.7 1-.7 1v.4h.2v.6L8.2 46l1 .3.9-.1.5.5.2 1 .4.3s.4-.4.6-.4 1.2.1 1.3.1 1.6.1 1.7.1.9-.9.9-.9h.6l.6-1 .5-.2-.4-1.1 1-1.2.5-.5 1.6-.5.5-.3-.1-1.2.4-.5.8-.3.6.3.3-.2.3.4.9.1.7-.6.9-.2.6-.6 1.2.5.5 1.2.6.9 1.1.8.7.5.7.1.6.6h.4l.2.6.5.1.7 1.4v.3l-.3-.3v.5l-.4.1-1.2.4h-.5l-.4-.3-.3.3-.3-.1-.3.3.2.4.5.1.8.5h.4l.4.4.4.1.2-.4-.2-.6.3-.8.1-.2.1.3.4-.1.2-.4.2-.3v-.3l.6-.3V45l-.6-.4.3-.8.4-.1.7.2.2.4.3.1.1-.4-.6-.6-1.9-.7-.3-.3.2-.3-.2-.1h-.9l-.9-.7-.6-1.3-1-.6-.2-.8.2-.2-.1-.4.4-.4.7-.3.2.1-.1.2.1.3.7-.2.4.4.1.5.6.5-.4-.2.4.6.3-.2v.5h.8l1.4.9 1 .7.4.1v1.2s-.2.8-.1.7.7.4.7.4l.2.3.2.5.4.3.1-.2.3.3v.2l-.4.1v.1l.4.4h.4l.5-.1h.4v-.1l.6.2h.3l-.3.2h-.1l.2.1.3-.1.2-.1h.1v.1l.1.1.2.1s.1.2.2.2.1 0 .1-.1v-.2l-.2-.3.1-.1v-.1c-.1 0-.2 0-.3-.1h-.2l-.1-.1s.1-.1 0-.1h-.2v-.2h-.2v.1s-.1-.1-.2-.1h-.4s-.1-.1 0-.1h.2l.2-.2-.1-.2s-.1 0-.1-.1v-.2s0-.1.1-.1.2.1.2.1h.1v.1H40h.2l.1-.1v-.1l-.2-.2-.1-.1c-.1-.1-.2-.1-.2-.1l-.2-.3-.2-.1-.1-.2v-.4s0-.1.1-.2l.1-.1h.1v.3l.1.1.2.1.2-.1h.2l.1.1s0 .1.1.2l.1.1h.1l.1-.1c-.1-.1-.1-.1-.2-.1h-.1l-.1-.1s-.1-.1 0-.1h.4l.1.1.1.1h.1c.1 0 .2 0 .1-.1 0-.1-.1-.1-.2-.1s-.1-.1-.2-.1h-.3v-.1l-.1-.1h-.1l.1-.2h.3l.1-.2.1-.1h.2l.2.1h.1c0-.1.2-.2.2-.2s.1-.1.2 0 .4.1.4.1h.4v.2s0 .1.1.1l.4-.2-.1-.2.1.1h.2c.1 0 .2-.2.2-.2v-.4h.2l.2-.1v-.1l.4-.1.1-.1.1.1.1-.1.1.1s.1-.1.1-.2v-.2s-.2-.1-.3-.1c-.1 0-.5 0-.6-.1-.1-.1-.2-.1-.2-.1l-.1-.4s.1-.1 0-.2c-.1 0-.4-.1-.4-.1l-.2-.2s-.1.1-.2 0 .2 0 .2 0l.2-.2v-.1l.1-.1h.1l-.1-.4.1-.3v-.1l.3-.1h.1v-.5s.1-.3 0-.3-.2-.2-.2-.2l.1-.1.2-.5.3-.2.2-.1-.1-.5-.2-.3.4-.7c.1 0 .2-.5.2-.5v-.3l.6-.3.3-.1h.4l.1.1-.1.1v-.2l-.1.1.1.2s.1.2.2.2.2.1.2 0 .1-.2.1-.2l.3-.1v-.1h.4l.2.2s-.1.2-.1.1c-.1 0-.1.1-.2.2l-.3.3-.1.2v.1l.1-.1.2-.1.3.1h.2l.1-.1.2.1.1.4v.1s.1 0 .1.1-.1 0-.1.1.2.1.3.1.1.1.1.1.1-.1.1-.2.1-.1.1-.1-.1-.1 0-.1 0-.1.1-.2.1-.2.1-.2l.1-.1c.1-.1.3-.1.3-.1s.1.1.1 0v-.1l.1-.1v-.2l.3-.1h.2l.2-.1.1-.1-.1-.1c-.1-.1-.1 0 0-.2s.1-.1.1-.1h-.2l-.1.1v.1l-.3.2h-.2s.1.1 0 .1-.2.1-.2.1H49l-.3-.2-.2-.2-.2-.3v-.3l.1-.1h.2V33c0-.1.2-.3.2-.3s.1 0 .1-.1-.1-.1-.1-.1l.3-.1s.1 0 .1-.1.1-.1.1-.1l.3-.2.2-.2s0-.1.1-.1h.1l.1-.2c.1 0 .1-.1.2-.1s.1 0 .1-.1.1-.1.1-.1 0 .1 0 0 .2-.2.2-.2l.1-.2h.1c-.2 0-.1.2-.1.2h.2v-.3l.1-.1h.2l.1.1h.1s0 .1-.1.2l-.1.1s0 .1-.1.2-.1.2-.1.2l-.2.1s0 .1.1.1.1 0 .1.1-.1.1-.1.1h-.1s.1-.2-.1 0-.2.2-.3.2 0 .1 0 .1l.1.1s0-.1.1-.1.2.2.2.2h.3l.1.1h-.2l-.1-.1v.6l-.1-.2v-.1h-.1c.1 0 .1.3.1.3l-.1.1.2.2c0 .1.1 0 0 .1l-.1.1-.2.1.1-.1-.1.1h-.1l-.1.1-.1-.1h-.2l.1.1.1.1-.2.3h.4c.1 0 .2.1.2.1v.1s.1.1.2.1h.1v-.1s-.1-.1.1-.1.3-.1.3 0 .1.1.1.1 0 .1.1.1h.5c.1 0 .3.1.3.1l.5.2.7.3h.2l.1.1s0 .1.2 0c.1 0 .3-.1.3-.1s.1 0 .2.1.1 0 .1 0l.1.1c.1.1 0 0 0 0l.4.1.4.5.2.1.1.2v.4s-.1.1-.1.2-.1.2-.1.2l-.2.3-.4.4s0 .1-.1.2.1.1-.2.1c-.3 0-.4.1-.4.1h-.3v.1l-.4.2-.2.2s-.2 0-.2.1-.4 0-.4 0l-.2-.1c-.1.1-.1.2-.1.2s-.3-.1-.4 0h-.2l-.1-.1h-.2s-.2-.1-.2 0v.1l-.2.1h-.1c-.1 0 .1 0-.1-.2l-.2-.2h-.1l-.2.2-.3-.1-.2-.2s.1-.1 0-.1-.2-.1-.2 0c0 0 .1.3-.1.2s-.9.3-.9.3l-.4.1-.2.2s-.7.4-.8.4l-.4.4-.2.5v.2l-.2.1s-.2 0-.2.1-.4.1-.4.1h-.4c-.1 0-.3 0-.3.1-.1.1-.3.1-.3.1l.1.3s.2 0 .2.1.2 0 .2 0l.2-.1h.2l-.1.1-.1.1h-.3l-.4.2-.2.1h.3c.1 0 .3 0 .2.1l-.1.1h-.3s.2 0-.1.1-.3 0-.3 0l-.3.1h-.1c-.1 0 .1-.1-.1 0s-.2.2-.3.2-.2-.1-.2-.1c-.1-.1-.1 0-.2 0s-.3.1-.3.1l-.2.1-.1.3-.2.2v.4s0 .3.1.2 0-.1 0-.1h.3c.1 0-.1 0 .2-.1l.3-.1.1.1-.2.3.1.1.1.2v.1c0 .1-.1.1.1 0s.3 0 .3 0l-.1.2-.2.1-.1.1.2.2h.3v.1l-.3.2-.2.1-.2-.2v-.2h-.1s-.1.1 0 .1-.1.1.1.2.1.1.1.1h-.5l.1.1c.1 0 .2-.1.2-.1s0-.1.2 0 .2.2.3.2c.1 0 .2-.1.2 0s.1.1.1.1v.4c0 .1.1.1.1.1v.1l.1-.1h.1v.1s0 .1.1.1 0-.2.1-.1.1 0 .1.1-.4.3-.4.3 0 .1.1 0 .1.1.1 0-.1 0 .2-.1c.3-.1.4 0 .4-.1s.2-.1.2-.1h.1c-.1 0-.3.2-.3.2v.2h.1l.1-.2h.1l.1.1h.1s.1.1.2 0 .1 0 .1 0 .1-.2.1 0-.1.1 0 .2.4.2.4.2 0 .2.1.1.1.1.2 0 0 0 .2-.1.2-.2.2-.2-.1-.1.1-.1h.4V46s-.2-.1-.1-.2.2-.1.2-.1l.5-.1.6.1.3.1s0 .2.1.2.1 0 .3.1.4 0 .4 0h.1l.4-.2.7-.2s-.2-.1-.1-.2 0-.1.2-.3c.1-.2.1-.2.2-.3s.3-.2.3-.2c.3 0 .5.1.6.1s.2-.2.2-.2-.2.1 0-.1l.1-.1c.1-.1.1-.3.2-.3h.4l.1.2-.1.2-.2.2s-.1.1 0 .2l.3.3-.1.4.3.4.2.4c-.1.1 0 .1 0 .1s.2.3.3.4l.1.1 3.2-5 2.4-7L58 18.5z"/>
        <path d="M32.9 18.8l.2.2s.4.1.4.2v-.3c0-.2 0-.2-.1-.2l-.2-.1-.3.2zm-.3 3.6c.1.1.1.5.1.5v.3s0 .1 0 0-.1-.1.1-.3c.2-.2.2-.1.2-.3 0-.2-.1-.3 0-.5.1-.1.2-.1.1-.1v-.2l-.3.1c-.2.2-.1.2-.2.4 0 .1-.1-.1 0 .1zm-4.4-.6v.2s-.1-.1 0 0 .2 0 .2 0v-.2h-.2zm6.9-1.6h-.2.1c0 .1 0 .1.1 0 0 .1 0 .1 0 0 0 .1 0 .2.1.2v.1h.1v-.2c0-.1 0 0 .1 0s0 .1.1 0 .2 0 .1-.1-.1-.1-.2-.1h-.1c-.1 0 0-.1 0-.1h-.1s-.1 0 0 0 0 .1-.1.2zm-.1 1h.1s-.1.1-.1.2l-.1.1v.1s0 .1.1 0 0-.1.1-.1 0 0 0-.1v-.2l.1-.1h.1c.1 0-.1.2.1 0l.2-.2v-.1c0-.1.1-.1.1-.1s.1.1 0 0l-.2-.1h-.3s0-.1-.1 0l-.1.1-.1.1v.1h-.1v.1s.1 0 0 .1h-.1v.1c0 .1.3 0 .3 0zm.8-.6v-.1h-.2v.1h.2s0 .1 0 0zm-1.2-2.1c-.2-.2-.1 0-.2 0v.1l.1.1v-.2zm-1.1-3.4c.1-.1-.1-.2 0 0-.1-.1-.1 0 0 0-.1 0 0 0 0 0z"/>
    </g>
    <g fill="#147C99">
        <path d="M43.3 18.3zm3.2 4.6zm0 6.5zm-18.3-7.7zm.1 0c-.1 0 0 0 0 0zM39.2 14l-.2-.1-.1-.2-.3-.1h-.2l-.4-.2.1-.1v-.4l-.1-.1c-.1-.1-.2-.1-.2-.1l-.2-.2v-.3h-.2l-.1-.2.1-.2-.2-.1v-.4c0-.1-.1-.1-.1-.1l.2-.1-.1-.3s-.1 0-.1-.1-.2-.1-.4-.4-.3-.3-.4-.4 0-.2 0-.2v-.2s.1-.3.1-.5v-.2c0-.2-.1-.1-.1-.1l-.3-.3-.4-.1-.1-.2-.1-.2c-.1-.2 0-.2 0-.2v-.1l-.1-.1h-.1l.1-.3V7l.1-.3v-.1s0-.1-.2-.2l-.2-.1s.1-.1 0-.2-.1-.1-.2 0 0-.1-.1 0 0 .1-.2.2h-.1l-.1.1c-.1.1-.1.2-.1.2v.5l.1.2v.3l-.2.1v.1s0 .1-.1.3-.1-.1-.1-.1h-.4s0 .1-.1.1-.1.1-.1.1 0-.2-.1-.1 0 0-.1 0H33s-.1.1-.1-.1c-.2 0-.3 0-.3-.1s-.2-.2-.3-.2h-.1l-.1.1s0 .1.1.2-.2-.1-.2-.1V8h-.2v.3s.1 0 .1.2-.1.1-.1.1.2 0 .1.1c0 .1-.2.2-.2.2s-.1-.1-.2-.1-.4-.1-.4-.1c-.1 0-.2.1-.2.1v.6s.1.3 0 .1-.3-.1-.3-.1l-.2.2v.2c0 .1-.2.3-.2.3l.2.4-.1.3-.2.2-.2.4.1.3-.2.2h-.2s.1.2.1.4v1l-.2.4-.1.2.2.1.1.4-.1.3-.4-.1s0-.1-.1 0-.4.6-.4.6v.3l.1.4-.4.1.1.6s-.2.3-.1.2.1.4.1.5c0 0-.1.1 0 .2s.1.2.1.2.1 0 .2.1l.1.1-.1.4h-.2s-.2-.3-.1 0 .2.7.2.7v.2c0 .2-.1.4-.1.4l-.2.1v.2l-.2.1.1.6-.1.4s-.2-.1-.2-.2v-.1h-.1l.1.5v.2s.1-.2.2 0 0 .2 0 .2c.1.1.2-.1.2-.1v.2l-.1.3h-.1l.2.3.1.2v.1l.2.2.2.3s.1 0 .1.1.1.1.1.1.1-.2.1.1v.4l.1.2h-.2l.1.2c.1.2.3.5.3.5l-.1.2v.1l.2.1c.2-.1.4-.1.4-.1l.1.1h.1s.2-.1.1-.2-.1-.2-.1-.3v-.1c0-.1.3-.3.3-.3l.1-.1h.7s.1 0 .1-.2-.1-.4.1-.5c.2-.1.1-.5.1-.5v-.2s.1-.1.1-.2v-.3l-.1-.1-.2-.1c.2-.1.1-.1.2-.1s.1-.1 0-.2-.1-.3-.1-.3l.1-.1-.5-.1s-.1-.1 0-.2.5 0 .5 0l.3-.3.1-.2v-.3c.1.1.2.3.2.3.1-.1.2-.3.2-.3h.1l-.2-.2h-.1c.1 0 .3-.1.3-.1l.1-.1.2-.2h-.2l.1-.1-.2-.2-.1-.3c-.1-.1.1-.3-.1-.3s-.3-.1-.3-.1l-.1.1-.1-.1s0-.1-.1-.1h-.1l-.1-.1-.1-.3v-.2l-.1-.2v-.3c0-.1-.1-.3-.1-.3l.2-.1s-.1-.2-.1-.3.1-.3.1-.3l-.1-.4v-.1s.1.2.2.1l.2-.2s-.1-.2-.2-.3-.1-.3-.1-.3l.1.2.2.1.2-.1s-.2.1-.1-.1.1-.1.1-.2c.1 0 0-.2 0-.2l.2.1s.1-.1.1-.2v-.1l.1-.1.1.1c.2-.3.3-.3.3-.3l.2-.3s.1-.1.1-.2.1-.3.1-.3l.1-.2s0-.2-.1-.2-.1-.1-.1-.1-.2-.1-.2-.2 0 0 .1-.2.1-.1.1-.2-.1-.2-.1-.2h-.1v-.2l.2-.1-.1-.4c.1 0 .4.2.4.2l-.1-.4.1-.1h.1l.2.1.3-.2.1-.1c.1 0 .2.1.2.1h.1s.2.1.3.2.1 0 .1 0 .1.2.2.3 0 .1.1.2.1.2.1.2v.1h-.2l-.2.1s-.1.4-.2.5 0 .1 0 .1-.1.2-.1.3-.1.2-.1.2 0 .2-.1.2-.1.1-.1.1l-.1.3h-.1v.2l.1.5.1.2s0 .1-.1.2c0 0-.1-.1-.2-.1h-.2v.5c0 .2-.1.1-.1.1v.4c0 .1.1.1.1.1l.1.3v.3l.1.1.2.4c.1.2 0 .1 0 .1l-.1.3v.3h-.1l.1.3s.1.1.2.1h.1l.3.1c.3.1.1 0 .1 0h.1l.1.1s.1 0 .2-.1v.2s-.1.1-.3.2c-.2.1 0 0 0 .1v.2c0 .1.2 0 .2 0l.1-.1h.4l.1-.1s.1 0 .3-.1.2-.2.2-.2h.2l.1-.2.1-.1c.1-.1.2-.1.2-.2s0 0 .1 0 .2-.2.2-.2h.2l.2-.1.1-.1.3-.1h.4l.2-.4.2-.3.1-.3.4-.8.1-.4.3-1.1c-.2 0-.2 0-.2-.3.1 0 0 0 0 0z"/>
        <path d="M33.3 18.6l-.4.1.2.2s.4.1.4.2v-.3c0-.1 0-.2-.1-.2 0 .1-.1 0-.1 0zm-.1 3.1l-.3.1c-.2.2-.1.2-.2.4s-.2 0-.1.2c.1.1.1.5.1.5v.3s0 .1 0 0c.1-.1-.1-.1.1-.3.2-.2.2-.1.2-.3 0-.2-.1-.3 0-.5.1-.1.2-.1.1-.1s.1-.3.1-.3zm-1.3 1.2c0 .1-.1.2-.1.5-.1.3-.1.5-.1.5l-.1.2v-.4s.1-.2.1-.3.1-.3.2-.4-.3-.4-.1-.4.2.2.1.3zm-3.8-.9s-.1 0 0 0c.1.1.3 0 .3 0v-.2h-.2l-.1.1v.1zm7.2-2h-.1s-.1 0 0 0 0 .1 0 .1v.1H35h.3l.1.1v.1h.1v-.2h.1c.1 0 0 .1.1 0s.2 0 .1-.1-.1-.1-.2-.1h-.3z"/>
        <path d="M39.6 22.7c-.1-.1 0-.2-.2-.3s-.3-.4-.3-.4l-.1-.3s.1-.1 0-.2-.1-.1-.3-.2-.1-.1-.1-.1v-.3l.1-.2s-.1-.1-.1-.2-.1-.4-.1-.4-.1-.1-.1-.2-.1-.3-.1-.3l.2-.3v-.4c0-.1.1-.1.1-.1l-.1-.1s-.1 0-.1.1c-.1 0-.2.1-.2.1H37l-.4.2-.5.1-.3.3-.1.2v.3h-.1c-.1 0-.1.1 0 .1s0 .1.1 0c.1.1.1.2.2.3v.2l.2.2c.2 0 .3 0 .4-.1s0-.2.1-.1.1 0 .1.1v.5s0 .1.1.2v.5c0 .1.2.1.1.2s-.2.3-.3.3-.1.1-.2.1-.3-.1-.3-.1.1.2-.1-.1 0-.2-.1-.3-.1 0-.2 0-.2-.1-.2-.1l-.1-.1s-.2.1-.2.2-.2 0-.2 0l-.1.2-.1.2v.3l-.1.3v.3c0 .1 0 .2.1.4s.1.3.1.3l.1.3.2.4.1.1.2.1h.4l.2.1s.2.2.2.3-.1.2-.1.2v.1h.1c.2 0 .2.1.2.1h.2c.1 0 0-.1.1 0s.2.3.2.4 0 .1.1.1-.2.1.1 0 .4 0 .5-.1 0-.1.2-.1.2-.2.2-.2c.2-.3.3.2.3-.4s0-.6.1-.7.1 0 .2-.1l.1-.1c.3-.3.2-.3.2-.3l-.2-.2c0-.2-.1-.1 0-.2s.1 0 0-.1-.1.1-.1 0 .2-.2.2-.2l.2-.2h.3c0-.2 0-.2.1-.3s.1-.1.1-.3c0 0 .1.1 0 0z"/>
        <path d="M35.5 20.6h-.2s0-.1-.1 0l-.1.1c-.1 0-.1.1-.1.1v.1h-.1v.1s.1 0 0 .1-.1 0-.1 0v.1l.1.1h.1s-.1.1-.1.2l-.1.1v.1s0 .1.1 0 0-.1.1-.1v-.3l.1-.1h.1c.1 0-.1.2.1 0l.2-.2v-.1c0-.1.1-.1.1-.1s.1.1 0 0l-.2-.1.1-.1zm.2-.2l-.1.1c.2.1.1.1.2.1 0 0 .1 0 .1-.1-.1 0 0 0-.2-.1.1 0 0 0 0 0zm-1.1-1.8l-.1-.1v-.1c0 .1 0-.1.1 0l.1.1v.1zM33.4 15v.1s.1 0 0-.1c.2 0 0-.1 0 0z"/>
    </g>
    <g fill="#EAE8E7">
        <path d="M33.1 13.3s0 .1 0 0v-.5s0 .1-.1.1c-.1.2-.1.1-.1.2s.2.2.2.2zm0 .8zm-1.7 3.5v.3l.1.2v.2l.1.3.1.1h.1c.1 0 .1.1.1.1l.1.1-.4-.4v-1.1l-.2.1c-.1-.2 0 0 0 .1zm-.2 3.5c-.1 0 0 .2 0 .2l.5.1-.1.1s0 .2.1.3l.6-1.1c0-.1-.1-.2-.1-.3v.3l-.2.1-.3.3h-.5zm.4 2.8v-2.1.1c0 .1 0 0-.2.1l.1.2.1.1s.1.3 0 .3-.1.2-.1.2v.2s.1.4-.1.5c-.2.1-.1.2-.1.5 0 .1 0 .1-.1.1l.3-.1c.1.1.1-.1.1-.1zm-3.3-2.2c.1.1.1.2 0 .3v.1l.1-.3v-.2s0 .1-.1.1zm-1.5 1.6c-.2.1 0 0-.1.1s-.2-.1-.2-.1l-.1.1s-.1.1-.1.2v.1h.2v.3l.1-.1h.2l-.1-.2-.1-.2h.3l.1-.1v-.1c-.2-.1 0-.1-.2 0zm2.2.3l-.1-.1-.1-.1c.1.2.2.4.3.5v-.2c0-.3-.1-.1-.1-.1zm-1.7-.2c0-.1-.1-.1-.3-.2 0 0 .2.1.3.2v.2l-.2.1-.1.1v.1s.1-.1.2-.1.1.1.1.1l.2.1h.1c-.1-.1-.2-.3-.2-.3l-.1-.3zm5.3-3.8h.2-.2c0-.1 0-.1 0 0zm3.9 2.9l-.4-.1c.1.3.1.1.1.1s.2.1.3.1c-.1 0-.1-.1 0-.1zm-2.3-8.1l.1-.3.1-.1c.1-.1.1-.2.1-.2s.1-.1.1-.2.1-.3.1-.3l-.5 1.1zm-.2-2.7c.4-.1 1 .1 1 .1h-.1c-.1 0-.3-.2-.3-.2h-.1s-.1-.1-.2-.1l-.1.1-.2.1zm.1 5.6c0-.1.2 0 .1-.2-.1-.1-.2-.2-.2-.3 0 .2.1.3.1.3-.1 0 0 .1 0 .2zm-.1-2.2l.1-.2-.1-.2-.1.3.1.1zm.1-.6zm-2.7 1.7v.1l.1.4-.1.3s.1.1.1.2v-.6c.1-.2.7-1.3 1.1-1.9l-.2.2-.1-.1v.3c0 .1-.1.2-.1.2l-.2-.1v.2c-.1 0 0 0-.1.2s.1.1.1.1l-.2.1-.2-.1-.1-.2s0 .2.1.3.2.3.2.3l-.2.2c-.1.1-.2-.1-.2-.1zm3.5-3.4l.2-.1c.1 0 .2.1.2 0v-.1l-.1-.2c-.1-.2-.1-.1-.1-.2s-.1-.4-.1-.4l-.2 1.4c.1-.1.1-.4.1-.4zm-1.9-.4v.2h.1s.1.1.1.2v-.2s.1-.2.3-.4c-.1 0-.3-.1-.3-.2l.1.4H33zm-2.6 12.1l.6-.2h-.6v.2c-.1 0-.3.1-.4.3m5.1-6v.1l.1.1.1-.2zm-1.5-7.2c-.1 0 0 0-.1.1l.1.3c.1-.1.2-.2.3-.2l-.1-.1c-.1 0-.2-.1-.2-.1zm-2.2 15.2s.2-.1.2-.2h-.1l-.4.1c.2.1.2.1.3.1zm3.5-8.1c.2-.1.3-.2.3-.2v-.2c0 .2-.1.2-.2.1l-.1-.1h-.1s.1.1-.1 0-.3-.1-.3-.1l.5.5z"/>
        <path d="M32.6 19.8l-.1.1-.3.1.1.1.1.1.4-.7c0 .1-.2.3-.2.3zm3.9-1.6c.1 0 .1 0 0 0zm.1 2.5c-.1-.1-.1 0-.1.1h-.1.2c.1-.1 0 0 0-.1zM35 22h.1-.1zm1.8.2c.1-.1-.1-.1-.1-.2l-.2.6s.1 0 .1-.1c.1-.1.1-.2.2-.3zm-9.2 2.1h-.3v.2l.3-.2c-.1.1-.1.1 0 0zm9.1-6.1l.3-.2h-.2c0 .1-.1.1-.1.2zm2.6 27.7l-.3-.1-.3.1-.1.1h-.3l-.1.3-.1.1v.2h.2l.2.2.3.3v.1l-.1.1.1.2.1.2.1.1h.2l-.1-.1v-.2l.1-.1h.2v.1c0 .1.1.3.1.3l.1.3h.1v-.2l-.1-.1.1-.3h.2l.1.3.3.2s.1 0 .1-.1c0 0-.1-.2-.2-.2 0 0-.1 0-.1-.1v-.1h.1l-.2-.4-.3-.5.3.1.2.1v.1l.1.1v-.1l.3-.1-.1-.2h-.1v.1l-.2-.1v-.1l-.5-.5.1-.1h-.5zm.5 0zm-2.6-12.6c.1.2 0 0 0 0zm-13.6 3.5c-.1.1 0 0 0 0zm14-17.9h.6s.1 0 .2-.1c.1 0 .1-.1.1-.1l-1.1.1.2.1zm-11.7 5.4c.1-.1 0 0 0 0 .2-.2.1-.1 0-.2v.2zm.2-.3c.2 0 .1 0 0 0 .1 0 .1 0 0 0 .1.1.2 0 .2-.1v-.2h-.4v.2c.2.1.1 0 .2.1zm1.4-1.6v.1c.1 0 .1-.1 0-.1zm-1.1.8h.4s.1-.3.2-.3.1-.1.1-.1l-.7.4z"/>
    </g>
    <path d="M42.7 56.6c-.3-.3-.8-.5-.8-.5l-.4-.2v-.3l-.4-.3s.3-.4-.2-.3-.4.1-.4.1L40 55l-.4.1H39l-.5-.1-.3.5-.2.4-.1.5s.1-.1.2.3.3.5-.1.8.1.1-.3.3-.8.5-.8.5-.7-.7-1.2-1l-.5-.3c-.5-.3-1-.6-1.1-.5s-.2.2-.6 0-.2.1-.4-.2c-.1-.3-.3-.4-.3-.7s.3 0 0-.3.1-.8-.2-.6-1.1-.2-1.1-.2l-.8-.5-.8.1-.2-.3-.5-.1c-.2-.1-.5-.2-.5-.2s-.2 0-.2-.2c0-.1.1.1 0-.1 0 0 0-.1-.1-.1-.1-.2-.1-.3-.1-.3l-.2.4-.2-.2v-.2h-.1l-.4-.3-.1-.5.7-.5s.3-.2.4-.3 0-.2 0-.2v-.7L28 50c0-.1-.1-.5-.1-.5 0-.1.3-.1.3-.3 0-.2.1-.2.2-.4.1-.1.2-.3.1-.3l-.2-.1-.3.4v.1l-.1-.1-.2-.5s.1-.1.1-.2c-.1-.1-.3-.1-.3-.1H27l-.4.2-.3.2H26s-.2-.1-.5 0l-.3.1s0-.2-.2-.3l-.2-.1s-.4.1-.4.2-.1.2-.1.2-.2 0-.2-.2.1-.3-.1-.3h-.2s.2.1 0 .2-.8 0-.8 0l-.4.1c-.3 0-.1-.2-.4-.3s-.5 0-.5 0h-.1l-.5-.1s-.3-.1-.5 0-.4 0-.4 0-.1-.1-.2.1-.2 0-.2 0 .1.3-.2.1-.2-.1-.2-.1h-.5l-.3.1-.2.1-.6.1h-.5s-.5-.1-.5 0-.1.4-.2.4-.2.2-.3.1.1-.5-.5 0-.4.5-.6.5-.6.1-.6.1h-.2l-.3-.1-.5-.3v-.2s-.2-.1-.3 0l-.3.3s-.6-.4-.7-.2-.4.1-.4.1l-.5-.1-.1-.1s-.1-.1-.1-.3.1-.4 0-.4h-.5s-.2-.1-.2.2-.4.7-.4.7l-.4.4-.6.6s9 7.6 9.3 7.6c.3 0 13.1 2.4 13.1 2.4s3.7.1 3.9 0c.2-.1 6-1.7 6.3-2 .3-.4 1-1.4 1-1.4zM13 9l.7.2s.3-.2.5-.2.6-.2.5.2 0 .5 0 .5 0 .1.1.3.2.5.2.6v.5c0 .2-.1.5-.1.5s-.3 0-.7.1-.6 0-.9.1 0 .3-.5.2-.4-.1-.8 0-.6 0-.6 0-.7.5-.9-.3-.7-.8-.2-1.2c.6-.4 1.5-1.3 1.5-1.3L13 9z" fill="#EAE8E7"/>
    <path opacity=".2" fill="#6D6A65" d="M53.7 10.3c4.8 5.4 7.8 12.6 7.8 20.5 0 17-13.8 30.8-30.8 30.8-7.9 0-15-3-20.5-7.8C15.9 60 24.1 64 33.3 64 50.3 64 64 50.3 64 33.3c0-9.2-4-17.4-10.3-23z"/>
    <path fill="#6D6A65" d="M30.8 3c15.3 0 27.8 12.5 27.8 27.8S46.1 58.5 30.8 58.5 3 46.1 3 30.8 15.5 3 30.8 3m0-3C13.8 0 0 13.8 0 30.8s13.8 30.8 30.8 30.8 30.8-13.8 30.8-30.8C61.5 13.8 47.8 0 30.8 0z"/>
    <g fill="#9D2347">
        <path d="M42.3 42l.1-.1c.1 0 .1-.2.1-.2v-.1l-.2-.1.1-.1s.1 0 .1-.1h.1v-.2s0-.2-.1-.2-.2-.2-.2-.2l.1-.1c.1-.1 0-.1.1-.1s0-.1.1-.1h.1s.1 0 .2-.1.1 0 .1 0h.8s.1-.1 0-.2c-.1 0-.4-.1-.4-.1l-.2-.2s-.1.1-.2 0 0-.2 0-.2l.2-.2v-.1l.1-.1h.1l-.1-.4.1-.3v-.1l.3-.1h.1v-.5s.1-.3 0-.3-.2-.2-.2-.2l.1-.1.2-.5.3-.2.2-.1-.1-.5-.1-.2h-.1c-.1.1-.2 0-.2 0s-.1 0-.1.1c-.1.1 0 .1-.1.1h-.1s0 .1-.1.1h-.2v-.1l-.3-.2v-.2l-.1-.2s-.1-.3-.1-.4-.1 0-.1 0l-.3.1-.1.2v-.1l-.1-.1H42c-.2 0-.1 0-.1.1v.1c0 .1-.1.1-.2.1h-.1l-.2.1v.5c0 .1-.1 0-.1 0s0 .1-.2.1l-.1.1h-.1l-.3.2-.2-.2-.5.1-.3.1h-.3l-.3.4v.2l-.2.1h-.2l-.3.1v.5c0 .1-.1.1-.1.1h-.1v.1c0 .1 0 .1-.1.1h-.1v.2l.1.1h.2l.1-.1v.1s.1.1.1.2l.1.1-.1.1s0 .1-.1.1v.2c0 .1.2.3.2.4 0 0 .1 0 .1.1s.1.1.2.1.1.1.2.2 0 .1-.1.2c0 .1 0 0-.1.1h-.2v.5l.1.1s0 .1-.1.1 0 0 0 .1 0 .1.1.1.1.1.1.1.3.1.4.2c.1 0 .1.1.1.1l.1.2v.2c0 .1 0 0 0 0l-.1.1-.1.2h-.5l-.1.1c-.1 0-.1.1-.1.1l-.1.1h-.1l-.2.1h-.3c-.1 0-.1.1-.1.1v.1s0 .1.1.1v.1s-.1 0-.1.1l-.1.1c-.1 0 0 .1 0 .1v.3l-.2.1v.4l-.4.3s0 .1-.1.1l.2.5.4.3.1-.2.4.1v.2l-.4.1v.1l.4.4h.4l.5-.1h.4v-.1l.6.2h.3l-.3.2h-.1l.2.1.3-.1.2-.1h.1v.1l.1.1.2.1s.1.2.2.2.1 0 .1-.1v-.2l-.2-.3.1-.1v-.1c-.1 0-.2 0-.3-.1h-.2l-.1-.1s.1-.1 0-.1h-.2v-.2h-.2v.1s-.1-.1-.2-.1h-.4s-.1-.1 0-.1h.2l.2-.2-.1-.2s-.1 0-.1-.1v-.2s0-.1.1-.1.2.1.2.1h.1v.1H40h.2l.1-.1v-.1l-.2-.2-.1-.1c-.1-.1-.2-.1-.2-.1l-.2-.3-.2-.1-.1-.2v-.4s0-.1.1-.2l.1-.1h.1v.3l.1.1.2.1.2-.1h.2l.1.1s0 .1.1.2l.1.1h.1l.1-.1c-.1-.1-.1-.1-.2-.1h-.1l-.1-.1s-.1-.1 0-.1h.4l.1.1.1.1h.1c.1 0 .2 0 .1-.1 0-.1-.1-.1-.2-.1s-.1-.1-.2-.1h-.3v-.1l-.1-.1h-.1l.1-.2h.3l.1-.2.1-.1h.2l.2.1h.1c0-.1.2-.2.2-.2s.1-.1.2 0 .4.1.4.1 0-.1.1-.1z"/>
        <path d="M40.2 46.4c-.1-.2-.2-.3-.2-.3h-.1l-.3-.2h-.1c-.1 0-.3-.1-.3-.1l-.2-.1-.1.1s-.1-.1-.2 0 0 .1 0 .1c-.1 0-.3.1-.3.1s0-.1-.1.1-.4.1-.1.3c.3.2.4.3.4.3l.1.1.1.2-.1.2.2.4.2.1.1-.3c0-.1.2.1.2.1l.2.4s.2.3.2.2-.1-.3 0-.4c0-.1.1-.1.1-.1l.4.3s0 .1.1.1.1-.1 0-.3c-.1-.2 0-.1-.2-.3-.1-.3-.1-.4-.2-.4l-.1-.1c-.1-.1 0-.1-.1-.2l-.1-.1.2-.1h.2l.1.2s.1.1.2 0 .1-.2.2-.3.1-.2-.1-.2c-.2.2-.3.2-.3.2zm.9 2.4c-.1 0-.1.2-.1.2v.2c.2.1.5.1.6.1.1 0 .3-.1.3-.1.1 0 .2.1.2.1l.3.2h.1s.3-.1.5-.2.4-.1.4-.1.2.2.3 0c.1-.2.3-.4.2-.3-.1 0-.2-.1-.3 0-.1.1-.3.2-.3.2l-.1-.1c-.2.1-.2.1-.4.1s-.6.1-.6.1h-.7s.1-.2 0-.1c0-.3-.3-.4-.4-.3zM37.4 46s-.1-.1 0 0c0 .2 0 .3.1.3h.2s.1 0 .1-.1c-.1-.2 0-.2-.1-.2-.1-.1-.1-.2-.1-.3s.1-.1 0-.1-.2.4-.2.4zm.7.7c-.1 0-.2-.1-.2-.1h-.1c0 .1-.1.2 0 .2h.1s-.1.1.1 0 .1-.1.1-.1z"/>
        <path d="M40.3 48s-.3-.1-.2 0c.1.1.1.2.1.2s0 .2.1.2l.1-.1c.1 0 .1-.1.1-.1l-.2-.2zm-3.8-3.7c-.1 0-.4-.2 0 .1s.5.3.5.3.1 0 .1-.1.1.1 0 0-.2-.1-.2-.2v-.1c-.2-.1-.4 0-.4 0zm8.9 2.5c-.1 0-.4.2-.4.2 0 .1.1.3.1.3v.3h.1s.1 0 .1-.3.1-.5.1-.5zm-.8 1s-.1 0-.1.1v.2l.1.1c.1-.1.1-.2.1-.2s.1-.1 0-.2h-.1zm-2.3-1.7c-.1 0-.3-.2-.3-.2s0-.1-.1-.2-.2-.1-.2-.1-.3 0 0 .1l.3.3.2.2h.4s.2 0 0-.1h-.3zm-2.1-1.4s.1.2.2.2.1.1.1.1h.5c.1 0 .2 0 .1.2s-.1.3.1.3c.1 0 .1 0 .2.1l.1.1c.1.1.1.2 0 .2s-.1.1-.2 0-.1 0-.1-.1v-.1l-.3-.2-.2-.1h-.2v-.2s0-.1-.1 0-.3-.2-.3-.2h-.5l.6-.3zm1.1 0c.1 0 .1.1 0 0 .1 0 .1.2.1 0s.1-.1 0-.2l-.1-.1c-.1 0 0-.1-.1 0s-.1.1 0 .2l.1.1zm.1 1.4s-.1 0 0 0l-.1.2.1.2s0 .1 0 0 .2-.1.1-.2 0-.2-.1-.2zm.4 1.1c-.1 0-.1 0-.1.1s-.2 0-.1.1c0 .1.1.1.2.1l.1-.1c0-.1-.1-.2-.1-.2zm.5-.6l-.1.1c0 .1-.3.2 0 .1.2-.1.3-.1.3-.1s.3.1.3 0 0-.3-.1-.3h-.1s.1.1-.1.1-.2.1-.2.1zm.3.4c-.1 0-.2-.1-.2 0 .1.1-.1.1 0 .1h.1s0 .2 0 0l.1-.1zm.5-.2s-.1-.1-.2 0-.2.2 0 .2h.3s.3-.2.1-.2h-.2zm.6.3l-.1-.1-.2.1s0 .1.1.1c0 0 0 .1.1 0l.1-.1zm-3.6-3.7h-.2c.1.2.3.3.3.3h.2l-.1-.2s0-.1-.1-.1h-.1zm.9-1.1l-.1.1v.1h.3s.1 0 0-.1-.2-.1-.2-.1zm.9.1h-.2s-.1.1 0 .1h.3s.1 0 .1-.1c-.1.1 0 0-.2 0zm.1.6h-.5s-.1.1 0 .1c0 0 .2 0 .1.1l-.1.1h.2c.1 0 .2-.1.2-.1.1 0 .1-.2.1-.2zm.8.7l-.2.1-.1.1v.1c.1 0 .2.1.2.1h.1l.1-.1c0 .1-.1.2-.1.2h.3c-.1-.1-.1-.2-.1-.2l.1.1c0-.2-.1-.2-.1-.2l-.2-.2zm0 .9c-.1 0-.2.1-.2.1s-.1.1 0 .1.1.1.1.1.1 0 .1.1-.1.1-.1.2c0 0-.1 0 0 0 .1.1 0 .1.1.1s0 .1.1 0c0-.1.1.1.1-.1v-.3c0-.1 0-.2-.2-.3zm.5 1.1c-.1 0-.3.1-.3.2s-.1.1-.1.1.1.1.2 0 .2 0 .2-.2v-.1zm.6-.2c-.1 0-.2 0-.3.1h-.1s-.2 0 0 0h.2c.1 0 .3.1.3 0s.3 0 .1-.1-.2 0-.2 0zm.3.8c-.1 0-.1 0 0 0-.1 0-.2-.1-.2-.1v.3s-.1 0 0 0 .2-.2.2-.2zm.1.3c-.1 0-.2.2-.2.2v.1c.2 0 .1 0 .2-.1l.2-.2c.1-.1 0-.1 0-.1s-.2 0-.2.1zm-9.6-3.2l-1.7-.7-.3-.3.2-.3-.2-.1h-.9l-.9-.7-.6-1.3-1-.6-.2-.8.2-.2-.1-.4.4-.4.7-.3.2.1-.1.2v.1h.3c.1 0 .2-.1.3-.2s.1 0 .2 0h.5c.1 0 .1-.1.2-.1v-.3s.1 0 .1-.1l.1-.1.1-.1v-.2c0-.1 0 0-.1-.1v-.1s.1 0 .1-.1l.1-.1s.1 0 .1-.1c0 0 .1 0 .1-.1h.2v-.1h.2l.1-.1h-.1l-.1-.1c-.1-.1-.1-.2-.1-.2l-.1-.1v-.2l-.1.1-.1.1h-.1c-.1 0 0 .1 0 .1h-.1c-.1 0 0 0-.1.1h-.5c-.1 0-.2.1-.2.1l-.2.3H31c-.1 0-.2-.1-.2-.1h-.7s-.2 0-.3-.1-.1 0-.3-.1c0 0-.2-.2-.2-.3v-.2h-.2c-.1 0-.2.1-.2.1h-.3c-.2 0-.1 0-.3.1 0 0-.1.1-.1.2s-.4.4-.4.4l-.2-.1s-.1 0-.1.1l-.1.1-.3.3s0 .1-.1.1h-.2s0-.1-.1-.1h-.3v.3l-.1.1s-.1 0-.1.1c-.1 0 0 0-.1.1l-.1-.1c-.1-.1-.1 0-.1-.1l-.1-.1v-.1s-.1-.1-.1-.2 0 0-.1 0-.3.1-.3.1l-.1.2v.1l-.1.2c-.1.1-.1 0-.1 0l-.2.1h-.3v.1l-.2.2v.1l.1.2.1.1v.2l-.2.1s-.1 0-.4.1 0 0-.1 0h-.1v.1l.1.2h-.3l-.2.2h-.1l-.1.1v.1H23v.1s0 .1.2.2 0 0-.1.2l-.2-.2-.2-.2-.1-.1c-.1-.1 0 0 0 0h-.1v.1h-.6l-.1-.2-.1-.3v-.1l-.1-.1s-.1-.1-.2 0c0 0 0-.1-.1-.2 0 0-.1 0-.2.1l-.1.1-.1-.2-.3.2-.1.1c-.1.1-.1 0-.1 0h-.1V38s0-.1-.1-.1H20c-.1 0 0 0 0-.1s-.1-.1-.2-.1h-.1c-.1 0-.1-.2-.1-.2l.1-.2v-.1l-.1-.1-.1-.1h-.2s0-.1-.2-.1H19c-.1 0-.1.2-.1.2l-.1.1c-.1.1-.1 0-.1.1s-.1.1-.1.2-.1.1-.1.1h-.2l-.1.1-.2-.2v-.1s-.2-.1-.3-.1 0 0 0-.1-.1-.2-.1-.2l-.2-.2v.4l-.9 2.5-2-.4-1.6-.5-1.1-.2-.5-.4-.4.1s-.3.2-.4.2h-.7l-.1.2.2 1.1-.2.4-.2 1.5s-.5.9-.5 1-.7 1-.7 1l.2.3h.2v.6L8.2 46l1 .3.9-.1.5.5.2 1 .4.3s.4-.4.6-.4 1.2.1 1.3.1 1.6.1 1.7.1.9-.9.9-.9h.6l.6-1 .5-.2-.4-1.1 1-1.2.5-.5 1.6-.5.5-.3-.1-1.2.4-.5.8-.3.6.3.3-.2.3.4.9.1.7-.6.9-.2.6-.6 1.2.5.5 1.2.6.9 1.1.8.7.5.7.1.6.6h.4l.2.6.5.1.7 1.4v.3l-.3-.3v.5l-.4.1-1.2.4h-.5l-.4-.3-.3.3-.3-.1-.3.3.2.4.5.1.8.5h.4l.4.4.4.1.2-.4-.2-.6.3-.8.1-.2.1.3.4-.1.2-.4.2-.3v-.3l.6-.3V45l-.6-.4.3-.8.4-.1.7.2.2.4.3.1.1-.4-.8-.6zM19.6 41c0 .1 0 0 0 0-.1 0-.2.1-.2.1h-.2l.1-.1.1-.1h.1s.1 0 .2.1h-.1z"/>
        <path d="M21.2 44.2c-.1 0-.1.1-.1.1v.1s-.1.1.1.1.3.1.3.1h.1v-.1s.2-.1 0-.2l-.4-.2zm-.4.3h-.2l-.1-.1h-.3s-.1-.1-.2.1c-.2.2-.5.2-.3.3.2.1.1.1.2.1s.2-.1.2-.1-.1.1 0 .2l.1.1c.1.1-.2.2.1.1.3-.1.2-.1.3-.1.1 0 .2-.1.2-.1v-.5zm-2 .7c0 .1-.4.3-.3.3h.2l.2-.1.1-.1c-.1.1-.2-.2-.2-.1zm8-4l-.2-.3h-.1v.2l-.4.2c-.2.1-.3.2-.3.2v.8s.1.1.1.2v.2l.1.2.3.1s0-.1.1-.2c0-.1.1-.2.1-.2v-.1c0-.1.2-.2.1-.4s.1-.1.1-.1v-.6c0-.1.1-.2.1-.2z"/>
        <path d="M26.8 43.5l-.1-.1v-.2l.1-.1h-.2s0-.1-.1-.1c0 0-.2-.1-.2 0l-.2.1s-.1.1-.1.2l-.1.1-.1.1h-.3c-.1 0 0 0-.1.1 0 .1-.1.1-.1.2l.1.1.1.3h.1s-.1 0 0 .1c0 .1.1 0 0 .1 0 .1.1 0 0 .1s-.1.2-.1.2v.1l.1.1v.3l-.1.1c0-.1-.1-.2-.1-.1v.4c0 .1-.1.2 0 .3h.1l-.1.1s-.1.1 0 .1.1.1.1.1.1.1.1 0 0-.2.1-.1c0 .1.1.1.1.1h.3v-.3s.1-.1.2 0c0 .1.2.1.2.1s.1.1.1 0 0 .1.1-.1c.1-.1.1-.2.1-.3v-.8l-.1-.2s0-.1.1-.1.1-.1.1-.2c0 0-.1-.1-.1-.2s.1-.5 0-.6zm25.1 2.4l-.1.1s0 .3-.2.2c-.2-.1-.3-.1-.3.1s0 .4-.1.3c-.2-.1-.3 0-.3 0s-.1.2-.3.3h-.2s.1 0 0 0-.1.1-.1.1.1.2-.2.2c-.5.1-.3.6-.3.6s.5-.1.7-.1c.2 0-.3.4.4-.2s.8-.5.8-.7 0-.2.1-.4"/>
    </g>
</svg>
