<svg xmlns="http://www.w3.org/2000/svg" xmlns:xlink="http://www.w3.org/1999/xlink" width="132" height="73"><defs><path id="a" d="M.039.512h60.499v60.876H.039z"/></defs><g fill="none" fill-rule="evenodd"><mask id="b" fill="#fff"><use xlink:href="#a"/></mask><path fill="#FFFFFE" d="M60.538 30.95c0 16.81-13.552 30.438-30.269 30.438S0 47.76 0 30.95 13.552.512 30.27.512c16.716 0 30.268 13.627 30.268 30.438" mask="url(#b)"/><path fill="#8ACED4" d="M29.87 1C14.555 1 1.917 12.356 0 27.054a37.469 37.469 0 0117.009-8.616 20.734 20.734 0 0117.086-8.943c11.445 0 20.724 9.219 20.724 20.59 0 .712-.037 1.415-.108 2.108A37.204 37.204 0 0158.885 39 29.768 29.768 0 0060 30.937C60 14.403 46.51 1 29.87 1"/><path fill="#E1A22E" d="M35.224 10C28.957 10 23.411 13.108 20 17.88c1.7-.239 3.438-.365 5.204-.365 11.51 0 21.802 5.24 28.69 13.485.07-.661.106-1.332.106-2.011C54 18.5 45.594 10 35.224 10"/><path fill="#8A2540" d="M29.644 22C17.598 22 7.025 28.318 1 37.833 4.13 51.115 15.989 61 30.151 61c2.11 0 4.168-.221 6.154-.639-5.374-2.213-10.015-3.414-13.285-3.414-1.765 0-2.997.133-3.567.212 0 0 .166-4.81 15.412-3.604 2.976.236-.483-4.985-19.548-17.746a5.43 5.43 0 011.242-.135c7.366 0 21.041 12.044 21.178 12.165l.58.515c-.126-5.773-17.78-16.62-21.302-18.574.491-.187 1.058-.28 1.694-.28 7.405 0 21.722 12.429 21.866 12.554-.544-3.783-5.64-8.158-16.564-14.824a5.866 5.866 0 011.434-.167c1.234 0 2.573.32 3.978.95 5.339 2.396 13.763 8.777 13.763 8.777-.315-3.99-7.31-8.548-10.148-9.945 2.127.125 8.532.937 14.837 6.075 4.365 3.556 7.024 7.945 8.628 12.272A30.042 30.042 0 0059 39.008C53.121 28.84 42.18 22 29.644 22"/><path fill="#E1A22E" d="M86.777 18.97h3.329L88.62 7.274h-.274l-1.57 11.696zM81 29l4.661-28h5.698L96 29h-4.505l-.866-6.06h-4.413L85.287 29H81zm23.022-11.451v-4.836c0-1.404-.571-2.106-1.714-2.106-1.116 0-1.674.702-1.674 2.106v4.836c0 1.416.558 2.125 1.674 2.125 1.143 0 1.714-.709 1.714-2.125zm-2.278 11.27c-.987.454-1.48 1-1.48 1.638 0 .546.35.974 1.051 1.286.545.234 1.13.351 1.753.351.765 0 1.46-.104 2.083-.311.896-.313 1.344-.774 1.344-1.385 0-1.027-1.584-1.553-4.75-1.579zm-2.142-6.59c-1.687-1.054-2.531-2.691-2.531-4.914V13.16c0-1.845.414-3.308 1.244-4.387C99.234 7.591 100.588 7 102.377 7c1.723 0 3.22.773 4.49 2.32.465.858.699 1.456.699 1.794v6.239c0 3.757-1.662 5.623-4.985 5.597-.091 0-.402-.026-.935-.079a.225.225 0 01-.097-.019c-.61.456-.915.897-.915 1.326 0 .598.76.943 2.278 1.034.947.052 1.675.117 2.18.194 3.273.482 4.908 2.042 4.908 4.68 0 3.276-2.5 4.914-7.497 4.914C98.167 35 96 33.894 96 31.685c0-.689.292-1.326.876-1.911.493-.494 1.356-.988 2.59-1.482-1.597-.402-2.395-1.202-2.395-2.398 0-1.21.844-2.43 2.53-3.666zM114 29V8.234h3.722v2.822C118.66 9.019 119.963 8 121.63 8h.37v4.34a2.558 2.558 0 00-1.204-.272c-2.049 0-3.074 1.116-3.074 3.348V29H114m10 0h4V8.339h-4V29zm0-24.146h4V1h-4v3.854z"/><path fill="#8A2540" d="M70.777 50.97h3.329L72.62 39.274h-.274l-1.57 11.696zM65 61l4.661-28h5.698L80 61h-4.505l-.866-6.06h-4.413l-.93 6.06H65zm24.121-16.52c-.502-.568-1.03-.853-1.583-.853-1.055 0-1.581.728-1.581 2.185v10.944c0 1.272.45 1.907 1.35 1.907.63 0 1.235-.324 1.814-.974V44.481zm0 17.242v-1.629C88.143 61.364 86.934 62 85.493 62 83.165 62 82 60.444 82 57.332V45.573c0-3.548 1.242-5.323 3.725-5.323 1.21 0 2.341.662 3.396 1.986V33H93v28.722h-3.879zm13.017-9.542h-3.333l.056 3.692c.025 1.637.566 2.455 1.62 2.455 1.118 0 1.67-.818 1.657-2.455V52.18zM106 46.425v9.408c0 1.794-.508 3.26-1.526 4.4C103.42 61.41 102.038 62 100.331 62c-1.709 0-3.024-.534-3.947-1.6C95.461 59.331 95 57.54 95 55.026c0-4.451 2.38-6.58 7.138-6.383v-2.101c.013-1.951-.527-2.927-1.62-2.927-.614 0-1.262.131-1.939.393l-1.507-3.064 3.013-.943c3.943-.078 5.915 2.062 5.915 6.423zm7.879-2.067v13.295c.527.6 1.055.9 1.582.9 1.055 0 1.583-.747 1.583-2.24V45.299c0-1.253-.45-1.88-1.351-1.88-.656 0-1.261.314-1.814.94zM110 67V40.3h3.879v1.68c.978-1.32 2.187-1.98 3.628-1.98 2.328 0 3.493 1.58 3.493 4.743v11.805c0 3.576-1.242 5.363-3.725 5.363-1.209 0-2.341-.666-3.396-1.999V67H110zm14.36-10.07V43.44H122l.556-3.413 1.804.1V34h3.8v6.126H131v3.314h-2.84V56.55c0 1.225.563 1.836 1.69 1.836.242 0 .62-.066 1.131-.2l.019 3.474a6.954 6.954 0 01-2.207.339c-2.955 0-4.433-1.69-4.433-5.07"/><path fill="#93384A" d="M66 71.869a.984.984 0 01-.445.845c-.266.191-.593.286-.982.286-.922 0-1.447-.343-1.573-1.03l.296-.045c.1.533.526.8 1.277.8.302 0 .557-.068.768-.206a.739.739 0 00.356-.65c0-.34-.22-.585-.66-.734l-1.224-.325c-.44-.168-.659-.447-.659-.835 0-.321.137-.57.41-.745.234-.153.527-.23.88-.23.685 0 1.155.26 1.413.779l-.274.123c-.201-.41-.582-.616-1.14-.616-.266 0-.487.048-.666.146a.59.59 0 00-.32.543c0 .291.22.505.66.639l1.224.336c.439.187.659.493.659.919M70.725 71c0-1.143-.408-1.715-1.225-1.715-.813 0-1.22.572-1.22 1.715 0 1.144.407 1.715 1.22 1.715.817 0 1.225-.571 1.225-1.715zM71 71c0 .57-.106 1.026-.318 1.37-.258.42-.651.63-1.182.63-.532 0-.926-.21-1.182-.63-.212-.344-.318-.8-.318-1.37 0-.57.106-1.026.318-1.37.256-.42.65-.63 1.182-.63.53 0 .924.21 1.182.63.212.344.318.8.318 1.37zM76 69l-.93 4h-.29l-.783-3.364L73.22 73h-.296L72 69h.295l.777 3.364.777-3.364h.295l.778 3.364.783-3.364H76M76.263 73h.474v-4h-.474zM81 73h-.344l-2.33-3.479V73H78v-4h.344l2.337 3.479V69H81v4M84 70.916l-.005 2.034H83.7v-.587c-.198.425-.564.637-1.1.637-.559 0-.976-.21-1.252-.63-.232-.351-.348-.808-.348-1.37 0-.555.121-1.011.366-1.37.287-.42.709-.63 1.264-.63.268 0 .502.052.703.156.177.093.356.247.537.459l-.224.178a1.72 1.72 0 00-.443-.38 1.215 1.215 0 00-.573-.128c-.48 0-.833.18-1.058.542-.18.294-.272.685-.272 1.173 0 .48.09.868.267 1.162.22.37.565.553 1.033.553.402 0 .696-.167.88-.503.147-.256.22-.593.22-1.01h-1.064v-.286H84M90 69.287h-2.639v1.501h2.37v.269h-2.37V73H87v-4h3v.287M92.726 71c0-1.143-.41-1.715-1.226-1.715-.813 0-1.22.572-1.22 1.715 0 1.144.407 1.715 1.22 1.715.817 0 1.226-.571 1.226-1.715zM93 71c0 .57-.106 1.026-.318 1.37-.257.42-.65.63-1.182.63-.53 0-.925-.21-1.182-.63-.212-.344-.318-.8-.318-1.37 0-.57.106-1.026.318-1.37.257-.42.651-.63 1.182-.63.532 0 .925.21 1.182.63.212.344.318.8.318 1.37zm3.577-.923c0-.523-.36-.785-1.077-.785h-1.173v1.582H95.5c.718 0 1.077-.266 1.077-.797zM97 73h-.378l-.936-1.444c-.176-.267-.37-.402-.584-.402h-.775V73H94v-4h1.5c.427 0 .761.082 1 .246.265.184.398.46.398.831 0 .329-.105.584-.314.765-.21.182-.5.284-.872.307.132.118.233.227.302.326L97 73zM102 69.287h-1.348V73h-.303v-3.713H99V69h3v.287M105 73h-.31v-1.937h-2.381V73H102v-4h.309v1.788h2.381V69h.31v4M109 73h-3v-4h3v.287h-2.647v1.501h2.315v.275h-2.315v1.65H109V73M115 69.287h-2.639v1.501h2.37v.269h-2.37V73H112v-4h3v.287M118 71.246c0 1.17-.5 1.754-1.5 1.754s-1.5-.585-1.5-1.754V69h.31v2.246c0 .453.075.794.224 1.024.19.295.512.442.966.442.453 0 .775-.147.965-.442.15-.234.225-.575.225-1.024V69h.31v2.246M122 69.287h-1.348V73h-.304v-3.713H119V69h3v.287M125 71.246c0 1.17-.5 1.754-1.5 1.754s-1.5-.585-1.5-1.754V69h.31v2.246c0 .453.075.794.225 1.024.19.295.512.442.965.442.453 0 .776-.147.966-.442.15-.234.224-.575.224-1.024V69h.31v2.246m3.577-1.169c0-.523-.36-.785-1.077-.785h-1.173v1.582h1.173c.718 0 1.077-.266 1.077-.797zM129 73h-.378l-.936-1.444c-.176-.267-.37-.402-.584-.402h-.775V73H126v-4h1.5c.427 0 .761.082 1 .246.265.184.398.46.398.831 0 .329-.105.584-.314.765-.21.182-.5.284-.872.307.132.118.233.227.3.326L129 73zM132 73h-3v-4h3v.287h-2.647v1.501h2.315v.275h-2.315v1.65H132V73"/></g></svg>