<svg version="1.0" xmlns="http://www.w3.org/2000/svg" viewBox="0 0 64 64">
    <circle opacity=".2" fill="#9D2347" cx="33" cy="33" r="30.8"/>
    <circle fill="#9D2347" cx="31" cy="31" r="30.8"/>
    <path fill="#9D2347" d="M45.7 48.9c-.5-1.1-.9-2.2-1.4-3.3-.4-1-1-1.3-2.1-1-1.4.3-2.7.7-4 1-2.6.5-5.2.6-7.8-.2-3.2-1-4.9-3.3-6-6.2h7.3c1.5 0 2.8-1.2 2.8-2.8s-1.2-2.8-2.8-2.8h-8.1v-2h8.1c1.5 0 2.8-1.2 2.8-2.8 0-1.5-1.2-2.8-2.8-2.8h-6.9c1-2.3 2.5-4.1 4.9-5.1 2.8-1.1 5.7-1.1 8.6-.5 1.4.3 2.7.7 4.1 1 1 .2 1.6-.1 2-1 .5-1.1.9-2.2 1.4-3.3.4-1 .2-1.8-.8-2.3-.2-.1-.5-.3-.8-.4-4-1.6-8.2-2.2-12.5-1.5-3 .5-5.9 1.5-8.3 3.4-3.1 2.4-5.1 5.5-6.2 9.2l-.1.3h-2.8c-1.5 0-2.8 1.2-2.8 2.8 0 1.5 1.2 2.8 2.8 2.8H16v2h-1.9c-1.5 0-2.8 1.2-2.8 2.8s1.2 2.8 2.8 2.8h2.6c.3 1 .5 1.9.9 2.9 2.1 5 5.5 8.6 10.8 10.3 4.3 1.4 8.7 1.4 13 .2 1.1-.3 2.3-.7 3.3-1.2 1.1-.5 1.4-1.3 1-2.3z"/>
    <path fill="#FFF" d="M43.8 46.7c-.5-1.1-.9-2.2-1.4-3.3-.4-1-1-1.3-2.1-1-1.4.3-2.7.7-4 1-2.7.6-5.3.6-7.9-.2-3.2-1-4.9-3.3-6-6.2h7.3c1.5 0 2.8-1.2 2.8-2.8s-1.2-2.8-2.8-2.8h-8.1v-2h8.1c1.5 0 2.8-1.2 2.8-2.8 0-1.5-1.2-2.8-2.8-2.8h-6.9c1-2.3 2.5-4.1 4.9-5.1 2.8-1.1 5.7-1.1 8.6-.5 1.4.3 2.7.7 4.1 1 1 .2 1.6-.1 2-1 .5-1.1.9-2.2 1.4-3.3.4-1 .2-1.8-.8-2.3-.2-.1-.5-.3-.8-.4-4-1.6-8.2-2.2-12.5-1.5-3 .5-5.9 1.5-8.3 3.4-3.1 2.4-5.1 5.5-6.2 9.2l-.2.7h-2.8c-1.5 0-2.8 1.2-2.8 2.8 0 1.5 1.2 2.8 2.8 2.8h1.9v2h-1.9c-1.5 0-2.8 1.2-2.8 2.8s1.2 2.8 2.8 2.8h2.6c.3 1 .5 1.9.9 2.9 2.1 5 5.5 8.6 10.8 10.3 4.3 1.4 8.7 1.4 13 .2 1.1-.3 2.3-.7 3.3-1.2 1.1-.9 1.4-1.7 1-2.7z"/>
    <path opacity=".2" fill="#9D2347" d="M44.1 3.2c1.9 4 2.9 8.4 2.9 13.1C47 33.3 33.3 47 16.3 47c-4.7 0-9.1-1.1-13.1-2.9C8.1 54.5 18.7 61.8 31 61.8 48 61.8 61.8 48 61.8 31c0-12.3-7.3-22.9-17.7-27.8z"/>
</svg>
