<svg version="1.0" xmlns="http://www.w3.org/2000/svg" viewBox="0 0 64 64">
    <circle opacity=".2" fill="#4E824D" cx="33" cy="33" r="30.8"/>
    <circle fill="#4E824D" cx="31" cy="31" r="30.8"/>
    <g fill="#4E824D">
        <path d="M32.9 52.3c-3.1 0-5.6-2.5-5.6-5.6V19.2c0-3.1 2.5-5.6 5.6-5.6 3.1 0 5.6 2.5 5.6 5.6v27.5c0 3.1-2.5 5.6-5.6 5.6z"/>
        <path d="M52.2 32.9c0 3.1-2.5 5.6-5.6 5.6H19.1c-3.1 0-5.6-2.5-5.6-5.6 0-3.1 2.5-5.6 5.6-5.6h27.5c3.1 0 5.6 2.5 5.6 5.6z"/>
    </g>
    <g fill="#FFF">
        <path d="M31.1 50.5c-3.1 0-5.6-2.5-5.6-5.6V17.4c0-3.1 2.5-5.6 5.6-5.6 3.1 0 5.6 2.5 5.6 5.6v27.5c0 3.1-2.5 5.6-5.6 5.6z"/>
        <path d="M50.5 31.2c0 3.1-2.5 5.6-5.6 5.6H17.3c-3.1 0-5.6-2.5-5.6-5.6 0-3.1 2.5-5.6 5.6-5.6h27.5c3.2 0 5.7 2.5 5.7 5.6z"/>
    </g>
    <path opacity=".2" fill="#4E824D" d="M44.1 3.2c1.9 4 2.9 8.4 2.9 13.1C47 33.3 33.3 47 16.3 47c-4.7 0-9.1-1.1-13.1-2.9C8.1 54.5 18.7 61.8 31 61.8 48 61.8 61.8 48 61.8 31c0-12.3-7.3-22.9-17.7-27.8z"/>
</svg>
