<svg version="1.0" xmlns="http://www.w3.org/2000/svg" viewBox="0 0 64 64">
    <circle opacity=".2" fill="#4E824D" cx="33" cy="33" r="30.8"/>
    <circle fill="#4E824D" cx="31" cy="31" r="30.8"/>
    <g fill="#4E824D">
        <path d="M38.2 19v-.2c0-1.1-.3-2.1-.7-3.1v-.1c-.3-.7-.8-1.3-1.3-1.8-1.3-1.3-3.1-2.1-5-2.1h-1c-.1 0-.3 0-.4.1-.1 0-.3.1-.4.1-.1 0-.2 0-.3.1-.1 0-.3.1-.4.2-.1 0-.1 0-.2.1-.2.1-.4.2-.5.3h-.1c-2.2 1.2-3.7 3.5-3.7 6.2v.6c.1 1.7.8 3.2 2 4.4.7.8 1.6 1.3 2.6 1.6 1.6-.2 3.3-.2 4.9 0 .9-.3 1.8-.9 2.6-1.6 1.3-1.3 2-2.9 2.1-4.7l-.2-.1zm-4.5 3.7c-.2.1-.5.2-.7.3-.9.3-1.9.3-2.8 0-1.1-.4-1.9-1.1-2.3-2.2-.1-.2-.1-.4-.2-.6h-.6c-.3 0-.6-.3-.6-.6s.3-.6.6-.6h.4v-.4h-.4c-.3 0-.6-.3-.6-.6s.3-.6.6-.6h.6v-.1c.2-.8.7-1.5 1.3-2 .5-.4 1.1-.6 1.8-.7.9-.1 1.8 0 2.7.3.1 0 .1 0 .2.1.2.1.3.3.2.5-.1.2-.2.5-.3.7-.1.2-.2.3-.4.2-.3-.1-.6-.2-.9-.2-.7-.2-1.3-.2-1.9 0-.5.2-.8.6-1 1.1h1.5c.3 0 .6.3.6.6s-.3.6-.6.6h-1.7v.4h1.7c.3 0 .6.3.6.6s-.3.6-.6.6h-1.6c.2.6.6 1.1 1.3 1.3.6.2 1.1.2 1.7 0 .3-.1.6-.1.9-.2.2-.1.4 0 .4.2.1.2.2.5.3.7.1.3 0 .5-.2.6z"/>
        <path d="M52.2 32.1l-1.7-.5c-.2-.1-.4-.2-.5-.5-.3-1.1-.8-2.1-1.5-3.1-.3-.4-.7-.9-1.1-1.3.2-1.1.4-2.3.4-3.4 0-1.5-.3-2.4-.9-2.7-.3-.2-1.3-.7-6.7 1.8-.1.1-.2.1-.4.2-.4-.1-.7-.2-1.1-.3l-.6 1.1c-.3.5-.7.9-1.1 1.3-.5.5-.9.8-1.5 1.2.4.1.8.2 1.1.3.3.1.5.5.4.8-.1.3-.3.4-.6.4h-.2c-3.3-1.1-7-1.1-10.3 0-.3.1-.7-.1-.8-.4-.1-.3.1-.7.4-.8.4-.1.7-.2 1.1-.3-.5-.3-1-.7-1.5-1.2-.4-.4-.7-.8-1-1.2-.4.2-.7.4-1.1.6h-.1c-2.7 1.6-4.5 3.8-5.4 6.6-.2.6-.4 1.2-.5 1.9h-.1c0-.4-.1-.8-.2-1.2-.3-.9-1.1-1.5-1.8-1.6-.6-.1-1.2.2-1.6.7-.6.8-.5 1.4-.3 1.7.3.6 1.1 1.1 2.4 1.3 0 .1-.1.1-.1.2-.8 1-1.7 1.2-2.2 1.2-.3 0-.6.3-.6.6s.3.6.6.6h.1c.7 0 1.9-.3 3.1-1.7.2-.2.3-.5.4-.7h.2v1c0 1.8.4 3.5 1.1 5.1 0 .1.1.2.1.3l.6 1.2c.5.8 1.1 1.5 1.7 2.1l.2.2.1.1c.8.7 1.7 1.4 2.6 1.9l.8 4.2c.1.7.7 1.2 1.4 1.2h2.8c.7 0 1.3-.5 1.4-1.2l.4-2.2c.9.1 1.8.1 2.7.1 1.2 0 2.5-.1 3.7-.3l.4 2.3c.1.7.7 1.2 1.4 1.2h2.8c.7 0 1.3-.5 1.4-1.2l.8-4.5c2.4-1.3 4.2-2.9 5.4-4.9.1-.1.2-.3.4-.3l2.7-.9c.9-.3 1.6-1.2 1.6-2.2v-2.8c.4-.8-.3-1.7-1.2-2zm-37.9-.4c-.1-.1.1-.4.2-.5.1-.2.3-.2.4-.2h.1c.3 0 .7.3.9.8 0 .1.1.3.1.6-1-.2-1.6-.4-1.7-.7zm29.2 2.4c-1.1 0-2-.9-2-2 0-.3.3-.6.6-.6s.6.3.6.6c0 .4.3.8.8.8s.8-.3.8-.8c0-.3.3-.6.6-.6s.6.3.6.6c-.1 1.1-1 2-2 2zm2.9-9c-.2 2-.8 3.7-1.5 4-.7.4-2.3.5-3.6-.4-1.2-.9-1.6-2.5-1.2-4.7 0-.2.2-.4.4-.5 3-1.4 4.7-1.8 5.4-1.8h.2c.3.3.5 1.4.3 3.4z"/>
    </g>
    <g fill="#FFF">
        <path d="M36.2 17v-.2c0-1.1-.3-2.1-.7-3.1v-.1c-.3-.7-.8-1.3-1.3-1.8-1.3-1.3-3.1-2.1-5-2.1h-1c-.1 0-.3 0-.4.1-.1 0-.3.1-.4.1-.1 0-.2 0-.3.1-.1 0-.3.1-.4.2-.1 0-.1 0-.2.1-.2.1-.4.2-.5.3h-.1c-2.2 1.2-3.7 3.5-3.7 6.2v.6c.1 1.7.8 3.2 2 4.4.7.8 1.6 1.3 2.6 1.6 1.6-.2 3.3-.2 4.9 0 .9-.3 1.8-.9 2.6-1.6 1.3-1.3 2-2.9 2.1-4.7l-.2-.1zm-4.5 3.7c-.2.1-.5.2-.7.3-.9.3-1.9.3-2.8 0-1.1-.4-1.9-1.1-2.3-2.2-.1-.2-.1-.4-.2-.6h-.6c-.3 0-.6-.3-.6-.6s.3-.6.6-.6h.4v-.4h-.4c-.3 0-.6-.3-.6-.6s.3-.6.6-.6h.6v-.1c.2-.8.7-1.5 1.3-2 .5-.4 1.1-.6 1.8-.7.9-.1 1.8 0 2.7.3.1 0 .1 0 .2.1.2.1.3.3.2.5-.1.2-.2.5-.3.7-.1.2-.2.3-.4.2-.3-.1-.6-.2-.9-.2-.7-.2-1.3-.2-1.9 0-.5.2-.8.6-1 1.1h1.5c.3 0 .6.3.6.6s-.3.6-.6.6h-1.7v.4h1.7c.3 0 .6.3.6.6s-.3.6-.6.6h-1.6c.2.6.6 1.1 1.3 1.3.6.2 1.1.2 1.7 0 .3-.1.6-.1.9-.2.2-.1.4 0 .4.2.1.2.2.5.3.7.1.3 0 .5-.2.6z"/>
        <path d="M50.2 30.1l-1.7-.5c-.2-.1-.4-.2-.5-.5-.3-1.1-.8-2.1-1.5-3.1-.3-.4-.7-.9-1.1-1.3.2-1.1.4-2.3.4-3.4 0-1.5-.3-2.4-.9-2.7-.3-.2-1.3-.7-6.7 1.8-.1.1-.2.1-.4.2-.4-.1-.7-.2-1.1-.3l-.6 1.1c-.3.5-.7.9-1.1 1.3-.5.5-.9.8-1.5 1.2.4.1.8.2 1.1.3.3.1.5.5.4.8-.1.3-.3.4-.6.4h-.2c-3.3-1.1-7-1.1-10.3 0-.3.1-.7-.1-.8-.4-.1-.3.1-.7.4-.8.4-.1.7-.2 1.1-.3-.5-.3-1-.7-1.5-1.2-.4-.4-.7-.8-1-1.2-.4.2-.7.4-1.1.6h-.1c-2.7 1.6-4.5 3.8-5.4 6.6-.2.6-.4 1.2-.5 1.9h-.1c0-.4-.1-.8-.2-1.2-.3-.9-1.1-1.5-1.8-1.6-.6-.1-1.2.2-1.6.7-.6.8-.5 1.4-.3 1.7.3.6 1.1 1.1 2.4 1.3 0 .1-.1.1-.1.2-.8 1-1.7 1.2-2.2 1.2-.3 0-.6.3-.6.6s.3.6.6.6h.1c.7 0 1.9-.3 3.1-1.7.2-.2.3-.5.4-.7h.2v1c0 1.8.4 3.5 1.1 5.1 0 .1.1.2.1.3l.6 1.2c.5.8 1.1 1.5 1.7 2.1l.2.2.1.1c.8.7 1.7 1.4 2.6 1.9l.8 4.2c.1.7.7 1.2 1.4 1.2h2.8c.7 0 1.3-.5 1.4-1.2l.4-2.2c.9.1 1.8.1 2.7.1 1.2 0 2.5-.1 3.7-.3l.4 2.3c.1.7.7 1.2 1.4 1.2h2.8c.7 0 1.3-.5 1.4-1.2l.8-4.5c2.4-1.3 4.2-2.9 5.4-4.9.1-.1.2-.3.4-.3l2.7-.9c.9-.3 1.6-1.2 1.6-2.2v-2.8c.4-.8-.3-1.7-1.2-2zm-37.9-.4c-.1-.1.1-.4.2-.5.1-.2.3-.2.4-.2h.1c.3 0 .7.3.9.8 0 .1.1.3.1.6-1-.2-1.6-.4-1.7-.7zm29.2 2.4c-1.1 0-2-.9-2-2 0-.3.3-.6.6-.6s.6.3.6.6c0 .4.3.8.8.8s.8-.3.8-.8c0-.3.3-.6.6-.6s.6.3.6.6c-.1 1.1-1 2-2 2zm2.9-9c-.2 2-.8 3.7-1.5 4-.7.4-2.3.5-3.6-.4-1.2-.9-1.6-2.5-1.2-4.7 0-.2.2-.4.4-.5 3-1.4 4.7-1.8 5.4-1.8h.2c.3.3.5 1.4.3 3.4z"/>
    </g>
    <path opacity=".2" fill="#4E824D" d="M44.1 3.2c1.9 4 2.9 8.4 2.9 13.1C47 33.3 33.3 47 16.3 47c-4.7 0-9.1-1.1-13.1-2.9C8.1 54.5 18.7 61.8 31 61.8 48 61.8 61.8 48 61.8 31c0-12.3-7.3-22.9-17.7-27.8z"/>
</svg>
